<?xml version="1.0" encoding="UTF-8" standalone="no"?>
<!DOCTYPE svg PUBLIC "-//W3C//DTD SVG 1.1//EN" "http://www.w3.org/Graphics/SVG/1.1/DTD/svg11.dtd">
<svg width="100%" height="100%" viewBox="0 0 658 1024" version="1.1" xmlns="http://www.w3.org/2000/svg" xmlns:xlink="http://www.w3.org/1999/xlink" xml:space="preserve" xmlns:serif="http://www.serif.com/" style="fill-rule:evenodd;clip-rule:evenodd;stroke-linejoin:round;stroke-miterlimit:2;">
    <g>
        <g>
            <g transform="matrix(1,0,0,1,-1.353537,-4.329711)">
                <path d="M379.894,84.259C380.016,84.703 380.138,85.146 380.26,85.59C380.234,89.795 378.96,86.268 382.565,88.283C381.865,92.746 383.518,107.184 374.003,119.724C370.97,123.723 369.541,122.656 368.236,127.515C365.983,135.9 366.725,136.907 361.246,145.292C360.638,146.224 358.377,165.441 366.378,171.053C383.152,182.819 385.774,177.617 409.772,192.071C418.046,197.055 445.888,184.514 466.432,226.585C476.442,247.082 471.118,265.871 477.237,273.345C492.858,292.424 493.082,305.731 505.715,327.384C517.091,346.881 527.258,341.403 543.417,381.534C549.289,396.116 552.963,410.262 571.952,444.219C576.718,452.741 577.941,452.114 580.688,461.439C584.431,474.149 597.136,499.557 597.112,503.138C597.031,515.168 597.521,510.401 596.781,522.452C596.66,524.428 597.941,527.017 589.118,547.095C588.071,549.48 589.135,556.999 583.008,554.468C578.032,552.412 581.784,549.685 577.202,545.472C573.051,541.654 575.569,535.921 576.032,535.169C580.216,528.376 578.911,515.752 578.495,513.907C578.767,513.45 577.01,510.286 577.625,509.5C577.806,509.267 576.569,506.571 576.112,506.094C572.323,502.137 574.154,502.067 574.196,500.958C573.88,500.6 574.907,500.364 574.591,500.006C562.105,486.221 574.421,500.729 571.937,500.77C566.428,500.861 562.755,497.177 563.694,497.882C569.033,501.891 567.948,519.78 562.505,521.511C557.066,523.241 557.76,504.788 557.704,504.484C555.731,493.896 549.822,489.606 554.193,475.391C554.88,473.156 553.992,472.744 554.784,470.514C557.443,463.027 522.555,428.388 517.091,423.977C483.436,396.812 481.686,381.553 473.244,361.574C474.278,361.313 474.162,361.085 475.253,361.066C478.036,361.018 468.564,354.206 468.262,354.011C456.14,341.207 458.478,344.772 450.031,330.463C441.918,316.718 426.115,293.998 426.115,293.998C426.115,293.998 422.843,303.278 418.327,313.843C409.083,335.467 409.131,335.134 400.444,357.043C403.586,361.913 398.103,368.234 397.859,384.871C397.643,399.613 406.698,397.537 414.676,434.952C422.06,454.993 429.02,488.6 429.02,488.6L429.807,494.38C435.529,497.813 461.845,600.512 429.807,679.907C420.896,701.991 426.625,700.468 427.063,739.534C427.063,739.534 446.148,779.24 441.921,822.535C439.568,846.636 441.949,846.563 434.766,901.431C429.027,945.268 435.373,944.989 437.13,957.536C436.509,960.513 435.889,963.49 435.268,966.466C435.233,966.497 433.253,968.427 433.25,968.442C432.978,970.191 434.011,969.193 435.559,968.394C436.88,968.344 437.283,968.852 437.595,967.539C438.629,963.191 438.482,963.243 439.542,958.982C444.008,961.546 447.824,968.826 465.425,975.099C472.651,981.866 472.73,975.818 474.684,983.181C475.163,984.987 471.645,986.518 470.5,986.498C467.84,986.45 467.114,989.286 466.892,989.559C459.989,998.074 459.006,993.246 444.5,996.376C443.665,996.556 431.267,1002.516 431.196,1002.472C430.457,1002.017 402.949,1012.876 402.303,995.54C402.215,993.193 400.898,986.352 406.826,966.523C407.679,962.767 412.129,943.185 403.504,918.499C397.33,901.802 393.369,869.163 381.723,841.399C367.676,807.911 376.356,794.92 378.434,758.499C384.275,741.705 386.45,700.749 383.03,714.033C380.973,722.024 384.291,722.512 377.739,753.64C377.585,754.372 377.522,754.418 377.466,754.458C376.864,754.896 376.743,754.363 376.179,754.773C353.111,724.089 364.54,676.888 352.365,650.238C330.086,601.471 336.937,547.455 336.937,547.455L323.147,547.385C322.428,614.944 305.968,646.88 305.088,651.755C303.848,658.626 298.678,714.211 285.064,748.317C281.55,757.121 281.259,757.217 279.74,757.495C283.301,794.394 288.57,813.005 278.142,838.311C262.551,876.144 264.732,890.011 253.358,923.462C252.945,925.113 252.532,926.763 252.12,928.413C251.511,931.565 247.198,953.915 252.097,968.536C254.358,977.966 260.941,997.773 251.56,1001.669C234.18,1008.887 218.461,996.231 216.645,995.069C215.319,995.423 213.171,995.998 199.595,993.064C191.282,991.268 192.995,986.091 188.5,986.5C185.668,986.758 183.603,977.965 193.514,978.829C195.009,978.764 195.964,979.498 200.579,975.616C202.311,974.206 202.471,974.513 216.188,961.195C221.947,955.604 218.49,964.772 222.56,969.168C223.409,970.085 222.86,965.705 222.757,965.426C220.047,958.064 220.893,957.858 223.175,950.421C231.705,922.616 224.713,917.296 220.026,862.543C215.841,813.653 211.268,799.767 226.573,757.527C234.501,735.648 231.046,734.254 233.329,715.478C235.446,698.075 235.27,697.812 227.094,670.626C197.957,573.738 226.928,501.405 229.187,492.33C230.43,494.329 230.541,494.283 230.528,494.486C230.442,495.789 229.618,508.357 230.051,510.8C231.292,517.801 231.89,508.08 231.908,507.798C232.055,506.776 232.04,506.876 231.949,505.839C232.075,505.1 232.178,505.178 232.179,504.483C232.201,492.179 232.677,492.22 231.714,488.534C233.224,476.498 233.203,476.522 233.337,475.478C236.48,450.984 243.288,443.055 246.123,432.428C248.08,422.352 248.662,417.927 255.969,403.767C266.507,383.347 261.54,382.179 258.355,359.457C259.096,360.478 259.569,360.16 261.12,363.829C261.642,365.064 261.913,366.362 264.579,371.46C265.463,373.152 272.169,385.978 277.008,391.839C278.419,393.549 277.705,397.478 278.583,397.357C283.552,396.669 275.931,386.433 275.357,385.56C265.293,370.256 264.723,365.869 259.895,357.385C258.701,354.928 258.632,355.05 257.725,352.42C251.201,333.496 250.045,334.028 242.221,315.612C228.827,284.085 235.129,282.456 230.749,266.258C227.532,254.359 230.308,277.853 230.879,285.49C231.035,287.583 231.61,295.262 220.761,309.692C202.837,333.531 206.39,336.228 185.569,357.545C184.848,358.224 180.743,360.11 181.681,361.365C181.846,361.587 182.186,361.76 182.45,361.677C182.886,361.541 183.043,360.809 183.5,360.796C184.054,360.78 184.398,361.621 184.951,361.606C181.137,370.725 176.743,384.807 169.096,396.256C157.418,413.739 117.65,440.928 103.096,468.957C105.737,469.91 103.764,471.752 104.298,471.558C112.081,489.479 102.072,494.572 101.878,504.808C101.851,506.206 100.832,521.643 97.884,522.323C90.774,523.962 89.677,502.354 92.213,501.678C94.712,501.011 89.298,496.819 84.921,502.151C82.157,505.275 78.972,503.38 78.883,507.587C78.074,510.208 72.142,524.003 79.837,534.205C80.291,534.808 84.102,541.645 81.152,544.068C79.544,545.388 79.306,542.582 78.967,550.024C78.652,556.952 74.563,550.298 71.393,545.578C67.381,540.594 67.825,540.412 65.138,534.683C61.94,527.864 61.352,527.275 62.024,504.193C62.183,498.723 76.123,478.499 81.568,458.523C83.242,452.381 85.386,453.424 98.029,428.26C110.63,403.178 109.614,402.783 119.979,376.719C133.186,343.509 142.269,351.165 160.839,316.121C160.951,316.603 167.557,289.934 180.655,273.935C186.532,266.756 185.523,266.75 185.914,257.518C186.109,252.898 187.273,221.366 210.066,203.895C223.273,193.772 236.737,195.328 242.586,195.381C242.209,195.926 245.575,195.947 246.017,195.615C276.534,173.139 287.106,181.315 298.877,165.023C298.139,161.898 295.595,162.981 299.212,160.488C301.028,135.76 298.839,134.128 297.252,135.371C297.181,135.427 297.409,140.99 297.256,141.168C296.792,141.71 295.463,141.961 292.972,133.348C289.895,122.707 291.653,121.627 293.161,118.218C293.54,119.014 299.026,129.207 300.185,128.118C300.908,127.439 309.103,135.559 310.961,137.838C313.101,140.28 312.496,140.956 315.078,142.961C316.727,144.242 316.988,144.947 318.463,143.479C318.74,142.902 319.018,142.325 319.296,141.747C319.448,141.936 321.701,144.841 321.91,145.11C323.989,147.792 324.185,144.644 325.447,144.567C326.47,144.505 327.919,155.497 332.111,148.213C332.632,147.307 332.486,146.85 333.429,147.19C335.824,148.053 337.178,145.198 338.42,143.418C339.156,143.964 339.892,144.509 340.628,145.055C343.683,144.019 345.539,142.99 349.193,139.023C350.231,139.659 350.224,141.455 352.536,139.554C354.149,137.592 354.007,137.611 355.663,135.593C354.314,134.862 354.548,134.67 353.206,133.913C356.78,129.47 356.71,128.5 357.666,125.587C361.689,126.295 360.618,124.191 362.34,120.435C365.569,113.396 378.043,94.696 378.348,87.476C378.431,85.513 378.394,85.436 379.894,84.259Z" style="fill:rgb(231,230,230);"/>
            </g>
            <g transform="matrix(1,0,0,1,-1.353537,-4.329711)">
                <path d="M406.722,576.508C407.237,576.501 407.627,575.907 408.142,575.901C409.239,575.888 417.22,601.844 419.173,621.537C422.995,660.07 418.329,669.21 418.883,690.515C418.986,694.469 416.382,702.401 415.637,698.425C414.637,693.083 417.49,693.207 416.703,687.374C415.049,675.116 427.052,638.765 406.722,576.508Z" style="fill:rgb(173,172,175);"/>
            </g>
            <g transform="matrix(1,0,0,1,-1.353537,-4.329711)">
                <path d="M595.663,508.502C595.926,523.539 598.322,532.145 586.416,546.448C586.058,546.962 584.263,549.544 582.462,553.2C575.643,545.989 584.826,543.265 592.71,527.61C594.318,524.419 593.344,509.884 594.047,509.226C594.478,508.822 595.232,508.905 595.663,508.502Z" style="fill:rgb(236,236,245);"/>
            </g>
            <g transform="matrix(1,0,0,1,-1.353537,-4.329711)">
                <path d="M325.736,243.595C327.954,243.918 329.05,244.646 328.296,271.493C327.228,309.477 327.091,310.166 326.436,313.462C326.394,313.669 324.691,315.09 324.72,311.462C324.754,307.11 325.961,277.441 326.081,274.483C326.714,258.921 325.67,258.99 325.736,243.595Z" style="fill:rgb(186,186,188);"/>
            </g>
            <g transform="matrix(1,0,0,1.007158,-1.353537,-11.24098)">
                <path d="M253.358,923.462C257.881,926.361 253.269,929.083 256.352,943.529C258.702,954.543 256.742,954.53 254.552,965.521C251.446,963.096 252.82,962.421 252.494,958.501C250.76,937.682 254.76,931.85 253.748,929.584C253.476,928.974 252.392,929.024 252.12,928.413C252.532,926.763 252.945,925.113 253.358,923.462Z" style="fill:rgb(228,227,235);"/>
            </g>
            <g transform="matrix(1,0,0,1,-1.353537,-4.329711)">
                <path d="M240.575,497.476C241.872,492.914 243.021,484.353 252.412,468.436C258.678,457.815 274.245,446.745 278.5,446.493C288.319,445.913 267.91,448.524 254.313,469.396C245.107,483.526 244.764,496.449 240.575,497.476Z" style="fill:rgb(157,156,160);"/>
            </g>
            <g transform="matrix(1,0,0,1,-1.353537,-4.329711)">
                <path d="M400.963,465.123C386.102,447.089 369.843,445.624 380.503,446.554C386.807,447.103 398.746,459.488 400.094,460.886C408.962,470.085 416.502,489.88 417.405,495.508C421.644,521.924 416.577,486.824 400.963,465.123Z" style="fill:rgb(156,156,159);"/>
            </g>
            <g transform="matrix(1,0,0,1,-1.353537,-4.329711)">
                <path d="M289.024,260.82C297.348,299.126 321.861,315.502 314.487,315.541C312.917,315.549 281.036,267.165 289.024,260.82Z" style="fill:rgb(145,144,148);"/>
            </g>
            <g transform="matrix(1,0,0,1,-1.353537,-4.329711)">
                <path d="M359.558,292.535C346.093,312.598 343.364,319.528 343.708,313.511C343.996,308.458 361.226,294.54 368.798,264.62C368.876,264.312 370.019,259.793 371.326,261.564C371.4,261.664 370.977,272.994 359.558,292.535Z" style="fill:rgb(142,142,145);"/>
            </g>
            <g transform="matrix(1,0,0,1,-1.353537,-4.329711)">
                <path d="M292.683,236.418C289.413,214.547 275.839,224.2 259.709,211.357C248.24,202.226 264.96,212.525 265.357,212.77C273.788,217.963 294.518,216.871 294.44,236.486C294.438,236.974 294.336,236.921 293.192,242.458C293.084,242.985 288.807,263.698 289.997,248.381C290.478,242.188 291.036,242.374 292.683,236.418Z" style="fill:rgb(173,172,174);"/>
            </g>
            <g transform="matrix(1.556724,0,0,1.178316,-226.212577,-173.669237)">
                <path d="M403.122,929.446C403.519,929.683 404.11,929.257 404.507,929.493C404.541,929.513 406.598,944.874 406.387,953.498C406.365,954.377 406.134,963.818 405.407,964.446C405.04,964.764 404.374,964.525 404.007,964.842C403.685,963.716 400.764,953.502 400.96,950.521C401.655,939.936 403.099,940.117 403.122,929.446Z" style="fill:rgb(236,235,242);"/>
            </g>
            <g transform="matrix(1,0,0,1,-1.353537,-4.329711)">
                <path d="M327.921,534.655C328.789,531.044 328.527,530.798 328.841,530.829C330.503,530.996 329.835,531.742 330.533,534.489C331.93,539.981 332.43,539.727 335.367,544.576C337.553,548.186 330.276,549.144 326.524,548.376C319.325,546.902 324.888,543.896 327.921,534.655Z" style="fill:rgb(234,234,240);"/>
            </g>
            <g transform="matrix(1,0,0,1,-1.353537,-4.329711)">
                <path d="M287.511,283.532C290.371,286.381 281.536,294.693 279.955,295.887C258.276,312.268 227.174,283.169 241.536,291.394C245.466,293.644 245.172,293.976 247.768,295.013C274.967,305.875 281.928,290.773 287.511,283.532Z" style="fill:rgb(153,152,155);"/>
            </g>
            <g transform="matrix(1,0,0,1,-1.353537,-4.329711)">
                <path d="M417.315,293.319C391.87,311.655 370.945,292.094 370.322,285.524C369.507,276.932 374.362,297.281 391.499,298.506C411.914,299.966 417.609,287.535 417.315,293.319Z" style="fill:rgb(157,157,160);"/>
            </g>
            <g transform="matrix(1,0,0,1,-1.353537,-4.329711)">
                <path d="M326.758,214.545C326.952,215.158 326.16,215.819 326.355,216.433C326.763,217.722 327.811,217.109 327.88,218.49C328.601,232.996 319.931,231.222 319.918,230.464C319.688,217.442 319.654,217.247 320.503,216.523C321.399,215.759 323.923,217.176 322.983,214.195C321.4,209.181 326.544,214.33 326.758,214.545Z" style="fill:rgb(231,232,229);"/>
            </g>
            <g transform="matrix(1,0,0,1,-1.353537,-4.329711)">
                <path d="M244.544,243.194C242.319,254.594 207.34,259.341 205.554,259.804C197.11,261.991 188.223,268.592 194.653,262.615C205.171,252.837 219.378,261.806 244.544,243.194Z" style="fill:rgb(152,152,155);"/>
            </g>
            <g transform="matrix(1,0,0,1.045814,-1.353537,-46.410155)">
                <path d="M403.504,918.499C412.129,943.185 407.679,962.767 406.826,966.523C403.701,967.555 404.303,965.851 404.007,964.842C404.374,964.525 405.04,964.764 405.407,964.446C406.134,963.818 406.365,954.377 406.387,953.498C406.598,944.874 404.541,929.513 404.507,929.493C404.11,929.257 403.519,929.683 403.122,929.446C402.934,925.867 403.465,925.832 402.218,922.5L402.167,921.5L402.106,920.5C402.572,919.833 403.038,919.166 403.504,918.499Z" style="fill:rgb(108,106,117);"/>
            </g>
            <g transform="matrix(1,0,0,1,-1.353537,-4.329711)">
                <path d="M239.172,929.756C243.738,949.57 236.032,985.649 232.715,980.397C232.695,980.365 238.45,963.203 238.463,947.499C238.472,935.618 236.354,931.463 239.172,929.756Z" style="fill:rgb(146,145,150);"/>
            </g>
            <g transform="matrix(1,0,0,1,-1.353537,-4.329711)">
                <path d="M420.383,930.531C418.255,977.177 428.231,977.57 425.314,980.31C421.465,983.925 415.247,949.25 418.763,930.633C418.877,930.034 419.098,930.377 419.5,930.068L420.383,930.531Z" style="fill:rgb(157,156,161);"/>
            </g>
            <g transform="matrix(1,0,0,1,-1.353537,-4.329711)">
                <path d="M421.512,248.441C446.09,261.037 449.991,251.796 465.334,263.612C474.13,270.386 461.838,263.469 461.575,263.321C447.002,255.121 434.249,260.179 420.18,249.634C420.095,249.57 420.18,249.634 418.983,249.031C420.189,248.272 420.176,248.463 421.512,248.441Z" style="fill:rgb(146,145,149);"/>
            </g>
            <g transform="matrix(1,0,0,1,-1.353537,-4.329711)">
                <path d="M366.22,235.435C366.003,235.725 365.878,235.495 365.687,235.749C365.219,236.374 365.096,236.119 364.426,236.539C364.946,215.088 377.52,222.473 396.597,210.681C396.737,210.595 403.519,207.97 398.144,212.042C383.958,222.79 367.873,216.239 366.22,235.435Z" style="fill:rgb(156,156,158);"/>
            </g>
            <g transform="matrix(1,0,0,1,-1.353537,-4.329711)">
                <path d="M376.179,754.773C376.743,754.363 376.864,754.896 377.466,754.458C377.522,754.418 377.585,754.372 377.739,753.64C384.291,722.512 380.973,722.024 383.03,714.033C386.45,700.749 384.275,741.705 378.434,758.499C377.93,757.997 378.267,757.818 377.804,757.358C376.691,756.252 377.009,756.095 376.179,754.773Z" style="fill:rgb(163,163,168);"/>
            </g>
            <g transform="matrix(1,0,0,1,-1.353537,-4.329711)">
                <path d="M259.895,357.385C264.723,365.869 265.293,370.256 275.357,385.56C275.931,386.433 283.552,396.669 278.583,397.357C277.705,397.478 278.419,393.549 277.008,391.839C272.169,385.978 265.463,373.152 264.579,371.46C261.913,366.362 261.642,365.064 261.12,363.829C259.569,360.16 259.096,360.478 258.355,359.457C258.868,358.766 259.382,358.076 259.895,357.385Z" style="fill:rgb(159,159,161);"/>
            </g>
            <g transform="matrix(1,0,0,1,-1.353537,-4.329711)">
                <path d="M511.04,390.312C507.722,390.889 507.337,387.289 495.16,376.855C486.753,369.652 485.51,370.207 482.592,359.489C482.087,357.631 484.04,357.905 485.255,360.631C487.03,364.614 485.668,366.888 495.577,374.411C505.204,381.72 510.043,388.844 511.04,390.312Z" style="fill:rgb(150,150,153);"/>
            </g>
            <g transform="matrix(1,0,0,1,-1.353537,-4.329711)">
                <path d="M466.09,326.216C464.415,326.223 464.68,324.897 464.681,322.48C464.684,302.158 462.156,302.209 462.876,300.607C464.298,297.44 465.044,300.341 469.802,304.136C473.628,307.187 482.29,311.106 478.476,311.337C476.326,311.468 476.474,310.83 466.414,303.688C463.351,301.513 468.771,309.021 466.09,326.216Z" style="fill:rgb(158,157,161);"/>
            </g>
            <g transform="matrix(1,0,0,1.013957,-1.353537,-17.848027)">
                <path d="M252.12,928.413C252.392,929.024 253.476,928.974 253.748,929.584C254.76,931.85 250.76,937.682 252.494,958.501C252.82,962.421 251.446,963.096 254.552,965.521C253.915,967.49 253.771,967.353 252.097,968.536C247.198,953.915 251.511,931.565 252.12,928.413Z" style="fill:rgb(106,106,115);"/>
            </g>
            <g transform="matrix(1,0,0,1,-1.353537,-4.329711)">
                <path d="M274.476,713.445C274.823,713.463 274.908,712.734 275.255,712.752C276.197,712.801 276.095,733.144 279.689,748.444C279.799,748.913 280.928,753.715 280.772,754.371C280.61,755.055 279.205,754.895 279.043,755.579C277.721,749.202 275.089,739.496 273.753,715.534C273.994,714.838 274.235,714.141 274.476,713.445Z" style="fill:rgb(166,165,170);"/>
            </g>
            <g transform="matrix(1,0,0,1,-1.353537,-4.329711)">
                <path d="M396.224,361.382C396.31,361.617 398.063,361.806 397.18,364.016C393.188,374.007 385.78,385.039 384.025,388.308C378.672,398.283 377.976,398.19 377.099,397.844C374.992,397.012 386.356,383.367 396.224,361.382Z" style="fill:rgb(159,158,162);"/>
            </g>
            <g transform="matrix(1,0,0,1,-1.353537,-4.329711)">
                <path d="M343.427,351.564C355.741,374.331 361.801,371.133 369.999,377.373C369.5,377.742 369.002,378.111 368.504,378.48C363.938,376.223 351.337,371.918 342.696,354.419C342.174,353.362 342.378,353.387 342.04,352.289L343.427,351.564Z" style="fill:rgb(152,151,154);"/>
            </g>
            <g transform="matrix(1,0,0,1,-1.353537,-4.329711)">
                <path d="M165.368,375.337C153.329,385.444 147.491,391.208 150.986,385.686C155.105,379.177 168.817,373.228 172.19,363.389C172.315,363.025 174.001,358.107 175.212,359.637C175.451,359.939 173.479,366.696 172.318,368.399C171.876,369.048 170.372,371.255 165.368,375.337Z" style="fill:rgb(155,155,158);"/>
            </g>
            <g transform="matrix(1,0,0,1,-1.353537,-4.329711)">
                <path d="M289.719,378.092C289.885,377.675 289.612,377.163 289.779,376.745C289.791,376.714 297.636,372.322 299.238,371.186C311.074,362.792 313.518,352.744 314.719,352.879C314.841,352.893 316.187,353.044 316.133,353.468C315.941,354.981 306.095,374.111 289.719,378.092Z" style="fill:rgb(146,146,149);"/>
            </g>
            <g transform="matrix(1,0,0,1,-1.353537,-4.329711)">
                <path d="M570.526,497.486C567.75,493.83 558.818,484.443 561.371,474.406C562.914,468.344 563.171,478.178 563.181,478.539C563.233,480.546 563.387,486.405 575.873,500.189C573.725,501.277 573.753,501.431 573.558,501.362C573.187,501.229 573.336,501.078 570.526,497.486Z" style="fill:rgb(103,102,112);"/>
            </g>
            <g transform="matrix(1,0,0,1,-1.353537,-4.329711)">
                <path d="M239.365,736.501C251.045,711.793 248.755,710.952 249.963,708.92C255.224,700.068 246.592,729.952 240.346,738.266C240.019,737.678 239.692,737.089 239.365,736.501Z" style="fill:rgb(157,157,160);"/>
            </g>
            <g transform="matrix(1,0,0,1,-1.353537,-4.329711)">
                <path d="M408.579,709.351C410.964,713.18 409.521,717.012 418.815,735.523L417.33,735.991C413.55,729.915 410.548,725.508 407.515,710.503C407.869,710.119 408.224,709.735 408.579,709.351Z" style="fill:rgb(163,163,167);"/>
            </g>
            <g transform="matrix(1,0,0,1,-1.353537,-4.329711)">
                <path d="M288.695,421.212C286.163,417.3 292.916,420.88 294.31,421.795C309.112,431.519 311.652,442.85 306.886,437.029C302.141,431.233 300.041,426.708 288.695,421.212Z" style="fill:rgb(149,148,152);"/>
            </g>
            <g transform="matrix(1,0,0,1,-1.353537,-4.329711)">
                <path d="M387.466,420.289C388.7,420.585 397.801,422.776 402.348,425.767C403.055,426.232 410.454,431.099 410.523,432.477C410.55,433.02 409.373,433.119 409.4,433.662C402.151,427.979 402.35,427.552 387.014,421.72L387.466,420.289Z" style="fill:rgb(142,142,145);"/>
            </g>
            <g transform="matrix(1,0,0,1,-1.353537,-4.329711)">
                <path d="M370.426,418.988C368.833,424.065 361.64,422.759 353.465,434.47C344.25,447.67 352.187,424.685 370.426,418.988Z" style="fill:rgb(138,137,139);"/>
            </g>
            <g transform="matrix(1,0,0,1,-1.353537,-4.329711)">
                <path d="M192.183,301.21C194.063,300.01 194.465,298.489 195.638,300.452C195.662,300.493 195.522,302.736 195.399,303.486C193.748,313.526 193.943,313.497 193.897,323.638C193.868,329.858 189.075,321.238 193.323,303.531C192.943,302.758 192.563,301.984 192.183,301.21Z" style="fill:rgb(158,159,163);"/>
            </g>
            <g transform="matrix(1,0,0,1,-1.353537,-4.329711)">
                <path d="M270.542,420.213L270.885,421.72C262.631,425.551 259.399,424.835 249.649,432.748C249.249,431.936 248.875,432.328 248.44,431.445C248.418,431.4 248.362,431.286 248.737,430.896C255.042,424.345 268.665,420.714 270.542,420.213Z" style="fill:rgb(143,143,146);"/>
            </g>
            <g transform="matrix(1,0,0,1,-1.353537,-4.329711)">
                <path d="M333.196,250.457C333.005,251.192 332.813,251.926 332.622,252.66C330.19,254.369 331.405,251.542 331.238,241.459C331.037,229.256 331.404,228.411 332.269,228.924C333.302,229.537 333.348,234.428 333.196,250.457Z" style="fill:rgb(198,198,198);"/>
            </g>
            <g transform="matrix(1,0,0,1,-1.353537,-4.329711)">
                <path d="M427.197,488.6C429.427,491.023 428.877,491.253 429.807,494.38C429.175,495.224 428.191,494.813 428.365,497.479C428.407,498.122 428.699,502.574 428.665,505.53C428.439,525.502 424.721,497.472 427.197,488.6Z" style="fill:rgb(183,182,188);"/>
            </g>
            <g transform="matrix(1,0,0,1,-1.353537,-4.329711)">
                <path d="M231.714,488.534C232.677,492.22 232.201,492.179 232.179,504.483C232.178,505.178 232.075,505.1 231.949,505.839C231.935,506.492 231.921,507.145 231.908,507.798C231.89,508.08 231.292,517.801 230.051,510.8C229.618,508.357 230.442,495.789 230.528,494.486C230.541,494.283 230.43,494.329 229.187,492.33C230.092,490.185 230.067,490.229 231.714,488.534Z" style="fill:rgb(177,177,182);"/>
            </g>
            <g transform="matrix(1,0,0,1,-1.353537,-4.329711)">
                <path d="M337.5,201.5C335.055,206.819 333.427,219.104 332.462,214.528C331.304,209.037 338.977,190.548 341.189,193.702C341.585,194.267 341.33,194.36 337.5,201.5Z" style="fill:rgb(187,187,188);"/>
            </g>
            <g transform="matrix(1,0,0,1,-1.353537,-4.329711)">
                <path d="M306.254,442.351C307.796,442.291 309.529,442.224 320.105,455.778C320.219,455.924 324.738,464.808 319.224,457.92C318.261,456.718 315.104,452.774 306.435,443.525L306.254,442.351Z" style="fill:rgb(154,154,156);"/>
            </g>
            <g transform="matrix(1,0,0,1,-1.353537,-4.329711)">
                <path d="M350.545,442.755C350.773,443.336 351.176,442.882 351.418,443.498C351.443,443.562 351.516,443.748 351.157,444.313C348.971,447.753 347.921,446.851 339.186,458.187C334.453,464.329 337.173,453.631 350.545,442.755Z" style="fill:rgb(161,160,163);"/>
            </g>
            <g transform="matrix(1,0,0,1,-1.314472,-4.72034)">
                <path d="M307.731,148.379C307.699,148.568 306.253,159.022 299.757,165.729C298.504,163.363 298.663,161.003 299.042,161.527C299.112,161.623 299.58,162.269 300.399,162.127C300.773,162.062 302.997,156.787 303.198,156.311C305.908,149.881 305.545,146.937 307.731,148.379Z" style="fill:rgb(154,154,158);"/>
            </g>
            <g transform="matrix(1,0,0,1,-1.353537,-4.329711)">
                <path d="M359.722,163.582C359.292,164.231 358.862,164.881 358.431,165.531C357.504,164.357 350.595,155.615 350.623,148.535C350.648,142.291 354.92,156.246 356.864,160.161C357.95,162.349 358.361,161.953 359.722,163.582Z" style="fill:rgb(150,151,155);"/>
            </g>
            <g transform="matrix(1,0,0,1,-1.353537,-4.329711)">
                <path d="M325.343,209.458C324.432,209.071 324.737,210.565 323.863,210.193C323.737,210.14 323.776,210.157 323.291,208.586C319.103,195.014 317.315,195.714 317.357,194.492C317.494,190.472 324.679,201.253 325.343,209.458Z" style="fill:rgb(172,172,174);"/>
            </g>
            <g transform="matrix(1,0,0,1,-1.353537,-4.329711)">
                <path d="M192.183,301.21C192.563,301.984 192.943,302.758 193.323,303.531C190.436,303.937 187.786,308.631 181.394,311.104C170.585,315.286 183.16,308.418 192.183,301.21Z" style="fill:rgb(152,152,155);"/>
            </g>
            <g transform="matrix(1,0,0,1,-1.353537,-4.329711)">
                <path d="M500.611,347.581L501.5,347.501C501.563,347.699 502.023,347.513 502.087,347.711C504.136,354.124 503.923,354.129 504.207,354.634C504.47,355.102 506.578,358.85 507.41,360.53C510.061,365.883 499.688,357.364 500.611,347.581Z" style="fill:rgb(156,155,158);"/>
            </g>
            <g transform="matrix(1,0,0,1,-1.353537,-4.329711)">
                <path d="M99.489,466.493C91.912,476.989 99.252,462.731 99.401,462.443C102.119,457.163 108.071,452.919 105.24,457.374C99.919,465.746 99.917,465.7 99.489,466.493Z" style="fill:rgb(160,161,162);"/>
            </g>
            <g transform="matrix(1,0,0,1,-1.353537,-4.329711)">
                <path d="M581.51,528.208C581.131,528.015 580.73,528.936 580.351,528.743C579.068,528.089 580.028,527.719 580.549,524.503C581.336,519.642 579.288,514.268 579.741,513.627C581.766,510.753 582.774,520.802 582.841,521.473C583.188,524.94 581.958,524.718 581.51,528.208Z" style="fill:rgb(231,230,243);"/>
            </g>
            <g transform="matrix(1,0,0,1,-1.353537,-4.329711)">
                <path d="M560.673,465.407C560.804,465.673 563.545,471.251 560.721,469.112C559.928,468.511 560.142,468.388 554.047,458.615C550.823,453.444 555.731,457.958 555.822,458.075C558.531,461.592 558.303,461.682 560.673,465.407Z" style="fill:rgb(171,171,174);"/>
            </g>
            <g transform="matrix(1,0,0,1,-1.353537,-4.329711)">
                <path d="M156.701,347.684C157.188,347.979 157.675,348.274 158.162,348.569C157.966,349.634 156.282,358.747 153.24,361.18C153.067,361.318 150.748,361.982 152.501,358.5C155.132,353.274 154.574,353.112 156.701,347.684Z" style="fill:rgb(162,162,163);"/>
            </g>
            <g transform="matrix(1,0,0,1,-1.353537,-4.329711)">
                <path d="M366.22,235.435C366.799,237.748 366.829,238.075 366.851,238.309C366.933,239.213 367.006,240.005 369.012,249.447C368.542,249.757 368.072,250.067 367.602,250.377C365.095,243.965 365.499,239.861 364.426,236.539C365.096,236.119 365.219,236.374 365.687,235.749C365.878,235.495 366.003,235.725 366.22,235.435Z" style="fill:rgb(206,206,208);"/>
            </g>
            <g transform="matrix(1,0,0,1,-1.353537,-4.329711)">
                <path d="M76.896,513.507C81.396,511.442 76.485,516.124 78.127,525.553C77.139,526.726 76.919,526.151 76.71,526.249C74.584,520.971 76.308,517.513 76.896,513.507Z" style="fill:rgb(219,219,231);"/>
            </g>
            <g transform="matrix(1,0,0,1,-1.353537,-4.329711)">
                <path d="M437.13,957.536C437.934,958.018 438.738,958.5 439.542,958.982C438.482,963.243 438.629,963.191 437.595,967.539C437.283,968.852 436.88,968.344 435.559,968.394C435.462,967.751 435.365,967.109 435.268,966.466C435.889,963.49 436.509,960.513 437.13,957.536Z" style="fill:rgb(96,95,105);"/>
            </g>
            <g transform="matrix(1,0,0,1,-1.353537,-4.329711)">
                <path d="M586.416,546.448C588.901,547.956 588.239,548.411 588.218,548.473C585.906,555.48 583.298,553.431 582.462,553.2C584.263,549.544 586.058,546.962 586.416,546.448Z" style="fill:rgb(154,154,168);"/>
            </g>
            <g transform="matrix(1,0,0,1,-1.353537,-4.329711)">
                <path d="M83.017,499.759C84.928,503.039 82.74,503.772 81.096,507.176C80.901,507.58 81.289,508.403 80.851,508.5C80.681,508.538 80.705,508.432 78.883,507.587C78.972,503.38 80.252,502.882 83.017,499.759Z" style="fill:rgb(120,119,135);"/>
            </g>
            <g transform="matrix(1.213032,0,0,1.069019,-36.102588,-26.348941)">
                <path d="M163.535,313.524L164.243,314.5C164.217,315.321 163.892,325.743 161.615,324.42C161.153,324.151 162.29,318.13 162.143,317.5C162.031,317.017 161.351,316.803 161.239,316.321C162.232,314.776 162.074,314.761 163.535,313.524Z" style="fill:rgb(185,185,190);"/>
            </g>
            <g transform="matrix(1,0,0,1,-1.353537,-4.329711)">
                <path d="M159.555,370.4C159.244,370.169 155.972,367.744 155.791,367.361C153.728,362.998 157.474,366.968 161.748,369.194C170.515,373.758 159.742,370.471 159.555,370.4Z" style="fill:rgb(174,174,175);"/>
            </g>
            <g transform="matrix(1,0,0,1,-1.353537,-4.329711)">
                <path d="M241.873,687.534C244.342,687.613 244.756,688.289 246.147,686.23C247.939,683.577 248.631,688.592 246.6,688.986C246.253,689.053 245.9,688.549 245.578,688.697C244.999,688.964 244.755,689.685 244.247,690.07C243.22,690.849 240.248,690.463 240.34,689.572C240.353,689.439 240.721,689.96 241.719,688.632C242.107,688.117 241.508,688.019 241.873,687.534Z" style="fill:rgb(229,229,228);"/>
            </g>
            <g transform="matrix(1,0,0,1,-1.353537,-4.329711)">
                <path d="M500.347,369.312C495.27,372.065 494.795,371.09 494.828,370.637C494.868,370.077 495.228,370.396 500.495,366.492C506.015,362.4 501.554,368.308 501.428,368.425C501.347,368.502 501.428,368.425 500.347,369.312Z" style="fill:rgb(180,179,182);"/>
            </g>
            <g transform="matrix(1,0,0,1,-1.353537,-4.329711)">
                <path d="M413.415,197.757C413.989,197.518 414.562,197.278 415.136,197.039C421.573,200.954 422.472,199.971 422.325,200.595C421.444,204.329 413.994,198.231 413.415,197.757Z" style="fill:rgb(167,167,174);"/>
            </g>
            <g transform="matrix(1.090988,0,0,1.074668,-23.149252,-19.854962)">
                <path d="M242.464,196.541C243.14,197.188 243.815,197.836 244.491,198.484C244.049,198.815 237.662,203.609 237.903,200.544C237.984,199.509 238.305,199.794 239.321,199.353C242.439,198.001 242.087,197.086 242.464,196.541Z" style="fill:rgb(145,145,154);"/>
            </g>
            <g transform="matrix(1,0,0,1,-1.353537,-4.329711)">
                <path d="M371.255,431.983C371.264,432.2 371.888,431.881 371.897,432.098C371.907,432.341 370.572,435.337 369.448,435.34C368.803,435.342 364.772,431.98 371.255,431.983Z" style="fill:rgb(231,231,229);"/>
            </g>
            <g transform="matrix(1.096098,0,0,1.177527,-19.065535,-68.151644)">
                <path d="M185.569,357.545C185.952,360.607 185.404,360.516 184.951,361.606C184.398,361.621 184.054,360.78 183.5,360.796C183.043,360.809 182.886,361.541 182.45,361.677C182.186,361.76 181.846,361.587 181.681,361.365C180.743,360.11 184.848,358.224 185.569,357.545Z" style="fill:rgb(174,172,181);"/>
            </g>
            <g transform="matrix(1.068837,0,0,1.170474,-33.874883,-65.693552)">
                <path d="M472.554,357.468C472.856,357.663 478.036,361.018 475.253,361.066C474.162,361.085 474.278,361.313 473.244,361.574C472.508,359.499 472.276,359.587 472.554,357.468Z" style="fill:rgb(175,174,184);"/>
            </g>
            <g transform="matrix(1,0,0,1,-1.353537,-4.329711)">
                <path d="M369.012,249.447C369.099,250.467 369.353,251.468 369.44,252.488C369.652,254.985 365.09,254.768 366.692,252.82C367.577,251.743 367.426,251.745 367.602,250.377C368.072,250.067 368.542,249.757 369.012,249.447Z" style="fill:rgb(227,227,226);"/>
            </g>
            <g transform="matrix(1,0,0,1,-1.353537,-4.329711)">
                <path d="M417.33,735.991L418.815,735.523C419.667,737.023 419.673,736.921 420.505,738.5C428.876,754.38 417.483,736.276 417.33,735.991Z" style="fill:rgb(220,220,220);"/>
            </g>
            <g transform="matrix(1,0,0,1,-1.353537,-4.329711)">
                <path d="M421.512,248.441C420.176,248.463 420.189,248.272 418.983,249.031C418.816,248.918 409.524,240.63 418.492,246.547C418.73,246.704 418.716,246.688 421.512,248.441Z" style="fill:rgb(217,217,219);"/>
            </g>
            <g transform="matrix(1,0,0,1,-1.353537,-4.329711)">
                <path d="M270.542,420.213C272.768,419.519 272.821,419.253 274.913,420.353C272.919,421.148 273.002,421.214 270.885,421.72L270.542,420.213Z" style="fill:rgb(220,220,220);"/>
            </g>
            <g transform="matrix(1,0,0,1,-1.353537,-4.329711)">
                <path d="M71.282,550.537C71.728,550.771 72.179,549.858 73.283,551.583C74.582,553.615 74.69,553.53 74.733,553.733C74.811,554.101 73.423,555.335 71.282,550.537Z" style="fill:rgb(181,180,196);"/>
            </g>
            <g transform="matrix(1,0,0,1,-1.353537,-4.329711)">
                <path d="M494.646,317.475L495.565,318.5C496.585,320.376 496.86,320.311 496.504,322.368L495.687,322.365C495.171,319.914 494.915,320.025 494.646,317.475Z" style="fill:rgb(209,208,213);"/>
            </g>
            <g transform="matrix(1,0,0,1,-1.353537,-4.329711)">
                <path d="M408.579,709.351C408.224,709.735 407.869,710.119 407.515,710.503C405.557,706.32 407.877,706.555 408.036,706.808C408.471,707.493 408.296,707.52 408.579,709.351Z" style="fill:rgb(221,221,223);"/>
            </g>
            <g transform="matrix(1,0,0,1,-1.353537,-4.329711)">
                <path d="M246.504,242.497C246.955,238.669 248.457,241.323 248.465,241.499C248.534,242.928 247.863,242.411 246.504,242.497Z" style="fill:rgb(233,233,233);"/>
            </g>
            <g transform="matrix(1,0,0,1,-1.353537,-4.329711)">
                <path d="M78.127,525.553C78.145,525.777 78.353,528.357 78.353,528.357C77.038,529.568 77.778,527.619 76.71,526.249C76.919,526.151 77.139,526.726 78.127,525.553Z" style="fill:rgb(157,156,173);"/>
            </g>
            <g transform="matrix(1,0,0,1,-1.353537,-4.329711)">
                <path d="M369.999,377.373C374.034,380.948 368.675,378.54 368.504,378.48C369.002,378.111 369.5,377.742 369.999,377.373Z" style="fill:rgb(222,222,220);"/>
            </g>
            <g transform="matrix(1,0,0,1,-1.353537,-4.329711)">
                <path d="M239.365,736.501C239.692,737.089 240.019,737.678 240.346,738.266C239.872,738.326 239.935,739.334 239.461,739.394C239.231,739.423 238.109,739.448 239.365,736.501Z" style="fill:rgb(221,222,223);"/>
            </g>
            <g transform="matrix(1,0,0,1,-1.353537,-4.329711)">
                <path d="M343.427,351.564L342.04,352.289C342.025,352.167 341.854,350.763 341.854,350.763C342.544,350.024 342.541,350.707 343.427,351.564Z" style="fill:rgb(211,211,209);"/>
            </g>
            <g transform="matrix(1,0,0,1,-1.353537,-4.329711)">
                <path d="M592.33,506.446C592.693,505.081 592.306,504.058 593.504,504.764C594.68,505.457 593.121,505.314 592.33,506.446Z" style="fill:rgb(178,178,187);"/>
            </g>
            <g transform="matrix(1,0,0,1,-1.353537,-4.329711)">
                <path d="M325.775,242.636C325.75,242.281 325.674,241.931 325.649,241.576C325.641,241.456 325.404,238.075 326.598,240.405C326.684,240.575 326.538,240.566 325.775,242.636Z" style="fill:rgb(231,231,229);"/>
            </g>
            <g transform="matrix(1,0,0,1,-1.353537,-4.329711)">
                <path d="M393.484,557.749C394.852,557.813 395.272,557.729 395.121,559.131C394.576,558.67 394.03,558.21 393.484,557.749Z" style="fill:rgb(218,218,218);"/>
            </g>
            <g transform="matrix(1,0,0,1,-1.353537,-4.329711)">
                <path d="M495.687,322.365L496.504,322.368C496.485,322.777 497.3,322.91 497.281,323.319C497.274,323.473 496.292,323.785 495.914,323.145C495.776,322.912 495.825,322.598 495.687,322.365Z" style="fill:rgb(221,221,224);"/>
            </g>
            <g transform="matrix(1,0,0,1,-1.353537,-4.329711)">
                <path d="M156.701,347.684C157.248,347.717 156.95,347.114 157.5,347.147C157.566,347.151 157.771,347.163 158.051,347.765C158.165,348.01 158.048,348.324 158.162,348.569C157.675,348.274 157.188,347.979 156.701,347.684Z" style="fill:rgb(209,209,211);"/>
            </g>
            <g transform="matrix(1,0,0,1,-1.353537,-4.329711)">
                <path d="M274.476,713.445C274.235,714.141 273.994,714.838 273.753,715.534C273.994,714.838 274.235,714.141 274.476,713.445Z" style="fill:rgb(218,218,220);"/>
            </g>
            <g transform="matrix(1,0,0,1,-1.353537,-4.329711)">
                <path d="M333.196,250.457C333.005,251.192 332.813,251.926 332.622,252.66C332.813,251.926 333.005,251.192 333.196,250.457Z" style="fill:rgb(224,224,223);"/>
            </g>
            <g transform="matrix(1,0,0,1,-1.353537,-4.329711)">
                <path d="M231.949,505.839C232.04,506.876 232.055,506.776 231.908,507.798C231.921,507.145 231.935,506.492 231.949,505.839Z" style="fill:rgb(227,227,226);"/>
            </g>
        </g>
        <g transform="matrix(1.000607,0,0,1.000607,-1.717231,-2.891773)">
            <g transform="matrix(-1,0,0,1,658.512814,-1.999734)">
                <path d="M284.284,77.635C269.927,80.333 293.58,113.839 296.951,122.358C298.46,126.174 298.942,125.819 299.757,126.833C299.728,126.977 299.398,128.633 299.398,128.633C299.398,128.633 301.515,128.552 301.699,128.545C304.192,132.248 304.649,132.002 304.976,131.827C305.435,131.58 305.118,130.63 305.577,130.384L306.128,130.698L306.418,131.564C306.336,131.732 305.121,131.81 305.471,133.494C305.863,135.384 306.06,135.347 305.997,135.5C305.509,136.679 304.561,135.691 304.069,136.88C300.051,131.774 300.688,129.256 299.594,130.63C298.975,131.406 299.016,132.627 298.293,133.306C297.134,134.395 296.663,129.824 296.629,129.493C296.309,126.384 293.235,119.93 292.856,119.133C291.347,122.543 289.895,122.707 292.972,133.348C295.463,141.961 296.792,141.71 297.256,141.168C297.409,140.99 297.181,135.427 297.252,135.371C298.839,134.128 301.028,135.76 299.212,160.488C298.754,163.188 298.598,163.243 299.852,165.608C288.08,181.901 275.008,176.008 244.491,198.484C243.815,197.836 243.14,197.188 242.464,196.541C236.615,196.488 223.396,194.931 210.188,205.055C187.396,222.525 186.109,252.898 185.914,257.518C185.523,266.75 187.814,267.672 181.937,274.85C168.839,290.849 168.1,300.869 163.535,313.524C162.074,314.761 162.232,314.776 161.239,316.321C145.873,351.052 133.186,343.509 119.979,376.719C109.614,402.783 110.63,403.178 98.029,428.26C85.386,453.424 83.242,452.381 81.568,458.523C76.123,478.499 62.769,499.26 62.756,504.486C62.7,527.578 61.94,527.864 65.138,534.683C67.825,540.412 67.381,540.594 71.393,545.578C74.563,550.298 77.919,556.414 78.235,549.487C78.574,542.045 65.448,533.771 64.867,523.47C64.799,522.274 64.044,508.904 64.293,508.5C64.402,508.322 64.422,508.357 66.046,506.572C66.624,515.068 66.533,514.979 67.146,523.551C67.583,529.664 79.544,545.388 81.152,544.068C84.102,541.645 79.461,535.491 79.007,534.889C71.312,524.686 74.331,517.561 74.199,515.537C74.089,513.851 73.3,514.168 72.995,512.497C72.949,512.243 72.975,511.696 76.197,512.14C78.035,510.165 78.074,510.208 78.883,507.587C80.705,508.432 80.681,508.538 80.851,508.5C81.289,508.403 80.901,507.58 81.096,507.176C82.74,503.772 84.342,503.722 82.431,500.442C86.807,495.11 91.906,489.492 94.259,483.406C95.591,479.961 96.089,468.502 97.33,474.583C99.419,484.815 90.21,494.507 87.674,497.596C86.457,499.078 87.597,499.32 89.502,499.258C93.772,499.118 93.411,498.011 97.545,496.758C101.047,495.697 97.105,499.936 94.605,500.603C92.069,501.28 90.432,523.327 97.542,521.688C100.49,521.009 100.777,505.913 100.804,504.515C100.998,494.279 110.42,489.284 102.638,471.363C102.253,470.74 101.869,470.117 101.485,469.494C116.039,441.465 157.418,413.739 169.096,396.256C176.743,384.807 181.137,370.725 184.951,361.606C185.404,360.516 185.952,360.607 185.569,357.545C206.39,336.228 202.837,333.531 220.761,309.692C231.61,295.262 231.035,287.583 230.879,285.49C230.308,277.853 227.532,254.359 230.749,266.258C235.129,282.456 228.827,284.085 242.221,315.612C250.045,334.028 251.201,333.496 257.725,352.42C258.632,355.05 258.701,354.928 259.895,357.385C259.382,358.076 258.868,358.766 258.355,359.457C261.54,382.179 266.507,383.347 255.969,403.767C248.662,417.927 248.08,422.352 246.123,432.428C243.288,443.055 236.48,450.984 233.337,475.478C233.203,476.522 233.224,476.498 231.714,488.534C230.067,490.229 230.092,490.185 229.187,492.33C226.928,501.405 197.957,573.738 227.094,670.626C235.27,697.812 235.446,698.075 233.329,715.478C231.046,734.254 234.501,735.648 226.573,757.527C211.268,799.767 215.841,813.653 220.026,862.543C224.713,917.296 232.098,930.88 223.175,950.421C219.944,957.497 222.612,961.747 222.757,965.426C222.792,966.309 229.477,971 222.05,969.114C216.359,967.67 221.947,955.604 216.188,961.195C202.471,974.513 202.376,974.01 200.644,975.419C196.951,973.091 193.897,975.52 193.385,978.357C191.34,978.178 189.934,978.884 188.81,979.364C184.488,981.209 186.252,986.705 188.5,986.5C192.995,986.091 191.282,991.268 199.595,993.064C213.171,995.998 215.319,995.423 216.645,995.069C218.461,996.231 234.18,1008.887 251.56,1001.669C260.941,997.773 254.358,977.966 252.097,968.536C253.771,967.353 253.915,967.49 254.552,965.521C256.742,954.53 258.702,954.543 256.352,943.529C253.269,929.083 257.881,926.361 253.358,923.462C264.732,890.011 262.551,876.144 278.142,838.311C288.57,813.005 283.301,794.394 279.74,757.495C281.259,757.217 281.55,757.121 285.064,748.317C298.678,714.211 295.343,701.614 299.889,672.553C304.375,643.868 327.819,589.88 320.364,550.551C319.917,548.196 318.948,549.583 317.101,551.072C295.541,568.451 262.527,559.999 262.26,558.622C261.579,555.107 272.26,561.613 289.448,559.114C319.036,554.811 324.005,540.418 327.164,528.418C328.518,523.275 327.77,482.894 327.68,482.501C325.116,471.237 324.157,471.427 324.32,470.439C325.271,464.673 328.761,479.825 329.455,479.447C331.708,478.222 327.214,474.803 334.391,468.599L334.643,469.483C333.379,472.304 333.095,473.243 332.992,473.582C330.062,483.271 330.35,483.329 330.349,493.5C330.346,516.513 325.943,547.94 357.469,556.609C379.101,562.558 389.981,558.468 393.484,557.749C394.03,558.21 394.576,558.67 395.121,559.131C361.946,569.119 341.791,551.282 340.15,549.979C335.45,546.249 337.042,575.308 337.163,577.521C339.346,617.365 356.335,642.386 360.729,690.476C363.76,723.66 364.414,723.637 376.179,754.773C377.009,756.095 376.691,756.252 377.804,757.358C378.267,757.818 377.93,757.997 378.434,758.499C376.356,794.92 367.676,807.911 381.723,841.399C393.369,869.163 397.33,901.802 403.504,918.499C403.038,919.166 402.572,919.833 402.106,920.5L402.167,921.5L402.218,922.5C403.465,925.832 402.934,925.867 403.122,929.446C403.099,940.117 401.655,939.936 400.96,950.521C400.764,953.502 403.685,963.716 404.007,964.842C404.303,965.851 403.701,967.555 406.826,966.523C400.898,986.352 401.948,993.218 402.303,995.54C404.13,1007.494 428.623,1007.107 441.668,995.397C442.458,995.884 442.729,995.257 443.468,995.713C443.539,995.756 443.665,995.834 444.5,995.654C459.006,992.524 460.711,995.121 467.614,986.606C467.836,986.333 467.84,986.45 470.5,986.498C471.645,986.518 472.613,984.396 472.134,982.591C470.18,975.228 464.776,982.194 457.55,975.427C459.303,974.135 459.356,973.881 461.481,974.555C461.498,974.948 459.583,975.25 461.559,976.363C462.42,976.848 462.524,976.807 462.608,976.775C463.325,976.494 462.674,975.927 463.381,975.65C463.804,975.799 463.975,976.38 464.398,976.529C464.571,976.59 464.96,976.728 465.492,974.511C466.285,975.042 479.349,978.919 473.553,987.539C472.241,989.491 469.538,989.063 467.824,990.785C458.768,999.889 449.006,994.847 439.661,999.792C435.767,1001.853 425.799,1008.992 410.459,1005.712C405.683,1004.691 399.307,1002.626 399.126,991.507C398.964,981.488 404.3,975.085 401.563,965.482C398.041,953.128 397.438,952.973 400.099,940.423C403.56,924.098 390.395,869.953 377.191,837.619C364.219,805.853 377.766,768.949 375.077,759.592C370.213,742.663 361.772,736.24 358.638,696.491C354.237,640.678 337.925,625.231 334.45,577.503C333.403,563.119 335.991,550.33 334.513,550.454C329.505,550.873 329.573,551.186 324.503,550.595C318.512,549.897 332.443,556.491 315.148,625.404C307.799,654.687 303.568,653.875 299.588,699.506C295.545,745.867 281.12,750.043 283.417,768.508C289.485,817.309 288.596,817.989 276.022,851.339C273.152,858.951 255.752,919.448 257.575,935.493C258.549,944.062 261.739,948.573 259.036,958.367C255.888,969.775 255.134,969.927 257.85,981.41C258.75,985.219 266.145,1009.089 236.505,1006.426C222.435,1005.162 224.163,998.366 206.54,997.061C193.555,996.099 191.325,990.097 187.542,989.321C185.722,988.948 177.147,980.545 190.35,976.13C191.948,975.595 195.612,972.346 198.516,971.572C206.061,969.562 205.052,967.863 217.397,956.398C217.886,955.944 224.778,945.942 224.257,927.507C223.565,903.041 209.116,820.737 214.612,790.521C220.32,759.14 227.533,759.068 229.426,730.495C231.138,704.66 234.598,704.157 226.804,679.412C223.476,668.844 204.426,608.362 214.33,541.475C217.5,520.068 226.749,492.541 228.147,488.381C231.942,477.088 229.323,464.848 240.013,441.243C246.218,427.541 242.866,426.473 248.72,412.589C254.72,398.362 262.389,393.49 258.666,374.468C253.287,346.984 254.073,346.697 245.851,330.335C230.725,300.23 234.734,298.35 232.466,296.529C230.93,295.296 229.729,300.651 226.244,306.345C225.22,308.017 207.279,335.092 205.624,337.588C194.29,354.692 191.212,352.721 186.96,363.717C172.066,402.226 170.027,401.613 139.466,429.461C127.915,439.986 103.562,465.174 105.257,470.55C109.766,484.844 109.116,485.28 104.296,499.435C103.098,502.953 104.407,533.117 93.272,522.748C85.09,515.129 95.427,497.304 86.613,502.681C83.37,504.66 76.099,524.424 83.285,536.617C87.102,543.094 82.43,546.398 81.752,546.878C80.597,547.694 80.796,557.177 73.497,556.531C70.63,556.277 71.425,554.933 60.709,531.411C57.888,525.219 61.59,523.341 60.179,503.515C59.808,498.298 70.715,485.203 78.985,457.626C82.269,446.673 92.739,441.089 111.297,391.418C128.476,345.437 136.021,349.185 149.1,333.106C156.982,323.417 165.179,299.469 166.228,296.403C171.522,280.936 182.64,272.078 182.847,267.522C182.965,264.921 180.241,227.062 207.101,204.03C223.803,189.708 242.294,195.88 248.33,192.224C271.604,178.125 273.716,182.154 292.222,170.075C297.657,166.528 298.886,148.536 295.624,144.41C290.052,137.36 290.771,126.894 286.209,123.964C273.814,116.004 275.895,96.075 276.162,93.524C276.162,93.524 275.255,90.867 275.176,90.636C277.221,89.741 277.593,89.858 277.776,87.54C277.943,82.779 277.461,76.579 282.326,76.824C283.466,76.881 283.282,77.22 284.284,77.635Z" style="fill:rgb(85,84,97);"/>
            </g>
            <g transform="matrix(1,0,0,1,0.314375,-1.999734)">
                <path d="M284.284,77.635C269.927,80.333 293.58,113.839 296.951,122.358C298.46,126.174 298.942,125.819 299.757,126.833C299.728,126.977 299.398,128.633 299.398,128.633C299.398,128.633 301.515,128.552 301.699,128.545C304.192,132.248 304.649,132.002 304.976,131.827C305.435,131.58 305.118,130.63 305.577,130.384L306.128,130.698L306.418,131.564C306.336,131.732 305.121,131.81 305.471,133.494C305.863,135.384 306.06,135.347 305.997,135.5C305.509,136.679 304.561,135.691 304.069,136.88C300.051,131.774 300.688,129.256 299.594,130.63C298.975,131.406 299.016,132.627 298.293,133.306C297.134,134.395 296.663,129.824 296.629,129.493C296.309,126.384 293.235,119.93 292.856,119.133C291.347,122.543 289.895,122.707 292.972,133.348C295.463,141.961 296.792,141.71 297.256,141.168C297.409,140.99 297.181,135.427 297.252,135.371C298.839,134.128 301.028,135.76 299.212,160.488C298.754,163.188 298.598,163.243 299.852,165.608C288.08,181.901 275.008,176.008 244.491,198.484C243.815,197.836 243.14,197.188 242.464,196.541C236.615,196.488 223.396,194.931 210.188,205.055C187.396,222.525 186.109,252.898 185.914,257.518C185.523,266.75 187.814,267.672 181.937,274.85C168.839,290.849 168.1,300.869 163.535,313.524C162.074,314.761 162.232,314.776 161.239,316.321C145.873,351.052 133.186,343.509 119.979,376.719C109.614,402.783 110.63,403.178 98.029,428.26C85.386,453.424 83.242,452.381 81.568,458.523C76.123,478.499 62.769,499.26 62.756,504.486C62.7,527.578 61.94,527.864 65.138,534.683C67.825,540.412 67.381,540.594 71.393,545.578C74.563,550.298 77.919,556.414 78.235,549.487C78.574,542.045 65.448,533.771 64.867,523.47C64.799,522.274 64.044,508.904 64.293,508.5C64.402,508.322 64.422,508.357 66.046,506.572C66.624,515.068 66.533,514.979 67.146,523.551C67.583,529.664 79.544,545.388 81.152,544.068C84.102,541.645 79.461,535.491 79.007,534.889C71.312,524.686 74.331,517.561 74.199,515.537C74.089,513.851 73.3,514.168 72.995,512.497C72.949,512.243 72.975,511.696 76.197,512.14C78.035,510.165 78.074,510.208 78.883,507.587C80.705,508.432 80.681,508.538 80.851,508.5C81.289,508.403 80.901,507.58 81.096,507.176C82.74,503.772 84.342,503.722 82.431,500.442C86.807,495.11 91.906,489.492 94.259,483.406C95.591,479.961 96.089,468.502 97.33,474.583C99.419,484.815 90.21,494.507 87.674,497.596C86.457,499.078 87.597,499.32 89.502,499.258C93.772,499.118 93.411,498.011 97.545,496.758C101.047,495.697 97.105,499.936 94.605,500.603C92.069,501.28 90.432,523.327 97.542,521.688C100.49,521.009 100.777,505.913 100.804,504.515C100.998,494.279 110.42,489.284 102.638,471.363C102.253,470.74 101.869,470.117 101.485,469.494C116.039,441.465 157.418,413.739 169.096,396.256C176.743,384.807 181.137,370.725 184.951,361.606C185.404,360.516 185.952,360.607 185.569,357.545C206.39,336.228 202.837,333.531 220.761,309.692C231.61,295.262 231.035,287.583 230.879,285.49C230.308,277.853 227.532,254.359 230.749,266.258C235.129,282.456 228.827,284.085 242.221,315.612C250.045,334.028 251.201,333.496 257.725,352.42C258.632,355.05 258.701,354.928 259.895,357.385C259.382,358.076 258.868,358.766 258.355,359.457C261.54,382.179 266.507,383.347 255.969,403.767C248.662,417.927 248.08,422.352 246.123,432.428C243.288,443.055 236.48,450.984 233.337,475.478C233.203,476.522 233.224,476.498 231.714,488.534C230.067,490.229 230.092,490.185 229.187,492.33C226.928,501.405 197.957,573.738 227.094,670.626C235.27,697.812 235.446,698.075 233.329,715.478C231.046,734.254 234.501,735.648 226.573,757.527C211.268,799.767 215.841,813.653 220.026,862.543C224.713,917.296 231.705,922.616 223.175,950.421C220.893,957.858 220.047,958.064 222.757,965.426C222.86,965.705 226.753,971.727 222.56,969.168C217.548,966.109 221.947,955.604 216.188,961.195C202.471,974.513 202.311,974.206 200.579,975.616C197.084,971.69 194.026,975.993 193.514,978.829C183.603,977.965 185.668,986.758 188.5,986.5C192.995,986.091 191.282,991.268 199.595,993.064C213.171,995.998 215.233,995.309 216.559,994.954C218.375,996.117 234.054,1008.654 251.435,1001.436C260.816,997.54 254.358,977.966 252.097,968.536C253.771,967.353 253.915,967.49 254.552,965.521C256.742,954.53 258.702,954.543 256.352,943.529C253.269,929.083 257.881,926.361 253.358,923.462C264.732,890.011 262.551,876.144 278.142,838.311C288.57,813.005 283.301,794.394 279.74,757.495C281.259,757.217 281.55,757.121 285.064,748.317C298.678,714.211 295.343,701.614 299.889,672.553C304.375,643.868 327.819,589.88 320.364,550.551C319.917,548.196 318.948,549.583 317.101,551.072C295.541,568.451 262.527,559.999 262.26,558.622C261.579,555.107 272.26,561.613 289.448,559.114C319.036,554.811 324.005,540.418 327.164,528.418C328.518,523.275 327.77,482.894 327.68,482.501C325.116,471.237 324.157,471.427 324.32,470.439C325.271,464.673 328.761,479.825 329.455,479.447C331.708,478.222 327.214,474.803 334.391,468.599L334.643,469.483C333.379,472.304 333.095,473.243 332.992,473.582C330.062,483.271 330.35,483.329 330.349,493.5C330.346,516.513 325.943,547.94 357.469,556.609C379.101,562.558 389.981,558.468 393.484,557.749C394.03,558.21 394.576,558.67 395.121,559.131C361.946,569.119 341.791,551.282 340.15,549.979C335.45,546.249 337.042,575.308 337.163,577.521C339.346,617.365 356.335,642.386 360.729,690.476C363.76,723.66 364.414,723.637 376.179,754.773C377.009,756.095 376.691,756.252 377.804,757.358C378.267,757.818 377.93,757.997 378.434,758.499C376.356,794.92 367.676,807.911 381.723,841.399C393.369,869.163 397.33,901.802 403.504,918.499C403.038,919.166 402.572,919.833 402.106,920.5L402.167,921.5L402.218,922.5C403.465,925.832 402.934,925.867 403.122,929.446C403.099,940.117 401.655,939.936 400.96,950.521C400.764,953.502 403.685,963.716 404.007,964.842C404.303,965.851 403.701,967.555 406.826,966.523C400.898,986.352 401.948,993.218 402.303,995.54C404.13,1007.494 429.411,1006.104 442.456,994.394C443.246,994.881 442.729,995.257 443.468,995.713C443.539,995.756 443.665,995.834 444.5,995.654C459.006,992.524 460.711,995.121 467.614,986.606C467.836,986.333 467.84,986.45 470.5,986.498C471.645,986.518 472.613,984.396 472.134,982.591C470.18,975.228 464.776,982.194 457.55,975.427C459.303,974.135 459.356,973.881 461.481,974.555C461.498,974.948 459.583,975.25 461.559,976.363C462.42,976.848 462.524,976.807 462.608,976.775C463.325,976.494 462.674,975.927 463.381,975.65C463.804,975.799 463.975,976.38 464.398,976.529C464.571,976.59 465.068,977.222 465.6,975.006C466.393,975.536 479.349,978.919 473.553,987.539C472.241,989.491 469.538,989.063 467.824,990.785C458.768,999.889 449.006,994.847 439.661,999.792C435.767,1001.853 425.799,1008.992 410.459,1005.712C405.683,1004.691 399.307,1002.626 399.126,991.507C398.964,981.488 404.3,975.085 401.563,965.482C398.041,953.128 397.438,952.973 400.099,940.423C403.56,924.098 390.395,869.953 377.191,837.619C364.219,805.853 377.766,768.949 375.077,759.592C370.213,742.663 361.772,736.24 358.638,696.491C354.237,640.678 337.925,625.231 334.45,577.503C333.403,563.119 335.991,550.33 334.513,550.454C329.505,550.873 329.573,551.186 324.503,550.595C318.512,549.897 332.443,556.491 315.148,625.404C307.799,654.687 303.568,653.875 299.588,699.506C295.545,745.867 281.12,750.043 283.417,768.508C289.485,817.309 288.596,817.989 276.022,851.339C273.152,858.951 255.752,919.448 257.575,935.493C258.549,944.062 261.739,948.573 259.036,958.367C255.888,969.775 255.134,969.927 257.85,981.41C258.75,985.219 266.145,1009.089 236.505,1006.426C222.435,1005.162 224.163,998.366 206.54,997.061C193.555,996.099 191.325,990.097 187.542,989.321C185.722,988.948 177.147,980.545 190.35,976.13C191.948,975.595 195.612,972.346 198.516,971.572C206.061,969.562 205.052,967.863 217.397,956.398C217.886,955.944 224.778,945.942 224.257,927.507C223.565,903.041 209.116,820.737 214.612,790.521C220.32,759.14 227.533,759.068 229.426,730.495C231.138,704.66 234.598,704.157 226.804,679.412C223.476,668.844 204.426,608.362 214.33,541.475C217.5,520.068 226.749,492.541 228.147,488.381C231.942,477.088 229.323,464.848 240.013,441.243C246.218,427.541 242.866,426.473 248.72,412.589C254.72,398.362 262.389,393.49 258.666,374.468C253.287,346.984 254.073,346.697 245.851,330.335C230.725,300.23 234.734,298.35 232.466,296.529C230.93,295.296 229.729,300.651 226.244,306.345C225.22,308.017 207.279,335.092 205.624,337.588C194.29,354.692 191.212,352.721 186.96,363.717C172.066,402.226 170.027,401.613 139.466,429.461C127.915,439.986 103.562,465.174 105.257,470.55C109.766,484.844 109.116,485.28 104.296,499.435C103.098,502.953 104.407,533.117 93.272,522.748C85.09,515.129 95.427,497.304 86.613,502.681C83.37,504.66 76.099,524.424 83.285,536.617C87.102,543.094 82.43,546.398 81.752,546.878C80.597,547.694 80.796,557.177 73.497,556.531C70.63,556.277 71.425,554.933 60.709,531.411C57.888,525.219 61.59,523.341 60.179,503.515C59.808,498.298 70.715,485.203 78.985,457.626C82.269,446.673 92.739,441.089 111.297,391.418C128.476,345.437 136.021,349.185 149.1,333.106C156.982,323.417 165.179,299.469 166.228,296.403C171.522,280.936 182.64,272.078 182.847,267.522C182.965,264.921 180.241,227.062 207.101,204.03C223.803,189.708 242.294,195.88 248.33,192.224C271.604,178.125 273.716,182.154 292.222,170.075C297.657,166.528 298.886,148.536 295.624,144.41C290.052,137.36 290.771,126.894 286.209,123.964C273.814,116.004 275.895,96.075 276.162,93.524C276.162,93.524 275.255,90.867 275.176,90.636C277.221,89.741 277.593,89.858 277.776,87.54C277.943,82.779 277.461,76.579 282.326,76.824C283.466,76.881 283.282,77.22 284.284,77.635Z" style="fill:rgb(85,84,97);"/>
            </g>
            <g transform="matrix(0.999393,0,0,0.999393,0.363473,-1.437066)">
                <path d="M200.579,975.616C195.964,979.498 195.009,978.764 193.514,978.829C194.026,975.993 197.084,971.69 200.579,975.616Z" style="fill:rgb(120,120,138);"/>
            </g>
        </g>
        <g transform="matrix(1,0,0,1,-1.353537,-4.329711)">
            <path d="M374.123,104.2C378.689,95.593 377.99,95.2 378.631,94.649C380.511,93.035 380.653,100.79 379.56,106.513C377.298,118.351 370.826,121.733 369.49,122.431C369.154,121.787 368.817,121.144 368.48,120.5C369.457,119.83 374.032,116.694 375.68,107.567C376.228,104.532 374.561,105.149 374.123,104.2Z" style="fill:rgb(229,229,239);"/>
            <path d="M365.114,120.231C367.308,123.028 367.336,122.975 367.594,123.518C366.412,130.061 363.537,139.056 362.124,141.014C360.497,143.268 361.467,135.522 361.464,135.509C361.343,135.061 360.521,134.956 360.511,134.492C360.5,134.024 361.428,133.889 361.418,133.422C362.353,126.576 362.447,126.648 365.114,120.231Z" style="fill:rgb(227,228,241);"/>
            <path d="M372.214,107.301C372.55,107.845 373.377,107.955 373.714,108.5C373.925,108.841 373.913,108.822 372.129,113.255C370.216,118.007 367.954,117.227 368.48,120.5C368.817,121.144 369.154,121.787 369.49,122.431C368.858,122.793 368.226,123.156 367.594,123.518C367.336,122.975 367.308,123.028 365.114,120.231C367.668,116.137 371.674,108.35 372.214,107.301Z" style="fill:rgb(215,217,225);"/>
            <path d="M374.123,104.2C374.561,105.149 376.228,104.532 375.68,107.567C374.032,116.694 369.457,119.83 368.48,120.5C367.954,117.227 370.216,118.007 372.129,113.255C373.913,108.822 373.925,108.841 373.714,108.5C373.377,107.955 372.55,107.845 372.214,107.301C372.85,106.267 373.486,105.234 374.123,104.2Z" style="fill:rgb(193,194,201);"/>
        </g>
        <g transform="matrix(-1,0,0,1,656.986902,-4.329711)">
            <path d="M374.123,104.2C378.689,95.593 377.99,95.2 378.631,94.649C380.511,93.035 380.653,100.79 379.56,106.513C377.298,118.351 370.826,121.733 369.49,122.431C369.154,121.787 368.817,121.144 368.48,120.5C369.457,119.83 374.032,116.694 375.68,107.567C376.228,104.532 374.561,105.149 374.123,104.2Z" style="fill:rgb(229,229,239);"/>
            <path d="M365.114,120.231C367.308,123.028 367.336,122.975 367.594,123.518C366.412,130.061 363.537,139.056 362.124,141.014C360.497,143.268 361.467,135.522 361.464,135.509C361.343,135.061 360.521,134.956 360.511,134.492C360.5,134.024 361.428,133.889 361.418,133.422C362.353,126.576 362.447,126.648 365.114,120.231Z" style="fill:rgb(227,228,241);"/>
            <path d="M372.214,107.301C372.55,107.845 373.377,107.955 373.714,108.5C373.925,108.841 373.913,108.822 372.129,113.255C370.216,118.007 367.954,117.227 368.48,120.5C368.817,121.144 369.154,121.787 369.49,122.431C368.858,122.793 368.226,123.156 367.594,123.518C367.336,122.975 367.308,123.028 365.114,120.231C367.668,116.137 371.674,108.35 372.214,107.301Z" style="fill:rgb(215,217,225);"/>
            <path d="M374.123,104.2C374.561,105.149 376.228,104.532 375.68,107.567C374.032,116.694 369.457,119.83 368.48,120.5C367.954,117.227 370.216,118.007 372.129,113.255C373.913,108.822 373.925,108.841 373.714,108.5C373.377,107.955 372.55,107.845 372.214,107.301C372.85,106.267 373.486,105.234 374.123,104.2Z" style="fill:rgb(193,194,201);"/>
        </g>
        <g>
            <path d="M347.653,21.151C354.002,23.672 353.899,23.743 360.429,25.629C360.065,25.891 360.636,27.085 357.585,26.854C356.938,26.804 347.005,26.051 349.607,28.297C351.421,29.862 355.45,25.292 368.813,35.163C375.462,40.075 377.777,42.207 381.503,38.483C384.052,38.543 388.252,37.523 385.229,40.264C381.859,43.319 377.547,42.949 381.104,45.924C387.3,51.105 393.695,69.287 386.981,71.589C386.545,68.474 386.435,68.568 386.353,65.41C386.121,64.767 385.89,64.124 385.658,63.482C385.22,61.961 385.258,62.051 385.025,60.579C383.327,54.281 379.766,53.266 377.639,51.847C377.348,52.11 376.131,52.297 377.969,54.08C378.936,55.017 384.162,60.087 384.742,69.483C385.368,79.626 382.735,61.537 376.674,60.807C376.852,61.303 384.338,75.901 383.656,77.515C383.034,78.985 382.549,78.861 382.738,82.478L382.514,83.498C382.487,83.723 382.175,86.302 382.175,86.302C382.089,86.441 382.04,86.252 380.26,85.59C380.138,85.146 380.016,84.703 379.894,84.259C377.349,78.132 378.044,78.009 376.779,71.433C376.295,68.919 374.019,70.055 374.607,72.482C376.386,79.828 375.841,79.852 375.624,85.501C375.055,85.196 374.294,85.422 373.724,85.118C373.507,85.002 373.785,84.502 373.562,84.399C371.962,83.659 371.445,95.751 367.806,100.784C366.983,101.922 366.683,101.334 366.186,101.578C368.138,92.575 367.23,91.758 366.994,90.661C367.031,89.723 367.725,72.017 365.066,79.087C364.987,79.296 366.416,87.667 361.617,94.584C357.747,100.16 357.7,100.075 352.493,104.481C352.412,103.732 351.672,104.273 351.593,103.534C351.582,103.433 351.688,103.487 352.275,102.458C352.794,101.55 357.468,93.361 353.462,89.432C351.832,94.082 353.561,96.317 349.019,104.218C347.92,105.523 347.956,105.462 346.597,106.581C346.062,107.004 340.55,111.372 340.459,112.495C340.172,116.075 346.313,109.347 348.41,107.738C350.127,107.802 356.773,108.049 364.463,93.468C364.796,94.204 365.164,93.822 365.474,94.508C365.507,94.58 365.537,94.646 365.38,95.494C363.7,104.581 361.919,108.753 355.631,116.634C355.324,116.504 352.661,113.653 352.576,118.605C352.207,119.005 349.055,122.416 349.325,124.579C349.475,125.774 350.323,125.236 352.095,123.069C352.728,123.809 355.478,125.371 354.381,127.769C353.319,130.092 353.601,130.175 353.441,130.323C352.045,131.614 352.706,131.958 351.644,133.616C350.331,135.525 349.899,134.987 348.464,136.444C346.801,138.133 346.143,139.554 345.158,137.398C345.022,137.1 345.738,136.818 345.601,136.519C346.493,132.404 343.89,136.12 340.425,138.431C337.469,140.403 335.411,143.972 336.261,140.529C336.305,140.351 338.608,130.921 334.876,138.708C334.536,139.418 330.792,147.231 329.664,147.066C329.113,146.986 329.894,146.198 325.425,141.54C324.516,140.592 318.649,131.877 321.475,139.502C322.546,142.392 319.642,139.552 319.531,139.444C317.283,137.245 317.343,136.829 314.254,136.878L313.557,136.262C313.252,136.4 312.947,136.538 312.642,136.677C312.265,136.849 312.66,137.099 312.316,137.257C311.139,137.797 311.336,137.96 310.228,138.754C308.37,136.475 307.983,137.667 307.842,137.666C308.085,134.389 307.896,134.444 306.418,131.564L306.128,130.698C307.016,128.593 306.92,128.53 307.087,128.424C307.103,128.414 307.979,128.495 308.909,127.898C310.678,126.763 311.052,130.012 312.477,128.473C312.737,128.192 312.13,127.709 312.252,127.345C312.542,126.478 313.179,126.705 313.16,123.457C312.636,121.301 311.318,119.765 313.521,120.346C314.937,120.719 326.582,137.483 323.729,123.136C323.682,122.786 319.484,100.388 321.186,119.528C321.424,122.213 324.58,128.95 319.924,124.24C313.581,117.824 313.094,116.581 311.609,113.383C309.418,108.667 311.39,119.908 309.471,117.721C308.354,116.447 308.897,116.001 306.681,113.144C305.182,111.211 305.245,111.254 303.634,109.511C299.374,99.084 301.185,92.478 301.223,89.509C301.337,80.733 296.309,93.168 299.886,104.536C301.239,108.835 296.841,103.568 296.665,103.357C288.476,93.546 291.186,72.56 291.859,70.684C293.489,66.135 291.99,65.636 294.611,61.542C294.613,61.54 297.031,57.793 293.426,60.413C293.051,60.945 290.024,65.23 289.289,67.418C288.905,68.558 288.744,68.433 287.471,68.509C287.733,64.713 288.309,58.797 293.973,51.731C295.977,49.231 297.775,48.398 298.172,48.214C298.737,48.088 298.968,49.416 299.532,49.29C305.632,47.93 299.766,46.472 299.543,46.417C299.12,46.528 295.471,47.492 294.466,48.454C280.94,61.393 286.868,74.785 287.159,75.767C291.789,85.615 287.316,86.692 291.343,97.566C291.717,98.577 292.337,99.485 292.712,100.496C291.902,100.112 291.489,100.89 290.563,99.477C286.003,92.52 288.152,87.19 285.574,79.417C285.292,79.069 285.506,79.011 285.216,78.654C285.146,78.569 285.216,78.654 284.284,77.635C283.282,77.22 283.466,76.881 282.326,76.824C277.461,76.579 277.943,82.779 277.776,87.54C273.372,83.091 274.05,82.228 276.733,76.584C276.641,76.49 275.044,76.611 274.766,74.578C273.867,68.005 277.895,60.587 278.488,59.495C280.018,56.678 280.124,56.758 280.179,56.487C280.255,56.107 279.424,55.921 279.501,55.54C276.398,57.938 276.844,58.252 273.638,63.595C273.387,63.104 272.642,62.998 272.39,62.506C271.772,61.298 279.616,49.167 281.682,44.634C283.781,40.03 292.374,37.41 293.443,37.084C293.741,36.993 293.657,36.964 294.612,35.378C295.423,35.664 295.375,35.556 296.231,35.858C298.411,36.626 298.076,37.615 298.402,37.926C303.973,37.38 303.621,38.803 305.408,39.579C305.408,39.579 307.184,38.274 307.338,38.161L307.909,37.427C307.974,37.84 308.653,37.973 308.717,38.386C308.789,38.845 308.09,39.275 308.266,39.705C309.098,41.749 309.816,40.8 311.457,39.381C312.882,37.838 312.043,37.612 311.875,35.569C311.663,33.001 312.594,33.46 313.321,33.213C314.32,32.875 316.987,23.325 322.447,21.375C335.021,16.886 345.742,20.506 347.653,21.151Z" style="fill:rgb(111,118,132);"/>
            <path d="M282.483,75.384C284.166,76.003 285.847,77.818 285.216,78.654C284.94,79.021 285.292,79.069 285.574,79.417C285.212,81.056 283.111,90.551 288.896,100.133C290.538,102.853 290.499,103.428 293.721,103.242C297.699,108.143 302.157,110.284 302.504,110.486C304.45,113.774 310.699,122.368 311.407,123.61C311.989,124.63 312.197,124.023 313.16,123.457C313.179,126.705 312.542,126.478 312.252,127.345C312.13,127.709 312.737,128.192 312.477,128.473C311.052,130.012 310.678,126.763 308.909,127.898C307.979,128.495 307.103,128.414 307.087,128.424C306.92,128.53 307.016,128.593 306.128,130.698L305.577,130.384C305.118,130.63 305.435,131.58 304.976,131.827C304.649,132.002 304.192,132.248 301.699,128.545C301.24,127.062 301.301,126.743 299.757,126.833C298.942,125.819 298.46,126.174 296.951,122.358C293.58,113.839 268.127,78.082 282.483,75.384Z" style="fill:rgb(111,117,132);"/>
            <path d="M379.894,84.259C378.394,85.436 378.431,85.513 378.348,87.476C378.043,94.696 365.569,113.396 362.34,120.435C360.618,124.191 361.689,126.295 357.666,125.587C356.71,128.5 356.78,129.47 353.206,133.913C352.685,133.814 352.164,133.715 351.644,133.616C352.706,131.958 352.045,131.614 353.441,130.323C353.601,130.175 353.319,130.092 354.381,127.769C355.478,125.371 352.728,123.809 352.095,123.069C353.125,121.619 353.032,121.656 354.404,120.449C362,113.771 360.357,112.474 366.614,104.563C369.545,102.388 369.032,101.985 370.991,98.923C371.462,98.189 375.305,92.186 376.214,89.36C376.96,87.041 375.694,87.302 375.491,86.499L375.624,85.501C375.841,79.852 376.386,79.828 374.607,72.482C374.019,70.055 376.295,68.919 376.779,71.433C378.044,78.009 377.349,78.132 379.894,84.259Z" style="fill:rgb(108,115,130);"/>
            <path d="M321.484,17.3C320.976,17.565 300.802,26.585 307.909,37.427L307.338,38.161C303.54,36.515 303.227,35.621 305.111,26.43C305.126,26.198 305.294,23.533 305.294,23.533C304.786,22.145 304.794,23.93 303.682,24.813C303.488,25.345 301.452,30.935 301.184,31.425C299.971,33.636 287.681,31.855 284.076,37.541C283.465,38.505 284.493,38.558 284.51,38.598C282.731,40.071 282.79,40.019 281.019,41.5L280.5,42.062L279.168,43.442C278.821,42.782 278.475,42.123 278.128,41.463C278.854,39.923 278.822,39.916 278.912,39.8C286.532,29.912 292.382,31.215 293.567,30.575C295.814,29.361 292.757,29.964 290.693,28.406L290.402,27.344C297.163,27.143 299.411,29.153 300.18,27.362C300.732,26.079 305.364,15.294 312.463,14.947C314.68,14.839 309.461,19.759 308.8,20.675C308.693,20.823 304.047,29.23 309.681,22.777C310.946,21.328 317.654,13.644 331.49,12.635C337.786,12.176 327.603,15.573 323.61,17.65C322.901,17.533 322.192,17.416 321.484,17.3Z" style="fill:rgb(79,82,100);"/>
            <path d="M321.484,17.3C322.192,17.416 322.901,17.533 323.61,17.65C323.984,17.839 323.998,18.462 324.372,18.651C327.339,20.151 330.856,11.197 351.721,20.043C364.842,25.607 365.309,22.236 368.487,22.573C369.001,22.627 370.375,24.563 363.727,26.935C362.9,26.552 363.385,26.101 362.5,25.69C362.35,25.621 362.347,25.686 360.429,25.629C353.899,23.743 354.002,23.672 347.653,21.151C345.742,20.506 335.021,16.886 322.447,21.375C316.987,23.325 314.32,32.875 313.321,33.213C312.594,33.46 311.663,33.001 311.875,35.569C312.043,37.612 312.882,37.838 311.457,39.381C311.107,38.685 307.401,31.309 312.718,29.72C313.704,29.425 311.498,27.441 320.771,19.678C322.031,18.624 321.415,18.404 321.484,17.3Z" style="fill:rgb(75,79,95);"/>
            <path d="M293.426,60.413L294.611,61.542C291.99,65.636 293.489,66.135 291.859,70.684C291.186,72.56 288.476,93.546 296.665,103.357C296.841,103.568 301.239,108.835 299.886,104.536C296.309,93.168 301.337,80.733 301.223,89.509C301.185,92.478 299.374,99.084 303.634,109.511L302.504,110.486C302.157,110.284 297.699,108.143 293.721,103.242C293.385,102.327 293.048,101.411 292.712,100.496C292.337,99.485 291.717,98.577 291.343,97.566C287.316,86.692 291.789,85.615 287.159,75.767C290.261,73.072 288.292,72.466 287.471,68.509C288.744,68.433 288.905,68.558 289.289,67.418C290.024,65.23 293.051,60.945 293.426,60.413Z" style="fill:rgb(91,97,112);"/>
            <path d="M377.639,51.847C379.766,53.266 383.327,54.281 385.025,60.579C385.258,62.051 385.22,61.961 385.658,63.482C385.89,64.124 386.121,64.767 386.353,65.41C386.435,68.568 386.545,68.474 386.981,71.589C386.518,80.323 387.298,80.299 390.08,83.788C392.289,86.56 385.154,83.954 384.921,84.73C383.743,88.659 384.189,88.715 382.809,92.616C379.204,90.602 380.234,89.795 380.26,85.59C382.04,86.252 382.089,86.441 382.175,86.302C382.175,86.302 382.487,83.723 382.514,83.498C382.589,83.158 382.663,82.818 382.738,82.478C382.549,78.861 383.034,78.985 383.656,77.515C384.338,75.901 376.852,61.303 376.674,60.807C382.735,61.537 385.368,79.626 384.742,69.483C384.162,60.087 378.936,55.017 377.969,54.08C376.131,52.297 377.348,52.11 377.639,51.847Z" style="fill:rgb(88,92,110);"/>
            <path d="M314.254,136.878C317.343,136.829 317.283,137.245 319.531,139.444C319.642,139.552 322.546,142.392 321.475,139.502C318.649,131.877 324.516,140.592 325.425,141.54C329.894,146.198 329.113,146.986 329.664,147.066C330.792,147.231 334.536,139.418 334.876,138.708C338.608,130.921 336.305,140.351 336.261,140.529C335.411,143.972 337.469,140.403 340.425,138.431C343.89,136.12 346.493,132.404 345.601,136.519C343.99,138.974 344.02,138.957 341.492,140.371C339.745,141.711 339.824,141.68 338.42,143.418C337.178,145.198 335.824,148.053 333.429,147.19C332.486,146.85 332.632,147.307 332.111,148.213C327.919,155.497 326.47,144.505 325.447,144.567C324.185,144.644 323.989,147.792 321.91,145.11C321.701,144.841 319.448,141.936 319.296,141.747C316.384,138.386 315.784,139.522 315.56,139.504C315.124,138.628 314.689,137.753 314.254,136.878Z" style="fill:rgb(90,94,109);"/>
            <path d="M294.612,35.378C293.657,36.964 293.741,36.993 293.443,37.084C292.374,37.41 283.781,40.03 281.682,44.634C279.616,49.167 271.772,61.298 272.39,62.506C272.642,62.998 273.387,63.104 273.638,63.595C273.539,64.881 273.465,64.818 273.701,66.093C273.667,66.126 272.179,66.365 271.563,70.567C271.535,70.764 270.769,75.987 269.842,72.361C267.379,62.734 275.063,51.48 278.405,45.463L279.168,43.442L280.5,42.062L281.019,41.5C282.79,40.019 282.731,40.071 284.51,38.598C289.356,36.017 289.15,34.898 294.612,35.378Z" style="fill:rgb(74,76,94);"/>
            <path d="M342.402,58.495C342.798,59.157 343.194,59.818 343.589,60.48C343.958,62.296 344.189,62.277 343.906,63.236C342.157,69.146 341.936,80.53 336.363,83.423C336.285,81.487 336.404,81.563 336.32,79.561C336.834,79.288 337.217,80.001 337.843,78.752C338.401,77.639 338.817,76.81 341.721,63.68C341.851,63.09 341.625,63.141 339.616,56.429C338.528,52.796 333.434,46.473 328.542,45.415C328.297,45.362 322.912,44.197 326.576,42.976C328.944,42.188 336.89,47.418 338.665,50.413C342.643,57.125 342.229,58.027 342.402,58.495Z" style="fill:rgb(94,101,115);"/>
            <path d="M313.176,47.079C300.88,49.755 293.323,66.029 302.525,81.483C302.424,82.309 302.323,83.134 302.223,83.96C286.45,65.901 305.911,39.839 314.13,47.062L313.176,47.079Z" style="fill:rgb(76,83,98);"/>
            <path d="M303.634,109.511C305.245,111.254 305.182,111.211 306.681,113.144C308.897,116.001 308.354,116.447 309.471,117.721C311.39,119.908 309.418,108.667 311.609,113.383C313.094,116.581 313.581,117.824 319.924,124.24C324.58,128.95 321.424,122.213 321.186,119.528C319.484,100.388 323.682,122.786 323.729,123.136C326.582,137.483 314.937,120.719 313.521,120.346C311.318,119.765 312.636,121.301 313.16,123.457C312.197,124.023 311.989,124.63 311.407,123.61C310.699,122.368 304.45,113.774 302.504,110.486L303.634,109.511Z" style="fill:rgb(93,99,113);"/>
            <path d="M345.327,96.267C345.712,97.172 346.703,97.18 345.461,100.486C342.871,107.375 335.752,112.887 334.807,114.893C333.896,116.828 331.983,114.689 332.764,113.879C333.514,113.103 334.322,113.549 335.227,109.358C337.46,99.009 337.683,99.133 338.601,88.541C339.135,82.374 342.856,94.104 337.893,105.88C329.35,126.148 341.721,103.139 341.91,102.78C343.631,99.522 343.443,99.522 345.327,96.267Z" style="fill:rgb(89,96,111);"/>
            <path d="M360.429,25.629C362.347,25.686 362.35,25.621 362.5,25.69C363.385,26.101 362.9,26.552 363.727,26.935C363.745,27.432 362.972,27.734 362.991,28.231C363.007,28.679 365.448,29.607 367.297,30.817C374.13,35.285 373.627,36.248 381.503,38.483C377.777,42.207 375.462,40.075 368.813,35.163C355.45,25.292 351.421,29.862 349.607,28.297C347.005,26.051 356.938,26.804 357.585,26.854C360.636,27.085 360.065,25.891 360.429,25.629Z" style="fill:rgb(77,80,96);"/>
            <path d="M321.484,17.3C321.415,18.404 322.031,18.624 320.771,19.678C311.498,27.441 313.704,29.425 312.718,29.72C307.401,31.309 311.107,38.685 311.457,39.381C309.816,40.8 309.098,41.749 308.266,39.705C308.09,39.275 308.789,38.845 308.717,38.386C308.653,37.973 307.974,37.84 307.909,37.427C300.802,26.585 320.976,17.565 321.484,17.3Z" style="fill:rgb(111,117,134);"/>
            <path d="M279.501,55.54C279.424,55.921 280.255,56.107 280.179,56.487C280.124,56.758 280.018,56.678 278.488,59.495C277.895,60.587 273.867,68.005 274.766,74.578C275.044,76.611 276.641,76.49 276.733,76.584C274.05,82.228 273.372,83.091 277.776,87.54C277.593,89.858 277.221,89.741 275.176,90.636C271.424,80.412 272.157,80.18 273.701,66.093C273.465,64.818 273.539,64.881 273.638,63.595C276.844,58.252 276.398,57.938 279.501,55.54Z" style="fill:rgb(79,83,101);"/>
            <path d="M303.682,24.813C304.749,25.297 304.587,25.378 305.111,26.43C303.227,35.621 303.54,36.515 307.338,38.161C307.184,38.274 305.408,39.579 305.408,39.579C303.621,38.803 303.973,37.38 298.402,37.926C298.076,37.615 298.411,36.626 296.231,35.858C295.375,35.556 295.423,35.664 294.612,35.378C289.15,34.898 289.356,36.017 284.51,38.598C284.493,38.558 283.465,38.505 284.076,37.541C287.681,31.855 299.971,33.636 301.184,31.425C301.452,30.935 303.488,25.345 303.682,24.813Z" style="fill:rgb(112,117,134);"/>
            <path d="M362.785,43.193C362.943,43.315 369.779,48.557 365.239,42.732C359.326,35.146 349.943,31.608 346.54,31.278C346.296,31.255 333.447,30.01 344.374,29.105C350.391,28.606 365.019,35.502 369.063,45.695C369.649,47.169 373.201,57.522 368.105,49.742C367.86,49.369 367.386,48.645 364.041,45.915C363.584,45.543 363.509,45.571 363.46,45.591C362.719,45.876 363.102,46.278 362.409,46.545C361.837,44.817 362.028,44.847 362.785,43.193Z" style="fill:rgb(86,92,107);"/>
            <path d="M334.717,24.169C333.241,25.553 333.345,25.513 331.639,26.616C329.223,28.179 327.433,29.026 330.058,30.276L330.49,31.742C329.404,31.963 320.596,33.761 318.378,38.457C315.311,44.95 316.128,37.482 316.166,37.285C316.922,35.632 321.659,25.267 334.717,24.169Z" style="fill:rgb(112,118,134);"/>
            <path d="M366.994,90.661C367.23,91.758 368.138,92.575 366.186,101.578C366.328,102.573 366.471,103.568 366.614,104.563C360.357,112.474 362,113.771 354.404,120.449C353.032,121.656 353.125,121.619 352.095,123.069C350.323,125.236 349.475,125.774 349.325,124.579C349.055,122.416 352.207,119.005 352.576,118.605C354.247,117.754 354.236,117.878 355.631,116.634C361.919,108.753 363.7,104.581 365.38,95.494C365.537,94.646 365.507,94.58 365.474,94.508C365.164,93.822 364.796,94.204 364.463,93.468C365.432,91.809 365.585,91.995 366.994,90.661Z" style="fill:rgb(87,93,109);"/>
            <path d="M346.337,71.945C350.13,77.959 345.212,93.688 350.051,83.319C355.688,71.24 349.239,64.884 353.397,67.653C354.145,68.152 358.296,79.335 347.022,90.199C345.052,92.098 345.518,87.757 345.544,87.513C346.362,79.9 345.714,79.998 344.861,72.475L346.337,71.945Z" style="fill:rgb(90,97,113);"/>
            <path d="M366.994,90.661C365.585,91.995 365.432,91.809 364.463,93.468C356.773,108.049 350.127,107.802 348.41,107.738C347.805,107.352 347.201,106.967 346.597,106.581C347.956,105.462 347.92,105.523 349.019,104.218C350.177,104.306 351.335,104.394 352.493,104.481C357.7,100.075 357.747,100.16 361.617,94.584C366.416,87.667 364.987,79.296 365.066,79.087C367.725,72.017 367.031,89.723 366.994,90.661Z" style="fill:rgb(76,82,97);"/>
            <path d="M309.615,58.541C306.733,62.935 307.497,63.219 306.917,68.485C306.445,69.49 305.973,70.495 305.501,71.5C301.65,74.893 308.718,86.265 306.309,87.021C305.264,87.349 305.449,87.517 305.092,88.519C304.904,86.654 304.997,86.551 303.508,85.497C303.244,85.194 303.446,85.164 303.193,84.875C303.123,84.795 303.193,84.875 302.223,83.96C302.323,83.134 302.424,82.309 302.525,81.483C302.722,80.943 303.609,81.218 303.24,79.522C301.681,72.359 302.744,72.368 305.144,63.291C305.654,61.359 305.539,61.364 306.62,59.716C307.39,58.541 308.346,55.168 309.26,56.866C309.53,57.368 309.345,58.038 309.615,58.541Z" style="fill:rgb(91,97,111);"/>
            <path d="M324.105,78.832C323.427,78.045 319.068,72.984 317.905,67.417C317.683,66.353 315.638,56.562 317.948,53.831C320.792,50.467 317.228,64.137 321.901,72.216C328.315,83.304 330.398,81.455 331.161,82.705C333.025,85.756 325.523,82.109 325.082,81.895C324.756,80.874 324.431,79.853 324.105,78.832Z" style="fill:rgb(83,91,104);"/>
            <path d="M299.543,46.417C299.086,47.016 298.629,47.615 298.172,48.214C297.775,48.398 295.977,49.231 293.973,51.731C288.309,58.797 287.733,64.713 287.471,68.509C288.292,72.466 290.261,73.072 287.159,75.767C286.868,74.785 280.94,61.393 294.466,48.454C295.471,47.492 299.12,46.528 299.543,46.417Z" style="fill:rgb(81,88,105);"/>
            <path d="M320.685,39.895C333.826,32.835 344.664,43.259 346.689,46.464C350.439,52.402 340.736,42.37 336.343,40.954C323.281,36.744 320.201,44.857 317.962,42.38C318.02,42.327 317.681,41.985 320.685,39.895Z" style="fill:rgb(82,88,104);"/>
            <path d="M375.624,85.501L375.491,86.499C375.694,87.302 376.96,87.041 376.214,89.36C375.305,92.186 371.462,98.189 370.991,98.923C369.032,101.985 369.545,102.388 366.614,104.563C366.471,103.568 366.328,102.573 366.186,101.578C366.683,101.334 366.983,101.922 367.806,100.784C371.445,95.751 371.962,83.659 373.562,84.399C373.785,84.502 373.507,85.002 373.724,85.118C374.294,85.422 375.055,85.196 375.624,85.501Z" style="fill:rgb(91,97,113);"/>
            <path d="M282.763,49.875C284.143,49.16 284.318,49.598 285.451,48.482C286.064,47.878 295.486,41.433 302.493,41.417C303.002,41.415 311.501,41.395 308.496,43.495C307.486,44.201 299.647,40.972 287.507,49.514C285.139,51.18 285.015,50.753 282.412,51.881C274.946,55.115 282.626,49.963 282.763,49.875Z" style="fill:rgb(87,94,108);"/>
            <path d="M353.241,54.62C355.853,58.643 357.583,59.734 359.089,63.962C359.8,65.958 359.632,66.007 359.762,66.135C360.311,66.673 360.286,65.135 360.794,65.632C361.484,66.247 362.173,66.863 362.862,67.478C362.862,67.478 361.69,78.051 359.523,78.361C356.396,78.809 364.54,71.898 352.296,56.552C352.341,56.091 351.308,55.992 351.353,55.531C351.369,55.364 351.488,55.466 353.241,54.62Z" style="fill:rgb(92,99,113);"/>
            <path d="M362.785,43.193C362.028,44.847 361.837,44.817 362.409,46.545C363.106,47.31 368.672,53.426 369.291,57.499C369.481,58.75 368.859,58.429 367.626,58.407C367.151,57.019 367.167,57.023 367.113,56.908C361.631,45.212 355.206,42.619 353.721,42.019C346.38,39.056 356.067,39.598 362.785,43.193Z" style="fill:rgb(83,89,106);"/>
            <path d="M337.476,22.056C336.556,22.76 335.637,23.465 334.717,24.169C321.659,25.267 316.922,35.632 316.166,37.285C315.663,37.318 315.16,37.35 314.657,37.382C314.667,36.744 314.71,33.9 318.074,30.172C325.926,21.47 335.668,22.244 337.476,22.056Z" style="fill:rgb(83,89,106);"/>
            <path d="M330.49,31.742C333.544,31.535 333.469,31.479 336.577,31.268C339.696,36.556 331.964,30.374 322.053,37.274C321.894,37.384 321.702,37.439 321.541,37.546C319.714,38.755 320.906,39.288 320.685,39.895C317.681,41.985 318.02,42.327 317.962,42.38C317.047,42.04 313.815,43.614 314.657,37.382C315.16,37.35 315.663,37.318 316.166,37.285C316.128,37.482 315.311,44.95 318.378,38.457C320.596,33.761 329.404,31.963 330.49,31.742Z" style="fill:rgb(94,101,116);"/>
            <path d="M306.917,68.485C307.201,69.914 309.299,80.504 315.522,84.534C316.251,84.483 316.98,84.433 317.709,84.382C319.016,86.573 319.039,86.434 320.724,88.422L320.58,89.594C318.633,89.82 319.064,88.811 317.372,87.762C309.467,82.86 308.891,82.724 305.501,71.5C305.973,70.495 306.445,69.49 306.917,68.485Z" style="fill:rgb(84,89,104);"/>
            <path d="M351.644,133.616C352.164,133.715 352.685,133.814 353.206,133.913C354.548,134.67 354.314,134.862 355.663,135.593C354.007,137.611 354.149,137.592 352.536,139.554C352.349,139.086 351.637,138.968 351.451,138.5C351.302,138.127 351.696,137.709 351.641,137.311C351.462,136.002 350.994,137.181 349.193,139.023C345.539,142.99 343.683,144.019 340.628,145.055C340.98,142.479 343.044,142.499 341.492,140.371C344.02,138.957 343.99,138.974 345.601,136.519C345.738,136.818 345.022,137.1 345.158,137.398C346.143,139.554 346.801,138.133 348.464,136.444C349.899,134.987 350.331,135.525 351.644,133.616Z" style="fill:rgb(88,91,105);"/>
            <path d="M303.508,85.497C304.997,86.551 304.904,86.654 305.092,88.519C306.212,92.552 306.253,97.373 314.334,105.742C315.25,106.691 315.297,105.865 315.909,105.448C315.967,105.614 316.633,107.516 316.633,107.516C316.359,108.027 315.615,108.17 315.341,108.681C302.22,99.056 303.036,87.35 303.508,85.497Z" style="fill:rgb(84,90,105);"/>
            <path d="M285.574,79.417C288.152,87.19 286.003,92.52 290.563,99.477C291.489,100.89 291.902,100.112 292.712,100.496C293.048,101.411 293.385,102.327 293.721,103.242C290.499,103.428 290.538,102.853 288.896,100.133C283.111,90.551 285.212,81.056 285.574,79.417Z" style="fill:rgb(90,96,111);"/>
            <path d="M359.932,59.221C359.694,58.924 344.345,38.998 358.331,54.74C358.864,55.34 359.977,56.593 366.348,60.76C374.546,66.162 374.8,66.522 374.305,67.172C374.279,67.207 374.295,67.193 368.594,67.194C368.622,66.777 367.757,66.721 368.702,65.589C369.681,64.417 368.419,64.705 367.31,63.713C363.601,61.237 363.602,61.285 362.512,60.446C361.924,60.174 362.102,60.029 361.497,59.75C361.377,59.695 361.381,59.711 359.932,59.221Z" style="fill:rgb(89,95,111);"/>
            <path d="M298.715,114.276C300.327,113.012 300.991,112.429 301.725,114.4C305.189,123.695 304.375,123.873 304.351,124.009C298.19,120.744 292.038,103.947 297.276,109.912C297.519,110.188 297.021,110.271 298.715,114.276Z" style="fill:rgb(95,103,117);"/>
            <path d="M334.114,62.441C329.611,62.214 331.805,53.11 321.204,47.862C317.255,45.906 321.275,45.732 321.433,45.786C331.074,49.131 333.741,60.808 334.114,62.441Z" style="fill:rgb(85,91,105);"/>
            <path d="M313.344,74.587C310.801,68.958 310.085,67.191 310.486,66.49C311.903,64.008 312.685,69.351 314.315,71.649C320.392,80.215 323.195,79.171 324.105,78.832C324.431,79.853 324.756,80.874 325.082,81.895C323.227,81.678 321.96,82.083 315.638,76.244C314.538,75.463 313.527,74.721 313.344,74.587Z" style="fill:rgb(81,87,101);"/>
            <path d="M340.636,116.695C343.703,118.307 339.644,123.658 342.481,121.606C342.534,121.567 346.312,112.952 347.05,116.537C347.336,117.921 342.293,124.323 341.919,125.652C341.014,128.869 341.52,131.548 339.606,129.43C338.053,127.709 340.959,127.257 339.391,121.514C338.797,119.342 340.282,117.391 340.636,116.695Z" style="fill:rgb(93,98,114);"/>
            <path d="M317.062,102.737C318.204,106.468 317.973,106.453 319.758,109.868C317.111,110.598 317.204,109.574 315.341,108.681C315.615,108.17 316.359,108.027 316.633,107.516C316.633,107.516 315.967,105.614 315.909,105.448C315.55,104.691 312.062,97.338 312.667,95.49C313.582,92.693 314.745,95.313 317.062,102.737Z" style="fill:rgb(89,95,109);"/>
            <path d="M353.462,89.432C357.468,93.361 352.794,101.55 352.275,102.458C351.688,103.487 351.582,103.433 351.593,103.534C351.672,104.273 352.412,103.732 352.493,104.481C351.335,104.394 350.177,104.306 349.019,104.218C353.561,96.317 351.832,94.082 353.462,89.432Z" style="fill:rgb(85,91,105);"/>
            <path d="M336.32,79.561C336.404,81.563 336.285,81.487 336.363,83.423C336.269,83.736 334.09,90.963 333.642,86.464C333.547,85.507 334.058,85.543 334.389,74.466C334.395,74.261 334.464,71.957 335.436,72.126C336.479,72.308 336.313,76.696 336.32,79.561Z" style="fill:rgb(93,102,114);"/>
            <path d="M353.241,54.62C351.488,55.466 351.369,55.364 351.353,55.531C351.308,55.992 352.341,56.091 352.296,56.552C345.278,56.443 345.195,56.796 344.765,56.373C339.839,51.535 343.738,48.882 344.307,50.531C344.509,51.113 343.468,54.596 346.575,53.721C347.479,53.466 351.237,53.829 351.581,53.747C352.982,53.412 352.597,54.282 353.241,54.62Z" style="fill:rgb(108,115,131);"/>
            <path d="M312.642,136.677L313.557,136.262L314.254,136.878C314.689,137.753 315.124,138.628 315.56,139.504C316.891,141.624 316.871,141.532 318.463,143.479C316.988,144.947 316.727,144.242 315.078,142.961C312.496,140.956 312.369,141.196 310.228,138.754C311.336,137.96 311.139,137.797 312.316,137.257C312.66,137.099 312.265,136.849 312.642,136.677Z" style="fill:rgb(80,83,95);"/>
            <path d="M324.98,122.784C324.952,120.955 323.797,120.132 325.633,119.812C328.021,119.395 326.545,120.976 326.979,123.343C327.786,127.745 331.3,132.962 329.414,133.855C327.603,134.713 325.185,123.716 324.98,122.784Z" style="fill:rgb(95,101,115);"/>
            <path d="M277.664,74.568C277.54,73.95 276.343,73.968 276.218,73.35C275.469,69.623 290.183,53.079 280.967,67.647C280.227,68.816 277.914,74.008 277.664,74.568Z" style="fill:rgb(89,95,109);"/>
            <path d="M317.062,102.737C321.33,105.07 320.598,106.085 323.713,110.509L323.422,111.904C321.699,110.62 321.78,110.574 319.758,109.868C317.973,106.453 318.204,106.468 317.062,102.737Z" style="fill:rgb(98,105,119);"/>
            <path d="M306.418,131.564C307.896,134.444 308.085,134.389 307.842,137.666C308.412,139.918 309.424,141.744 307.453,140.622C306.613,140.144 306.73,140.022 304.069,136.88C304.561,135.691 305.509,136.679 305.997,135.5C306.06,135.347 305.863,135.384 305.471,133.494C305.121,131.81 306.336,131.732 306.418,131.564Z" style="fill:rgb(77,82,94);"/>
            <path d="M313.344,74.587C313.527,74.721 314.538,75.463 315.638,76.244C315.749,76.757 315.198,76.84 316.99,82.201C317.364,83.319 317.341,83.266 317.709,84.382C316.98,84.433 316.251,84.483 315.522,84.534C314.716,79.477 313.443,79.758 313.344,74.587Z" style="fill:rgb(96,101,115);"/>
            <path d="M346.597,106.581C347.201,106.967 347.805,107.352 348.41,107.738C346.313,109.347 340.172,116.075 340.459,112.495C340.55,111.372 346.062,107.004 346.597,106.581Z" style="fill:rgb(97,103,118);"/>
            <path d="M359.932,59.221C361.381,59.711 361.377,59.695 361.497,59.75C362.102,60.029 361.924,60.174 362.512,60.446C362.068,61.535 361.719,61.47 362.227,62.579C362.227,62.579 362.811,67.086 362.862,67.478C362.173,66.863 361.484,66.247 360.794,65.632C360.734,65.118 360.423,62.491 359.932,59.221Z" style="fill:rgb(97,103,119);"/>
            <path d="M376.755,45.112C375.293,43.997 375.327,43.957 375.176,43.908C374.952,43.835 363.221,40.009 373.5,41.48C376.243,41.873 377.22,40.804 377.88,43.5C377.505,44.037 377.13,44.575 376.755,45.112Z" style="fill:rgb(82,88,106);"/>
            <path d="M323.713,110.509C324.415,110.602 329.588,110.443 328.354,112.49C327.105,114.562 323.745,112.137 323.422,111.904L323.713,110.509Z" style="fill:rgb(108,115,128);"/>
            <path d="M341.492,140.371C343.044,142.499 340.98,142.479 340.628,145.055C339.892,144.509 339.156,143.964 338.42,143.418C339.824,141.68 339.745,141.711 341.492,140.371Z" style="fill:rgb(195,198,212);"/>
            <path d="M367.31,63.713C368.419,64.705 369.681,64.417 368.702,65.589C367.757,66.721 368.622,66.777 368.594,67.194C367.919,66.964 367.988,66.989 367.279,66.746C365.564,66.158 364.166,66.702 365.132,65.1C365.239,64.923 365.293,64.997 367.31,63.713Z" style="fill:rgb(103,109,124);"/>
            <path d="M349.193,139.023C350.994,137.181 351.462,136.002 351.641,137.311C351.696,137.709 351.302,138.127 351.451,138.5C351.637,138.968 352.349,139.086 352.536,139.554C350.224,141.455 350.231,139.659 349.193,139.023Z" style="fill:rgb(171,174,183);"/>
            <path d="M315.56,139.504C315.784,139.522 316.384,138.386 319.296,141.747C319.018,142.325 318.74,142.902 318.463,143.479C316.871,141.532 316.891,141.624 315.56,139.504Z" style="fill:rgb(152,154,169);"/>
            <path d="M355.631,116.634C354.236,117.878 354.247,117.754 352.576,118.605C352.661,113.653 355.324,116.504 355.631,116.634Z" style="fill:rgb(104,108,127);"/>
            <path d="M290.402,27.344L290.693,28.406C287.857,29.495 287.845,29.64 287.521,29.448C287.156,29.231 287.407,28.484 287.042,28.267C288.706,27.46 288.666,27.614 290.402,27.344Z" style="fill:rgb(170,172,184);"/>
            <path d="M299.543,46.417C299.766,46.472 305.632,47.93 299.532,49.29C298.968,49.416 298.737,48.088 298.172,48.214C298.629,47.615 299.086,47.016 299.543,46.417Z" style="fill:rgb(107,114,128);"/>
            <path d="M299.757,126.833C301.301,126.743 301.24,127.062 301.699,128.545C301.515,128.552 299.398,128.633 299.398,128.633C299.398,128.633 299.728,126.977 299.757,126.833Z" style="fill:rgb(69,77,90);"/>
            <path d="M278.128,41.463C278.475,42.123 278.821,42.782 279.168,43.442L278.405,45.463C276.983,43.694 277.065,43.465 278.128,41.463Z" style="fill:rgb(172,174,188);"/>
            <path d="M279.501,55.54C279.513,54.523 278.021,56.032 278.034,54.951C278.036,54.76 278.044,54.023 279.529,53.093C279.716,52.975 280.714,54.257 280.566,54.65C280.404,55.083 279.663,55.107 279.501,55.54Z" style="fill:rgb(114,121,137);"/>
            <path d="M313.176,47.079L314.13,47.062C316.886,46.092 316.957,46.837 316.842,47.022C315.652,48.94 315.202,47.984 313.176,47.079Z" style="fill:rgb(109,116,132);"/>
            <path d="M293.426,60.413C297.031,57.793 294.613,61.54 294.611,61.542L293.426,60.413Z" style="fill:rgb(101,108,124);"/>
            <path d="M303.682,24.813C304.794,23.93 304.786,22.145 305.294,23.533C305.294,23.533 305.126,26.198 305.111,26.43C304.587,25.378 304.749,25.297 303.682,24.813Z" style="fill:rgb(103,105,128);"/>
            <path d="M338.5,30.507C338.5,28.692 338.409,28.675 338.5,28.547C338.725,28.232 340.116,29.275 339.736,29.964C339.519,30.358 338.717,30.113 338.5,30.507Z" style="fill:rgb(113,121,134);"/>
            <path d="M375.269,87.328C374.826,87.625 375.119,88.516 374.676,88.812C373.918,89.32 373.801,88.398 373.791,88.318C373.773,88.177 373.896,88.247 375.269,87.328Z" style="fill:rgb(104,111,125);"/>
            <path d="M346.337,71.945L344.861,72.475C345.353,72.298 345.845,72.122 346.337,71.945Z" style="fill:rgb(107,115,128);"/>
        </g>
    </g>
</svg>
