<?xml version="1.0" encoding="UTF-8" standalone="no"?>
<!DOCTYPE svg PUBLIC "-//W3C//DTD SVG 1.1//EN" "http://www.w3.org/Graphics/SVG/1.1/DTD/svg11.dtd">
<svg width="100%" height="100%" viewBox="0 0 1664 2588" version="1.1" xmlns="http://www.w3.org/2000/svg" xmlns:xlink="http://www.w3.org/1999/xlink" xml:space="preserve" xmlns:serif="http://www.serif.com/" style="fill-rule:evenodd;clip-rule:evenodd;stroke-linejoin:round;stroke-miterlimit:2;">
    <g>
        <g transform="matrix(2.527344,0,0,2.527344,0,0)">
            <path d="M286.676,95.471C286.311,96.187 284.943,98.871 285.731,105.47C285.932,107.154 287.026,110.822 287.616,111.381C290.392,114.012 287.87,106.735 287.559,103.493C287.133,99.057 287.547,99.09 288.496,97.504C291.64,107.815 290.416,108.329 293.628,112.408C304.336,126.006 300.271,130.688 308.425,131.997C325.258,134.698 326.38,142.77 330.263,140.183C336.791,135.834 336.252,134.385 349.45,132.038C356.145,130.847 354.104,124.814 361.322,115.36C367.409,107.389 365.894,106.095 368.382,98.413C368.391,98.427 369.775,98.849 369.704,100.464C369.415,107.031 367.112,112.881 369.299,112.082C369.724,111.927 373.301,103.806 370.75,95.535C375.446,82.467 377.263,109.679 369.235,118.241C365.78,121.926 367.07,115.381 366.235,114.903C364.266,113.777 364.097,120.41 362.83,129.605C362.194,128.904 361.558,128.202 360.922,127.5C360.115,126.9 360.252,125.648 359.748,126.628C359.533,127.046 359.723,127.059 359.409,132.484C358.842,152.023 359.483,153.761 360.053,158.528C359.454,158.639 359.102,159.385 358.504,159.495C357.875,159.612 349.917,137.144 350.544,145.504C350.564,145.772 354.368,158.207 358.859,163.291C368.984,174.752 369.709,174.115 404.322,191.842C410.554,195.034 413.266,198.517 418.555,199.045C426.769,199.865 450.782,200.038 467.295,229.61C468.908,232.498 477.082,247.136 477.839,269.591C477.412,269.123 472.649,263.893 472.373,263.857C471.497,263.745 470.344,266.492 477.487,271.506C491.628,292.897 497.34,300.047 502.879,325.356C503.993,324.087 504.317,323.254 505.299,324.648C506.273,326.031 507.503,330.501 512.556,336.454C532.982,360.524 536.51,358.8 554.83,407.385C567.681,441.466 576.066,454.196 577.711,459.434C578.775,462.821 581.342,470.991 594.647,500.449C594.301,500.987 595.256,500.917 594.947,501.396C594.875,501.509 594.462,502.148 593.5,502.228C593.124,502.26 592.93,501.516 592.561,501.596C592.176,501.679 591.992,502.192 591.901,502.575C591.829,502.879 592.398,515.389 592.449,516.503C592.54,518.504 592.669,520.504 592.739,522.506C592.969,529.058 586.855,543.113 585.575,543.126C585.157,543.131 584.884,542.535 584.466,542.539C583.557,540.125 583.712,540.14 583.866,537.58C587.373,528.002 586.123,519.96 585.886,518.438C584.964,512.505 583.934,512.962 581.02,507.751C577.144,500.817 576.416,501.472 573.801,498.144C564.868,486.772 564.092,486.715 563.731,476.462C563.645,474.022 561.983,474.328 561.727,475.572C559.777,485.031 567.088,493.592 568.143,494.827C576.197,504.258 561.368,494.645 561.22,496.182C560.938,499.128 565.977,499.669 566.695,500.41C566.7,500.416 568.536,512.12 568.18,514.447C567.103,521.492 560.427,519.808 559.95,510.475C559.421,500.134 559.041,500.196 555.49,490.504C550.54,476.994 558.886,473.952 555.346,465.572C548.232,448.73 511.943,418.73 498.099,401.817C492.022,393.77 488.773,391.351 475.588,361.484C475.49,361.263 475.286,360.801 475.558,358.46C435.24,315.588 433.593,303.193 431.938,299.327C430.315,295.538 436.54,272.144 436.304,265.551C436.26,264.317 434.876,264.003 434.526,265.514C427.636,295.242 432.959,300.665 412.974,342.739C409.282,350.514 410.584,350.986 406.529,358.513C404.74,361.08 405.662,361.615 385.617,391.563C385.45,391.812 381.825,397.227 385.376,395.305C386.326,394.79 386.035,394.568 393.234,384.323C397.604,378.104 406.128,362.347 406.536,362.263C406.955,362.177 407.383,362.558 407.801,362.472C403.877,387.067 404.241,387.193 406.646,402.48C409.916,423.272 404.599,423.61 407.751,439.478C407.085,439.5 406.537,440.14 405.871,440.162C404.667,440.201 406.238,437.475 393.375,431.777C384.153,427.692 381.492,429.552 383.093,430.741C384.804,432.011 393.086,431.601 404.547,441.433C405.348,442.12 407.469,443.212 407.733,443.348C413.033,452.277 418.674,494.991 417.837,500.536C413.495,512.906 416.313,536.717 417.53,538.443C417.8,538.416 418.071,538.39 418.341,538.364C418.599,536.362 417.082,506.799 418.577,504.556C418.902,504.068 419.511,503.815 419.836,503.327C424.289,531.953 443.816,597.603 427.863,668.581C423.529,687.863 422.234,687.919 424.662,707.48C426.782,724.56 422.053,725.971 429.134,750.599C446.549,811.164 436.255,822.11 429.491,916.499C427.494,944.369 437.352,946.676 432.566,961.516C432.475,961.799 430.837,966.878 433.223,965.183C434.785,964.073 435.225,955.945 437.579,957.365C439.539,958.548 442.407,962.424 452.756,971.076C455.081,973.915 456.505,973.845 459.4,973.764C460.289,973.883 470.68,975.279 467.516,981.509C466.381,983.743 463.635,982.547 462.783,983.727C455.646,993.618 453.128,989.816 439.522,994.764C438.206,995.243 437.941,994.918 437.637,994.947C437.829,994.76 438.248,995.181 438.44,994.994C439.174,994.279 440.306,991.813 440.44,991.522C447.317,976.549 436.901,994.409 436.702,994.751C436.069,995.393 431.309,1002.976 415.505,1003.623C389.027,1004.706 398.211,981.649 399.203,975.433C401.354,973.862 401.321,973.897 402.598,971.535C404.352,965.026 412.353,935.342 397.797,887.406C396.353,882.144 396.778,881.979 393.821,877.421C392.749,874.687 392.717,874.716 392.664,874.468C389.796,861.087 383.162,844.333 382.198,841.599C367.25,799.219 381.656,775.357 378.323,756.525C375.187,746.326 366.295,728.756 363.137,701.539C354.463,626.784 340.275,629.382 332.794,554.466C332.487,551.401 325.107,549.219 324.395,555.49C315.587,633.101 304.636,630.849 297.882,673.563C291.442,714.299 294.347,715.031 279.828,753.661C277.323,763.438 278.419,764.248 280.75,785.47C286.471,837.565 267.978,847.169 264.361,877.474C263.824,886.192 260.257,898.259 257.945,917.548C255.22,940.294 263.667,940.447 259.702,954.56C255.043,971.143 259.142,971.339 260.365,988.508C261.878,1009.754 229.783,1006.556 220.579,994.388C220.455,994.209 213.005,983.482 218.007,993.5C218.236,993.958 218.218,994.555 218.567,994.928C218.785,995.162 219.291,994.875 219.509,995.109C213.904,993.295 207.541,991.789 206.49,991.54C195.292,988.888 195.728,984.79 194.137,982.876C193.762,982.424 191.621,983.841 189.909,981.25C185.993,975.323 197.699,973.846 198.612,973.731C202.245,973.918 202.189,973.483 204.426,971.355C219.936,958.173 220.29,955.327 221.347,957.655C222.384,959.942 221.727,960.101 222.816,962.337C227.642,972.245 224.402,959.783 224.338,959.536C222.313,951.746 224.092,951.748 227.052,936.422C228.694,927.923 229.319,924.69 219.896,828.455C213.662,764.791 231.807,762.893 232.099,725.5C232.321,696.92 236.057,696.671 231.499,678.5C212.189,601.525 231.494,539.031 237.241,503.408C237.856,503.724 238.819,503.074 239.002,505.649C240.172,522.068 238.62,532.704 238.692,538.43C238.948,538.587 239.204,538.743 239.459,538.9C239.67,538.791 239.899,539.297 240.109,539.188C240.889,538.784 243.465,509.803 239.527,499.498C238.729,495.739 244.055,451.823 249.44,443.464C248.291,438.938 250.907,436.827 250.576,431.499C249.822,419.381 247.981,419.331 250.815,401.554C253.553,384.387 252.892,383.267 249.157,361.438C249.793,361.824 250.395,360.895 251.25,362.706C252.543,365.448 258.862,378.845 271.287,394.87C289.189,417.961 263.12,378.968 262.256,377.676C259.16,373.045 254.529,363.958 250.611,358.443C247.429,353.901 249.144,353.107 240.061,333.702C228.142,308.239 230.789,305.456 224.449,276.513C222.677,268.423 222.618,262.563 220.903,264.753C218.84,267.386 227.692,293.399 224.676,300.568C222.499,305.743 214.077,325.764 183.009,357.05C182.89,357.169 182.895,357.156 181.474,358.481C181.134,358.735 174.559,363.647 178.5,362.88C178.913,362.8 179.087,362.189 179.5,362.108L180.951,362.602C172.16,382.432 172.018,384.364 158.957,401.896C145.307,418.654 109.151,448.533 101.743,465.614C97.869,474.546 107.36,475.894 101.262,491.405C97.659,500.567 98.198,500.643 97.076,510.466C95.532,523.991 89.786,517.22 89.499,516.5C88.086,512.954 90.027,500.429 91.049,500.02C91.281,499.927 104.745,492.979 92.438,497.219C91.943,497.39 82.576,501.355 87.953,495.895C100.925,482.723 93.996,469.926 93.638,475.541C92.51,493.173 87.348,491.087 78.966,502.863C75.575,507.628 76.187,507.919 72.643,512.607C71.305,514.377 69.222,527.219 72.618,535.447C75.025,541.277 71.801,545.627 70.222,541.623C64.859,528.023 63.94,528.026 64.862,513.514C64.887,513.112 64.852,513.141 64.723,508.474C64.738,505.441 65.424,505.553 65.253,502.536C65.247,502.428 65.168,501.042 64.602,501.352C64.174,501.587 64.179,502.488 63.691,502.5C63.06,502.516 62.77,501.398 62.139,501.414C64.644,495.349 75.551,471.743 77.245,466.417C83.556,446.579 90.844,439.431 103.783,403.599C123.986,347.648 135.035,352.105 149.123,330.243C150.918,332.121 151.962,333.212 152.753,330.677C153.998,326.687 153.938,326.682 154.047,326.336C158.57,298.826 176.943,275.776 180.086,271.277C186.948,265.233 186.059,264.16 185.406,263.829C184.824,263.533 184.735,263.795 179.53,269.492C180.21,238.881 197.37,203.207 233.504,199.538C241.12,198.765 241.273,199.031 247.764,194.938C270.366,180.682 285.179,180.372 297.968,163.664C304.47,156.795 308.683,140.03 304.972,143.912C304.408,144.501 305.495,144.946 301.462,153.484C301.327,153.768 301.482,153.769 300.081,157.161C298.926,159.959 298.244,159.254 297.043,159.576C298.225,145.502 297.704,145.581 297.854,131.395C295.775,133.203 295.848,133.382 295.613,133.344C294.559,133.169 293.168,118.846 293.045,117.573C293.026,117.382 290.208,110.404 290.64,117.514C290.766,119.595 288.778,120.076 286.82,116.322C277.599,98.648 284.244,87.7 286.676,95.471Z" style="fill:rgb(254,254,254);"/>
        </g>
        <g transform="matrix(2.527344,0,0,2.527344,0,0)">
            <path d="M360.053,158.528C360.073,158.855 360.453,165.095 362.97,161.41C363.152,161.143 362.694,160.714 362.876,160.447C365.094,173.393 380.582,174.767 409.431,191.617C416.896,195.977 416.953,195.924 425.456,196.877C458.102,200.537 477.498,231.694 480.013,263.546C480.647,271.588 480.573,271.782 486.328,279.625C503.713,303.322 498.826,317.818 519.254,339.741C555.568,378.712 549.374,396.888 574.566,446.467C583.935,464.905 582.108,465.606 590.564,484.473C597.347,499.608 597.797,499.567 598.291,508.513C599.304,526.847 602.18,527.364 595.583,544.536C594.06,548.501 591.705,561.111 584.669,555.3C580.958,552.236 583.294,550.655 579.806,547.204C573.852,541.311 582.288,536.06 578.257,515.548C578.104,514.77 577.412,504.513 572.588,502.324C565.762,499.226 576.679,519.995 565.542,521.771C555.208,523.42 558.168,503.999 555.436,497.523C548.935,482.118 551.336,481.592 553.605,470.516C554.491,466.19 538.473,447.01 536.915,445.145C519.406,424.18 495.94,414.477 476.911,371.314C469.976,355.583 469.542,355.785 457.908,343.119C430.578,313.363 431.68,296.803 429.515,307.504C425.14,329.129 413.296,341.217 410.739,360.536C407.764,383.016 406.232,383.083 409.798,405.446C412.816,424.371 406.827,424.845 411.457,443.511C420.653,480.585 417.215,481.215 425.729,518.448C433.934,554.331 441.074,616.733 433.068,658.418C428.642,681.464 425.015,681.181 427.099,704.541C429.35,729.787 425.65,730.354 433.168,754.603C447.638,801.279 439.703,827.775 433.313,904.486C432.597,913.092 429.482,925.735 436.838,952.372C437.116,953.378 451.563,967.052 453.515,967.44C459.909,968.709 459.256,970.413 465.601,972.177C468.324,972.934 476.886,980.476 465.718,985.967C461.355,988.112 463.115,991.564 449.565,994.788C440.342,996.982 440.616,997.653 432.348,1002.228C419.047,1009.589 390.136,1009.62 394.331,985.47C397.16,969.184 398.918,968.949 394.36,953.547C391.38,943.473 398.597,940.446 396.747,919.478C393.271,880.084 382.205,849.498 380.092,843.658C363.121,796.755 380.113,771.375 375.559,756.48C370.197,738.943 365.02,738.478 359.347,693.52C351.429,630.779 339.693,633.148 331.856,570.446C331.123,564.577 330.673,552.154 327.575,555.557C324.899,558.496 328.693,579.949 310.382,636.459C290.684,697.247 304.423,700.948 283.543,751.516C275.434,771.157 293.861,797.936 278.181,841.391C268.094,869.347 268.517,869.477 262.082,908.433C257.818,934.243 262.285,934.14 263.456,945.505C264.796,958.511 257.423,958.51 261.713,978.445C261.781,978.76 271.557,1007.326 242.499,1006.555C225.821,1006.112 223.001,998.352 212.436,995.786C200.921,992.99 200.048,994.144 193.148,986.868C192.977,986.688 183.654,983.452 187.545,975.524C189.785,970.959 191.81,973.5 197.469,969.454C201.066,966.883 203.023,969.013 206.234,966.183C220.433,953.671 220.53,953.205 220.864,951.586C225.781,927.806 226.817,927.653 223.202,895.538C214.67,819.754 215.541,803.543 215.972,795.533C217.538,766.433 229.025,752.148 229.282,724.498C229.428,708.897 230.426,709.028 231.032,693.503C231.468,682.33 209.503,631.51 227.805,537.566C234.901,501.138 235.311,501.263 240.791,464.545C244.062,442.63 249.202,443.178 247.127,424.538C244.58,401.649 251.861,400.15 248.918,378.454C245.899,356.202 247.056,355.769 237.686,335.414C225.883,309.773 227.855,298.576 225.132,306.274C217.596,327.582 190.357,348.285 183.296,364.412C158.796,420.376 144.097,416.348 117.984,447.91C102.575,466.534 103.314,469.287 103.882,471.404C108.193,487.466 104.73,487.511 101.328,498.443C100.079,502.459 100.474,527.737 89.765,521.055C81.054,515.62 91.866,497.058 83.675,502.758C82.381,503.658 79.523,505.647 77.614,521.511C76.316,532.303 84.195,539.433 75.65,548.616C75.199,549.101 74.587,556.911 68.491,556.758C65.406,556.68 64.516,552.763 64.053,551.68C64.771,551.625 65.146,550.555 65.865,550.5C67.147,550.403 66.328,551.228 66.816,552.411C67.702,554.558 68.35,553.357 70.554,552.818C76.074,547.509 69.049,545.118 68.42,543.535C62.303,528.137 61.937,527.992 62.805,515.513C63.031,512.265 61.828,512.203 63.136,509.137C63.361,508.61 64.498,509.002 64.723,508.474C64.852,513.141 64.887,513.112 64.862,513.514C63.94,528.026 64.859,528.023 70.222,541.623C71.801,545.627 75.025,541.277 72.618,535.447C69.222,527.219 71.305,514.377 72.643,512.607C76.187,507.919 75.575,507.628 78.966,502.863C87.348,491.087 92.51,493.173 93.638,475.541C93.996,469.926 100.925,482.723 87.953,495.895C82.576,501.355 91.943,497.39 92.438,497.219C104.745,492.979 91.281,499.927 91.049,500.02C90.027,500.429 88.086,512.954 89.499,516.5C89.786,517.22 95.532,523.991 97.076,510.466C98.198,500.643 97.659,500.567 101.262,491.405C107.36,475.894 97.869,474.546 101.743,465.614C109.151,448.533 145.307,418.654 158.957,401.896C172.018,384.364 172.16,382.432 180.951,362.602C181.742,360.597 181.48,360.605 181.474,358.481C182.895,357.156 182.89,357.169 183.009,357.05C214.077,325.764 222.499,305.743 224.676,300.568C227.692,293.399 218.84,267.386 220.903,264.753C222.618,262.563 222.677,268.423 224.449,276.513C230.789,305.456 228.142,308.239 240.061,333.702C249.144,353.107 247.429,353.901 250.611,358.443C250.258,358.91 249.496,358.942 249.143,359.41C249.143,359.41 249.156,361.276 249.157,361.438C252.892,383.267 253.553,384.387 250.815,401.554C247.981,419.331 249.822,419.381 250.576,431.499C250.907,436.827 248.291,438.938 249.44,443.464C244.055,451.823 238.729,495.739 239.527,499.498C237.551,500.924 237.786,501.095 237.241,503.408C231.494,539.031 212.189,601.525 231.499,678.5C236.057,696.671 232.321,696.92 232.099,725.5C231.807,762.893 213.662,764.791 219.896,828.455C229.319,924.69 228.694,927.923 227.052,936.422C224.092,951.748 222.313,951.746 224.338,959.536C224.402,959.783 227.642,972.245 222.816,962.337C221.727,960.101 222.384,959.942 221.347,957.655C220.29,955.327 219.936,958.173 204.426,971.355C201.058,969.419 199.236,969.404 198.612,973.731C197.699,973.846 185.993,975.323 189.909,981.25C191.621,983.841 193.762,982.424 194.137,982.876C195.728,984.79 195.292,988.888 206.49,991.54C207.541,991.789 213.904,993.295 219.509,995.109L220.579,994.388C229.783,1006.556 261.878,1009.754 260.365,988.508C259.142,971.339 255.043,971.143 259.702,954.56C263.667,940.447 255.22,940.294 257.945,917.548C260.257,898.259 263.824,886.192 264.361,877.474C267.978,847.169 286.471,837.565 280.75,785.47C278.419,764.248 277.323,763.438 279.828,753.661C294.347,715.031 291.442,714.299 297.882,673.563C304.636,630.849 315.587,633.101 324.395,555.49C325.107,549.219 332.487,551.401 332.794,554.466C340.275,629.382 354.463,626.784 363.137,701.539C366.295,728.756 375.187,746.326 378.323,756.525C381.656,775.357 367.25,799.219 382.198,841.599C383.162,844.333 389.796,861.087 392.664,874.468C392.717,874.716 392.749,874.687 393.821,877.421C393.697,877.893 392.954,878.028 392.831,878.5C392.194,880.939 393.333,880.887 398.316,909.532C403.611,939.967 393.046,940.477 397.51,954.497C400.259,963.13 400.124,963.224 399.203,975.433C398.211,981.649 389.027,1004.706 415.505,1003.623C431.309,1002.976 436.069,995.393 436.702,994.751L437.637,994.947C437.941,994.918 438.206,995.243 439.522,994.764C453.128,989.816 455.646,993.618 462.783,983.727C463.635,982.547 466.381,983.743 467.516,981.509C470.68,975.279 460.289,973.883 459.4,973.764C457.57,970.15 456.533,969.055 452.756,971.076C442.407,962.424 439.539,958.548 437.579,957.365C435.225,955.945 434.785,964.073 433.223,965.183C430.837,966.878 432.475,961.799 432.566,961.516C437.352,946.676 427.494,944.369 429.491,916.499C436.255,822.11 446.549,811.164 429.134,750.599C422.053,725.971 426.782,724.56 424.662,707.48C422.234,687.919 423.529,687.863 427.863,668.581C443.816,597.603 424.289,531.953 419.836,503.327C419.201,501.685 419.236,501.684 417.837,500.536C418.674,494.991 413.033,452.277 407.733,443.348C408.154,441.383 408.122,441.414 407.751,439.478C404.599,423.61 409.916,423.272 406.646,402.48C404.241,387.193 403.877,387.067 407.801,362.472C408.164,360.164 408.414,359.907 406.529,358.513C410.584,350.986 409.282,350.514 412.974,342.739C432.959,300.665 427.636,295.242 434.526,265.514C434.876,264.003 436.26,264.317 436.304,265.551C436.54,272.144 430.315,295.538 431.938,299.327C433.593,303.193 435.24,315.588 475.558,358.46C475.286,360.801 475.49,361.263 475.588,361.484C488.773,391.351 492.022,393.77 498.099,401.817C511.943,418.73 548.232,448.73 555.346,465.572C558.886,473.952 550.54,476.994 555.49,490.504C559.041,500.196 559.421,500.134 559.95,510.475C560.427,519.808 567.103,521.492 568.18,514.447C568.536,512.12 566.7,500.416 566.695,500.41C565.977,499.669 560.938,499.128 561.22,496.182C561.368,494.645 576.197,504.258 568.143,494.827C567.088,493.592 559.777,485.031 561.727,475.572C561.983,474.328 563.645,474.022 563.731,476.462C564.092,486.715 564.868,486.772 573.801,498.144C576.416,501.472 577.144,500.817 581.02,507.751C583.934,512.962 584.964,512.505 585.886,518.438C586.123,519.96 587.373,528.002 583.866,537.58C583.6,536.955 582.437,537.074 582.171,536.45C581.729,535.411 584.361,535.643 584.232,522.497C584.166,515.839 582.054,513.724 581.505,513.174C580.619,511.705 580.685,511.644 580.548,511.588C580.318,511.494 580.479,512.365 580.249,512.27C582.064,521.244 582.922,521.453 580.476,537.496C580.19,540.044 580.112,539.97 580.312,542.498C581.482,545.067 581.135,546.149 582.49,545.479C582.766,545.342 582.621,544.786 582.897,544.65C583.42,543.946 583.943,543.243 584.466,542.539C584.884,542.535 585.157,543.131 585.575,543.126C586.855,543.113 592.969,529.058 592.739,522.506C592.669,520.504 592.54,518.504 592.449,516.503C592.398,515.389 591.829,502.879 591.901,502.575C591.992,502.192 592.176,501.679 592.561,501.596C592.93,501.516 593.124,502.26 593.5,502.228C594.462,502.148 594.875,501.509 594.947,501.396C595.256,500.917 594.301,500.987 594.647,500.449C581.342,470.991 578.775,462.821 577.711,459.434C576.066,454.196 567.681,441.466 554.83,407.385C536.51,358.8 532.982,360.524 512.556,336.454C507.503,330.501 506.273,326.031 505.299,324.648C504.317,323.254 503.993,324.087 502.879,325.356C497.34,300.047 491.628,292.897 477.487,271.506L477.839,269.591C477.082,247.136 468.908,232.498 467.295,229.61C450.782,200.038 426.769,199.865 418.555,199.045C413.266,198.517 410.554,195.034 404.322,191.842C369.709,174.115 368.984,174.752 358.859,163.291C354.368,158.207 350.564,145.772 350.544,145.504C349.917,137.144 357.875,159.612 358.504,159.495C359.102,159.385 359.454,158.639 360.053,158.528Z" style="fill:rgb(89,95,112);"/>
        </g>
        <g transform="matrix(2.527344,0,0,2.527344,0,0)">
            <path d="M293.206,42.718C295.797,47.665 300.343,48.948 302.287,49.698C301.89,52.761 296.461,52.819 294.56,59.519C293.986,61.541 294.085,61.494 293.606,63.486C293.68,65.564 293.195,67.826 294.319,66.061C294.444,65.866 294.059,65.798 295.428,63.383C296.756,61.642 296.769,61.693 298.729,60.638C303.019,56.266 303.586,57.172 309.459,55.351C309.605,55.306 311.971,53.602 308.429,53.745C301.149,54.039 294.029,61.258 298.867,55.736C300.053,54.384 304.963,51.889 305.521,51.605C308.211,50.952 316.675,50.205 317.491,48.494C317.698,48.059 317.29,47.483 317.497,47.048C319.678,46.676 319.577,47.11 321.611,47.849C316.4,51.898 309.506,54.564 309.597,66.489C310.788,69.974 310.584,69.966 311.19,73.56C312.749,82.806 320.558,87.913 318.874,83.445C317.759,80.487 317.901,80.548 317.378,77.496C317.694,76.339 317.566,76.301 318.457,75.558C321.338,81.403 321.816,81.056 325.221,86.63C325.441,86.991 325.827,87.623 327.156,91.544C327.227,91.879 329.651,104.396 330.269,94.479C330.718,87.271 337.13,77.659 337.587,77.628C338.073,77.595 338.262,78.549 338.748,78.516C335.193,85.8 334.923,86.065 335.522,86.388C335.738,86.505 335.726,86.302 338.358,85.195C338.837,86.011 339.316,86.826 339.795,87.642C338.23,93.452 339.192,94.483 336.705,94.97C331.731,95.945 328.041,109.747 333.57,102.58C333.78,102.307 334.761,101.671 336.296,99.251C336.546,99.389 337.518,102.26 339.333,99.213C340.318,97.56 340.976,99.605 342.64,98.785C344.696,96.516 346.062,95.757 347.433,94.405C347.803,94.495 347.769,96.663 350.121,95.06C350.165,95.03 350.23,94.986 350.51,94.511C350.625,94.317 350.684,94.093 350.804,93.902C351.446,92.881 351.282,92.922 351.771,91.921C351.991,91.648 353.538,89.727 354.561,88.54C357.34,84.771 357.362,84.926 357.59,84.601C358.576,83.196 358.959,83.932 359.846,83.498C358.244,87.233 357.994,86.992 355.95,90.536C352.623,96.304 357.72,89.894 363.199,86.016C369.884,81.284 368.261,80.124 368.321,79.613C368.387,79.054 369.097,78.709 369.163,78.151C369.643,77.622 370.124,77.094 370.605,76.566C373.1,80.583 369.862,80.806 370.202,85.528C370.703,92.49 366.683,94.231 364.983,101.573C362.164,113.752 358.87,112.207 353.895,123.674C351.911,128.249 352.298,129.204 347.449,130.057C331.009,132.947 331.888,140.426 326.75,137.182C319.416,132.551 319.689,131.716 307.479,129.597C303.586,128.921 306.266,126.219 296.527,112.479C290.498,103.975 293.647,102.589 288.843,93.303C285.836,87.491 287.655,84.363 288.043,83.696C286.752,82.238 286.835,82.296 286.059,80.572C286.617,80.706 286.897,79.432 287.455,79.566C288.108,79.723 288.186,80.701 288.642,81.194C290.153,82.823 294.855,87.146 296.495,87.531C300.542,88.481 302.588,94.978 303.517,94.431C303.918,94.196 303.917,93.526 304.318,93.29C307.785,95.737 307.592,96.063 311.68,97.21C315.414,100.442 313.023,94.628 312.929,94.4C312.353,92.999 313.471,92.598 313.501,92.498C314.043,93.24 318.223,98.96 321.438,100.804C323.147,101.784 323.449,100.32 323.642,100.273C326.014,104.419 326.103,104.423 326.507,104.438C330.348,104.587 322.239,95.903 321.289,92.589C321.086,91.808 320.883,91.027 320.681,90.246C317.885,89.03 319.801,91.567 319.466,96.161C318.828,95.846 316.026,94.465 313.951,89.194C313.39,87.77 313.668,86.525 312.51,87.535C311.953,88.02 312.24,88.111 311.929,88.779C311.529,88.546 311.001,89.417 310.601,89.184C309.176,88.353 310.834,87.37 309.52,86.409C306.661,84.319 310.602,93.879 310.851,94.484C310.041,94.423 309.328,95.355 305.637,90.436C303.641,86.615 304.353,86.427 302.622,82.382C302.389,81.837 300.465,81.093 301.165,84.46C301.764,87.334 302.991,90.05 300.746,88.157C298.882,86.585 296.034,81.923 295.68,81.343C293.997,78.588 294.092,78.116 293.425,78.417C293.266,78.489 294.359,84.485 291.701,81.325C288.948,78.052 289.31,77.877 286.832,74.334C283.667,70.152 285.916,69.222 284.07,66.771C283.947,66.608 283.707,66.577 283.548,66.449C281.437,64.762 284.316,62.975 282.547,62.427C280.351,61.747 280.298,61.946 279.944,61.357C279.116,59.98 280.316,60.311 282.083,59.068C288.321,57.01 286.474,53.832 292.722,51.931C295.609,51.052 297.106,51.593 296.084,49.994C295.56,49.174 290.123,49.226 285.876,53.922C284.839,55.068 285.047,55.837 281.987,57.58C283.006,54.329 283.724,49.566 287.664,46.627C289.108,45.549 288.167,44.028 285.454,45.152C278.573,48.005 288.862,37.283 291.269,38.88C291.555,39.07 291.859,39.271 293.206,42.718Z" style="fill:rgb(230,233,237);"/>
        </g>
        <g transform="matrix(2.527344,0,0,2.527344,0,0)">
            <path d="M340.376,23.944C343.052,25.968 340.498,26.431 340.407,26.615C326.434,17.431 322.522,30.241 312.621,22.222C311.165,21.043 310.257,22.38 311.573,24.46C313.71,27.84 312.804,28.195 312.505,28.142C306.906,27.167 306.958,27.874 301.569,29.697C294.434,32.112 291.567,26.271 291.21,30.452C290.209,42.188 305.869,42.499 307.491,42.531C308.419,42.549 308.555,42.625 308.507,43.501C308.48,43.99 308.419,45.102 302.547,44.885C300.279,44.802 297.7,43.037 296.509,42.412C295.408,42.514 294.307,42.616 293.206,42.718C291.859,39.271 291.555,39.07 291.269,38.88C288.862,37.283 278.573,48.005 285.454,45.152C288.167,44.028 289.108,45.549 287.664,46.627C283.724,49.566 283.006,54.329 281.987,57.58L282.083,59.068C280.316,60.311 279.116,59.98 279.944,61.357C280.298,61.946 280.351,61.747 282.547,62.427C284.316,62.975 281.437,64.762 283.548,66.449C283.707,66.577 283.947,66.608 284.07,66.771C285.916,69.222 283.667,70.152 286.832,74.334C285.81,76.643 284.954,76.581 286.059,80.572C286.835,82.296 286.752,82.238 288.043,83.696C287.655,84.363 285.836,87.491 288.843,93.303C293.647,102.589 290.498,103.975 296.527,112.479C306.266,126.219 303.586,128.921 307.479,129.597C319.689,131.716 319.416,132.551 326.75,137.182C331.888,140.426 331.009,132.947 347.449,130.057C352.298,129.204 351.911,128.249 353.895,123.674C358.87,112.207 362.164,113.752 364.983,101.573C366.683,94.231 370.703,92.49 370.202,85.528C369.862,80.806 373.1,80.583 370.605,76.566L370.908,75.819C373.73,70.428 372.805,70.15 373.712,66.551C373.929,65.689 376.451,66.193 376.33,64.483C375.853,57.759 373.183,55.637 375.614,55.889C377.934,56.13 377.58,52.662 371.736,49.096C369.196,47.545 371.581,47.207 374.315,46.134C375.05,46.645 375.785,47.156 376.52,47.667C374.619,49.83 380.992,51.582 380.351,60.474C380.315,60.973 379.249,60.673 378.811,66.528C378.395,72.08 375.988,71.231 374.873,76.591C372.487,88.056 372.531,88.706 375.309,90.754C378.943,93.433 380.035,115.747 367.395,122.333C365.747,123.193 366.035,129.381 364.549,133.516C362.167,140.143 360.988,140.165 362.876,160.447C362.694,160.714 363.152,161.143 362.97,161.41C360.453,165.095 360.073,158.855 360.053,158.528C359.483,153.761 358.842,152.023 359.409,132.484C361.195,133.921 361.147,134.098 361.333,134.032C362.043,133.78 362.475,131.728 362.52,131.51C362.653,130.881 362.698,130.235 362.83,129.605C364.097,120.41 364.266,113.777 366.235,114.903C367.07,115.381 365.78,121.926 369.235,118.241C377.263,109.679 375.446,82.467 370.75,95.535C369.433,96.926 369.364,96.808 368.382,98.413C365.894,106.095 367.409,107.389 361.322,115.36C354.104,124.814 356.145,130.847 349.45,132.038C336.252,134.385 336.791,135.834 330.263,140.183C326.38,142.77 325.258,134.698 308.425,131.997C300.271,130.688 304.336,126.006 293.628,112.408C290.416,108.329 291.64,107.815 288.496,97.504C287.708,96.316 287.769,96.358 286.676,95.471C284.244,87.7 277.599,98.648 286.82,116.322C288.778,120.076 290.766,119.595 290.64,117.514C290.208,110.404 293.026,117.382 293.045,117.573C293.168,118.846 294.559,133.169 295.613,133.344C295.848,133.382 295.775,133.203 297.854,131.395C297.704,145.581 298.225,145.502 297.043,159.576C296.792,161.781 296.994,161.738 297.968,163.664C285.179,180.372 270.366,180.682 247.764,194.938C241.273,199.031 241.12,198.765 233.504,199.538C197.37,203.207 180.21,238.881 179.53,269.492C179.716,270.087 179.901,270.682 180.086,271.277C176.943,275.776 158.57,298.826 154.047,326.336C152.896,324.971 152.892,323.625 151.933,324.913C151.63,325.32 151.667,325.324 149.123,330.243C135.035,352.105 123.986,347.648 103.783,403.599C90.844,439.431 83.556,446.579 77.245,466.417C75.551,471.743 64.644,495.349 62.139,501.414C62.04,501.99 60.035,521.768 59.856,523.539C59.708,524.998 59.265,529.362 63.458,541.516C64.888,545.661 69.892,551.981 70.554,552.818C68.35,553.357 67.702,554.558 66.816,552.411C66.328,551.228 67.147,550.403 65.865,550.5C65.146,550.555 64.771,551.625 64.053,551.68C58.056,533.183 56.176,530.892 57.698,520.528C59.648,507.248 56.727,506.651 62.206,494.37C74.428,466.973 73.281,466.543 78.626,453.558C81.887,445.637 84.296,446.706 103.169,397.382C123.731,343.643 134.305,349.991 147.111,328.27C157.442,310.748 153.786,303.468 174.05,275.142C180.714,265.826 173.026,263.265 184.383,234.453C189.573,221.286 204.718,203.407 222.585,198.824C235.308,195.561 236.518,199.19 245.771,192.891C260.621,182.781 292.363,172.823 293.857,162.578C296.732,142.871 295.201,142.794 290.69,123.41C290.314,121.794 284.315,122.564 280.185,106.584C279.914,105.537 277.542,93.297 282.528,90.544C286.26,88.483 284.335,87.106 282.852,78.443C282.63,77.148 282.541,75.832 282.325,74.535C282.041,72.82 278.637,71.863 279.21,67.469C279.538,64.949 279.754,64.654 277.672,63.224C274.659,61.154 274.002,59.323 277.51,58.534C279.745,58.032 281.197,52.022 281.019,51.534C280.626,50.452 277.445,48.993 282.442,41.46C285.579,36.731 289.575,38.327 288.906,33.452C288.363,29.496 290.074,20.37 292.945,25.219C296.66,31.495 308.554,24.083 308.589,23.517C308.696,21.771 308.097,14.271 312.84,19.218C316.656,23.198 322.682,21.848 323.539,21.657C332.234,19.709 332.839,19.897 340.376,23.944Z" style="fill:rgb(91,96,114);"/>
        </g>
        <g transform="matrix(2.527344,0,0,2.527344,0,0)">
            <path d="M340.459,19.385C346.501,21.712 347.771,23.088 351.174,28.683C353.769,37.195 353.464,37.539 349.393,45.479C349.42,45.882 348.782,46.139 348.81,46.542C348.817,46.648 350.331,47.509 350.44,47.466C350.696,47.365 350.277,46.748 350.533,46.647C350.903,46.329 351.274,46.012 351.644,45.694C352.132,45.878 352.034,45.302 352.559,45.5C353.237,45.755 352.851,46.152 353.491,46.388C353.953,46.558 355.6,44.917 355.758,44.76C359.776,38.532 358.617,35.321 357.524,32.494C356.287,30.702 356.146,30.745 356.191,30.562C356.44,29.545 357.398,30.334 357.66,29.264C363.206,35.362 362.41,35.885 362.647,41.462C362.662,41.799 364.515,43.638 365.705,38.562C366.406,35.567 365.246,35.548 365.734,32.55C366.217,29.584 369.961,36.788 368.096,43.404C367.113,46.892 369.515,44.958 371.535,44.82C374.323,44.629 373.893,45.565 374.315,46.134C371.581,47.207 369.196,47.545 371.736,49.096C377.58,52.662 377.934,56.13 375.614,55.889C373.183,55.637 375.853,57.759 376.33,64.483C376.451,66.193 373.929,65.689 373.712,66.551C372.805,70.15 373.73,70.428 370.908,75.819C369.227,74.965 368.813,74.031 367.875,75.706C367.785,75.866 367.808,75.863 366.977,77.827C365.383,80.813 365.593,80.874 363.319,83.33L362.327,82.563C364.303,77.127 363.907,67.249 362.28,70.16C360.335,73.642 360.163,73.457 357.519,76.521C357.215,75.738 356.748,76.215 356.462,75.479C356.44,75.42 356.429,75.392 356.846,74.787C357.421,73.953 360.982,68.788 358.711,62.252C355.806,53.891 359.413,65.993 354.183,76.293C352.775,78.649 351.539,79.316 351.396,79.452C351.067,78.82 350.739,78.188 350.41,77.556C350.963,76.917 357.703,75.224 349.706,56.341C349.596,56.079 347.641,51.464 346.657,54.512C346.42,55.247 356.072,66.956 340.657,80.958C340.804,79.088 340.37,79.062 341.268,77.397C349.141,62.8 337.102,48.334 340.172,57.505C343.37,67.057 341.333,71.348 339.764,75.652C339.597,75.635 337.746,73.631 334.536,78.529C330.783,84.255 331.059,84.333 329.276,89.28C327.585,86.997 327.863,86.955 326.51,84.495C326.866,82.578 326.434,80.841 326.357,80.533C323.408,68.664 330.732,63.35 334.165,59.214C337.284,55.456 335.813,54.702 338.507,50.541C339.514,49.96 347.365,45.422 345.137,37.608C343.185,30.761 343.153,40.15 343.152,40.426C343.139,44.559 340.176,48.535 340.246,45.534C340.257,45.063 342.945,34.911 332.604,29.282C325.498,25.415 321.41,28.801 322.676,29.203C324.438,29.761 332.902,28.285 335.771,36.373C337.962,42.551 338.963,42.559 337.384,49.509C333.205,52.5 335.678,54.276 332.137,58.164C324.323,66.744 324.615,67.173 323.796,74.594C323.705,75.414 323.59,75.491 323.525,75.534C322.991,75.892 322.953,75.158 322.376,75.544C321.633,67.109 323.069,67.31 324.544,63.511C324.6,63.365 325.469,59.132 322.749,62.753C322.539,63.034 322.597,63.04 320.689,66.628C319.948,66.881 319.208,67.134 318.467,67.387C314.142,71.511 317.619,73.087 314.749,78.255C313.389,73.946 313.017,74.071 313.15,69.509C313.376,61.804 318.82,60.774 314.22,57.325C323.797,45.989 326.038,49.96 334.424,49.066C335.308,47.752 337.093,47.03 335.556,47.383C334.739,47.57 335.216,48.217 334.392,48.406C328.768,45.87 327.769,45.677 321.611,47.849C319.577,47.11 319.678,46.676 317.497,47.048C313.159,48.05 309.304,50.023 301.614,47.154C294.625,44.547 296.536,42.628 296.509,42.412C297.7,43.037 300.279,44.802 302.547,44.885C308.419,45.102 308.48,43.99 308.507,43.501C308.555,42.625 308.419,42.549 307.491,42.531C305.869,42.499 290.209,42.188 291.21,30.452C291.567,26.271 294.434,32.112 301.569,29.697C306.958,27.874 306.906,27.167 312.505,28.142C312.804,28.195 313.71,27.84 311.573,24.46C310.257,22.38 311.165,21.043 312.621,22.222C322.522,30.241 326.434,17.431 340.407,26.615C343.053,29.154 343.186,28.977 344.777,32.26C345.357,32.284 344.919,32.914 345.5,32.939C345.573,32.942 345.837,32.953 346.163,32.318C346.297,32.056 346.133,31.702 346.268,31.439C344.63,24.813 344.399,24.944 340.459,19.385Z" style="fill:rgb(230,233,238);"/>
        </g>
        <g transform="matrix(2.527344,0,0,2.527344,0,0)">
            <path d="M393.821,877.421C396.778,881.979 396.353,882.144 397.797,887.406C397.423,888.575 396.306,888.258 396.84,890.4C409.824,942.498 401.245,964.508 401.522,969.51C401.529,969.651 402.04,969.111 402.865,970.664C403.124,971.15 402.336,971.043 402.598,971.535C401.321,973.897 401.354,973.862 399.203,975.433C400.124,963.224 400.259,963.13 397.51,954.497C393.046,940.477 403.611,939.967 398.316,909.532C393.333,880.887 392.194,880.939 392.831,878.5C392.954,878.028 393.697,877.893 393.821,877.421Z" style="fill:rgb(226,230,234);"/>
        </g>
        <g transform="matrix(2.527344,0,0,2.527344,0,0)">
            <path d="M418.325,954.525C420.506,966.696 421.05,966.506 424.04,978.524C427.576,992.736 415.312,966.827 414.82,941.489C414.186,908.854 424.557,839.684 428.178,846.593C428.266,846.76 412.851,914.518 418.325,954.525Z" style="fill:rgb(137,140,149);"/>
        </g>
        <g transform="matrix(2.527344,0,0,2.527344,0,0)">
            <path d="M234.358,980.309C234.042,980.32 233.816,980.702 233.5,980.713C230.593,980.815 240.699,966.46 240.193,935.503C239.448,889.841 229.291,847.553 229.281,847.437C227.612,827.992 243.693,891.854 242.314,944.498C241.979,957.288 236.964,976.332 234.358,980.309Z" style="fill:rgb(137,139,149);"/>
        </g>
        <g transform="matrix(2.527344,0,0,2.527344,0,0)">
            <path d="M368.489,652.503C378.038,685.533 380.275,740.37 375.959,729.264C374.687,725.99 377.858,725.695 372.812,685.469C368.956,654.735 356.325,620.807 356.776,598.563C356.807,597.052 358.482,597.196 358.711,598.37C360.231,606.151 357.294,607.176 368.489,652.503Z" style="fill:rgb(148,152,160);"/>
        </g>
        <g transform="matrix(2.527344,0,0,2.527344,0,0)">
            <path d="M279.799,731.281C278.526,723.411 280.266,688.362 284.122,673.38C284.629,671.408 284.536,671.403 289.636,648.53C292.343,636.388 292.418,636.497 295.153,624.399C297.189,615.391 298.991,588.777 300.431,598.52C300.917,601.806 298.276,627.031 288.641,661.553C282.682,682.9 281.557,723.098 281.407,728.482C281.352,730.42 281.772,731.129 279.799,731.281Z" style="fill:rgb(143,147,156);"/>
        </g>
        <g transform="matrix(2.527344,0,0,2.527344,0,0)">
            <path d="M393.572,663.482C389.501,645.431 386.914,625.474 387.63,624.577C390.037,621.562 390.054,633.545 390.873,637.363C390.957,637.751 396.829,676.595 406.13,696.67C419.474,725.469 420.388,724.984 421.533,727.491C422.336,729.249 420.442,729.925 419.292,727.653C411.031,711.325 402.008,700.424 393.572,663.482Z" style="fill:rgb(136,140,149);"/>
        </g>
        <g transform="matrix(2.527344,0,0,2.527344,0,0)">
            <path d="M256.614,681.537C264.809,657.289 267.138,624.383 268.454,624.299C271.035,624.135 270.138,625.961 265.144,656.452C258.99,694.025 237.892,727.687 237.328,728.321C226.519,740.466 245.561,715.606 256.614,681.537Z" style="fill:rgb(130,134,144);"/>
        </g>
        <g transform="matrix(2.527344,0,0,2.527344,0,0)">
            <path d="M340.459,19.385C338.908,19.523 338.973,19.472 337.558,20.21C337.234,20.123 325.037,16.833 335.502,16.562C347.7,16.245 345.738,22.302 355.35,24.96C358.388,25.8 362.229,31.496 362.689,32.179C363.106,32.375 363.523,32.571 363.939,32.767C363.277,26.286 356.785,22.865 361.499,24.51C362.407,24.827 370.434,28.968 371.019,37.533C371.275,41.284 370.157,42.346 372.473,42.663C373.168,42.759 380.546,43.77 379.717,47.609C379.482,48.698 379.079,48.073 376.52,47.667C375.785,47.156 375.05,46.645 374.315,46.134C373.893,45.565 374.323,44.629 371.535,44.82C369.515,44.958 367.113,46.892 368.096,43.404C369.961,36.788 366.217,29.584 365.734,32.55C365.246,35.548 366.406,35.567 365.705,38.562C364.515,43.638 362.662,41.799 362.647,41.462C362.41,35.885 363.206,35.362 357.66,29.264C355.68,27.943 355.785,27.837 353.411,27.375C352.666,27.811 351.92,28.247 351.174,28.683C347.771,23.088 346.501,21.712 340.459,19.385Z" style="fill:rgb(89,95,113);"/>
        </g>
        <g transform="matrix(2.527344,0,0,2.527344,0,0)">
            <path d="M252.027,577.507C233.264,622.622 239.813,685.1 234.986,675.343C234.914,675.197 235.694,648.947 235.793,647.513C238.371,609.982 248.062,576.589 250.683,576.829C250.803,576.84 250.782,576.879 252.027,577.507Z" style="fill:rgb(144,148,156);"/>
        </g>
        <g transform="matrix(2.527344,0,0,2.527344,0,0)">
            <path d="M420.882,676.203C419.153,667.514 420.949,629.831 409.357,588.559C408.877,586.85 403.8,576.486 406.485,576.551C406.975,576.562 413.395,588.898 417.188,613.547C417.921,618.305 422.962,651.058 422.449,673.495C422.444,673.713 422.391,676.039 422.084,676.2C421.729,676.386 421.237,676.017 420.882,676.203Z" style="fill:rgb(142,145,154);"/>
        </g>
        <g transform="matrix(2.527344,0,0,2.527344,0,0)">
            <path d="M502.516,401.478C534.977,431.154 542.587,424.222 564.856,462.25C567.83,467.329 571.856,465.532 572.453,465.265C576.432,463.489 573.227,468.88 569.56,468.009C558.732,465.437 562.569,447.246 522.173,419.992C511.277,412.641 501.478,403.206 501.526,402.511C501.558,402.035 502.483,401.954 502.516,401.478Z" style="fill:rgb(150,154,161);"/>
        </g>
        <g transform="matrix(2.527344,0,0,2.527344,0,0)">
            <path d="M153.558,402.587C153.737,403.039 154.533,403.03 154.711,403.483C156.051,406.875 114.131,431.554 105.605,445.571C102.482,450.706 101.626,450.099 95.59,460.56C95.047,461.5 88.361,473.088 83.413,466.557C82.632,465.527 82.519,463.511 84.625,465.066C93.105,471.325 94.286,445.766 123.033,426.158C137.258,416.455 151.208,404.586 153.558,402.587Z" style="fill:rgb(149,153,159);"/>
        </g>
        <g transform="matrix(2.527344,0,0,2.527344,0,0)">
            <path d="M326.372,262.501C326.381,266.254 326.49,307.561 324.361,309.365C319.668,313.342 326.128,305.84 323.317,232.483C323.302,232.079 323.002,224.26 325.067,227.736C325.893,229.126 326.332,259.718 326.372,262.501Z" style="fill:rgb(145,149,158);"/>
        </g>
        <g transform="matrix(2.527344,0,0,2.527344,0,0)">
            <path d="M330.625,263.5C330.658,260.705 331.012,230.9 331.767,228.583C334.641,219.756 333.122,246.64 332.942,258.507C332.486,288.579 334.257,299.71 334.444,307.492C334.508,310.17 332.719,309.597 332.617,308.467C330.428,284.097 330.605,275.266 330.625,263.5Z" style="fill:rgb(148,152,161);"/>
        </g>
        <g transform="matrix(2.527344,0,0,2.527344,0,0)">
            <path d="M345.425,333.244C345.262,332.886 344.676,332.853 344.513,332.496C343.967,331.299 350.515,322.126 357.692,307.584C379.708,262.981 370.018,258.977 373.63,256.71C374.163,256.376 375.332,256.614 374.669,264.498C372.303,292.612 346.64,331.869 345.425,333.244Z" style="fill:rgb(133,137,147);"/>
        </g>
        <g transform="matrix(2.527344,0,0,2.527344,0,0)">
            <path d="M282.496,256.492C282.739,256.679 283.167,256.409 283.41,256.596C283.807,256.901 284.578,265.375 284.598,265.471C290.225,291.69 293.14,296.068 305.356,318.567C312.279,331.316 313.759,333.222 311.429,332.772C309.92,332.481 280.35,282.779 282.019,258.094C282.178,257.56 282.337,257.026 282.496,256.492Z" style="fill:rgb(134,138,147);"/>
        </g>
        <g transform="matrix(2.527344,0,0,2.527344,0,0)">
            <path d="M397.797,887.406C412.353,935.342 404.352,965.026 402.598,971.535C402.336,971.043 403.124,971.15 402.865,970.664C402.04,969.111 401.529,969.651 401.522,969.51C401.245,964.508 409.824,942.498 396.84,890.4C396.306,888.258 397.423,888.575 397.797,887.406Z" style="fill:rgb(124,127,138);"/>
        </g>
        <g transform="matrix(2.527344,0,0,2.527344,0,0)">
            <path d="M259.368,887.466C259.57,888.053 260.626,888.034 260.828,888.621C260.846,888.671 255.989,906.994 253.935,928.566C251.841,950.573 255.801,967.518 255.624,968.512C255.523,969.072 254.391,969.021 254.291,969.581C247.255,938.086 252.632,915.054 259.368,887.466Z" style="fill:rgb(126,129,140);"/>
        </g>
        <g transform="matrix(2.527344,0,0,2.527344,0,0)">
            <path d="M326.246,437.833C325.136,431.91 320.587,407.641 324.619,362.523C324.654,362.129 325.159,356.484 326.775,358.07C327.987,359.26 325.736,360.681 325.448,393.498C325.219,419.579 326.78,419.444 327.574,436.515C327.647,438.083 326.281,437.799 326.246,437.833Z" style="fill:rgb(153,157,165);"/>
        </g>
        <g transform="matrix(2.527344,0,0,2.527344,0,0)">
            <path d="M331.103,438.28C330.567,437.269 329.605,437.729 329.629,435.499C329.632,435.262 329.646,433.988 329.784,432.536C334.216,385.74 329.318,368.638 330.418,359.463C331.167,353.21 332.98,362.863 333.301,376.51C334.459,425.674 331.217,437.523 331.103,438.28Z" style="fill:rgb(159,163,170);"/>
        </g>
        <g transform="matrix(2.527344,0,0,2.527344,0,0)">
            <path d="M330.652,534.332C330.785,534.633 335.129,550.597 355.47,555.617C374.355,560.278 383.929,555.869 388.503,554.705C388.662,554.664 393.267,555.286 388.688,556.744C353.682,567.886 332.536,548.309 329.813,537.413C329.145,534.739 330.451,535.072 330.652,534.332Z" style="fill:rgb(100,105,119);"/>
        </g>
        <g transform="matrix(2.527344,0,0,2.527344,0,0)">
            <path d="M326.575,534.566C327.114,535.54 329.263,539.425 321.538,547.535C321.028,548.07 316.211,552.653 310.398,555.264C281.993,568.018 253.744,550.244 270.507,555.199C300.756,564.14 320.649,547.294 323.255,541.329C323.746,540.204 326.305,535.105 326.575,534.566Z" style="fill:rgb(100,105,119);"/>
        </g>
        <g transform="matrix(2.527344,0,0,2.527344,0,0)">
            <path d="M62.139,501.414C62.77,501.398 63.06,502.516 63.691,502.5C64.179,502.488 64.174,501.587 64.602,501.352C65.168,501.042 65.247,502.428 65.253,502.536C65.424,505.553 64.738,505.441 64.723,508.474C64.498,509.002 63.361,508.61 63.136,509.137C61.828,512.203 63.031,512.265 62.805,515.513C61.937,527.992 62.303,528.137 68.42,543.535C69.049,545.118 76.074,547.509 70.554,552.818C69.892,551.981 64.888,545.661 63.458,541.516C59.265,529.362 59.708,524.998 59.856,523.539C60.035,521.768 62.04,501.99 62.139,501.414Z" style="fill:rgb(225,229,234);"/>
        </g>
        <g transform="matrix(2.527344,0,0,2.527344,0,0)">
            <path d="M218.368,259.113C205.79,262.001 205.445,260.603 193.502,265.621C190.851,266.736 191.88,264.476 192.87,263.897C207.55,255.313 221.044,264.675 241.491,238.492C241.976,237.871 248.316,229.753 249.304,232.502C249.493,233.027 239.402,244.493 238.509,245.508C231.146,253.874 220.167,258.376 218.368,259.113Z" style="fill:rgb(120,125,135);"/>
        </g>
        <g transform="matrix(2.527344,0,0,2.527344,0,0)">
            <path d="M438.366,258.848C426.732,254.075 426.487,253.963 407.992,233.179C404.195,228.912 412.317,233.209 415.636,238.389C429.148,259.476 453.487,258.314 462.783,263.235C466.751,265.336 462.615,265.304 462.538,265.276C450.742,260.899 450.402,262.407 438.366,258.848Z" style="fill:rgb(121,126,136);"/>
        </g>
        <g transform="matrix(2.527344,0,0,2.527344,0,0)">
            <path d="M136.315,362.273C136.574,362.783 137.256,362.99 137.514,363.5C139.702,367.813 112.628,399.177 104.567,415.545C103.174,418.374 100.784,420.705 101.295,417.498C101.818,414.223 120.231,386.345 128.592,376.582C130.722,374.093 133.449,368.372 133.805,367.623C134.312,366.56 135.264,365.661 135.456,364.5C135.533,364.039 134.416,363.946 134.492,363.485C135.1,363.081 135.708,362.677 136.315,362.273Z" style="fill:rgb(138,142,150);"/>
        </g>
        <g transform="matrix(2.527344,0,0,2.527344,0,0)">
            <path d="M520.747,362.233C521.348,362.627 521.948,363.021 522.549,363.415C521.858,365.112 521.73,365.105 521.805,365.244C522.385,366.322 522.413,366.218 522.917,367.26C526.826,375.351 555.773,412.112 555.805,417.617C555.831,422.178 549.767,410.228 546.217,404.735C536.557,389.79 517.796,367.374 519.642,363.482C519.88,362.98 520.509,362.735 520.747,362.233Z" style="fill:rgb(139,142,151);"/>
        </g>
        <g transform="matrix(2.527344,0,0,2.527344,0,0)">
            <path d="M595.835,507.486C596.958,526.326 599.6,530.859 590.502,547.501C588.929,549.999 588.83,549.829 587.515,552.548C587,552.441 582.73,551.559 585.242,546.375C585.883,545.055 587.755,546.353 589.246,542.41C594.163,529.404 595.02,529.421 594.302,515.506C594.273,514.945 593.951,508.692 594.126,508.488C594.557,507.987 595.405,507.987 595.835,507.486Z" style="fill:rgb(232,236,240);"/>
        </g>
        <g transform="matrix(2.527344,0,0,2.527344,0,0)">
            <path d="M350.41,77.556C350.739,78.188 351.067,78.82 351.396,79.452C351.459,80.173 350.667,79.803 350.727,80.501C350.736,80.594 350.774,81.039 351.559,81.32C351.851,81.425 352.178,81.021 352.471,81.126C352.516,81.965 352.561,82.805 352.606,83.644L352.296,84.168C347.21,93.613 343.568,95.211 344.122,92.551C344.542,90.538 345.339,83.424 342.727,87.686C341.966,87.566 341.206,87.447 340.445,87.328L339.795,87.642C339.316,86.826 338.837,86.011 338.358,85.195L338.66,84.929C351.71,75.812 348.163,72.96 350.637,69.599C353.194,66.125 350.453,77.276 350.41,77.556Z" style="fill:rgb(230,233,237);"/>
        </g>
        <g transform="matrix(2.527344,0,0,2.527344,0,0)">
            <path d="M230.786,294.287C230.721,293.784 229.914,292.81 231.381,293.239C233.033,293.723 232.948,293.71 234.441,294.618C264.989,313.183 277.244,294.186 283.611,290.736C283.809,290.628 286.516,290.723 283.567,293.552C270.391,306.188 255.149,304.603 252.535,304.331C246.243,303.677 234.369,297.902 230.786,294.287Z" style="fill:rgb(127,131,140);"/>
        </g>
        <g transform="matrix(2.527344,0,0,2.527344,0,0)">
            <path d="M400.501,302.536C416.144,301.075 420.839,294.939 424.505,293.522C428.508,291.975 425.536,295.742 421.216,298.115C397.789,310.986 385.061,302.483 375.157,294.763C371.098,291.599 373.131,290.531 373.423,290.726C382.091,296.52 382.273,301.179 400.501,302.536Z" style="fill:rgb(131,135,144);"/>
        </g>
        <g transform="matrix(2.527344,0,0,2.527344,0,0)">
            <path d="M370.908,75.819L370.605,76.566C370.589,76.579 369.914,76.258 369.163,78.151C369.097,78.709 368.387,79.054 368.321,79.613C368.261,80.124 369.884,81.284 363.199,86.016C357.72,89.894 352.623,96.304 355.95,90.536C357.994,86.992 358.244,87.233 359.846,83.498C360.494,81.471 360.462,81.457 359.531,79.514C359.747,79.201 363.134,74.289 361.483,75.19C359.447,76.301 360.188,78.45 352.471,81.126C352.178,81.021 351.851,81.425 351.559,81.32C350.774,81.039 350.736,80.594 350.727,80.501C350.667,79.803 351.459,80.173 351.396,79.452C351.539,79.316 352.775,78.649 354.183,76.293C354.742,76.534 354.919,77.34 355.478,77.582C355.478,77.582 357.355,76.606 357.519,76.521C360.163,73.457 360.335,73.642 362.28,70.16C363.907,67.249 364.303,77.127 362.327,82.563C362.438,83.172 361.665,82.829 361.773,83.427C361.958,84.443 362.327,83.392 363.319,83.33C365.593,80.874 365.383,80.813 366.977,77.827C367.808,75.863 367.785,75.866 367.875,75.706C368.813,74.031 369.227,74.965 370.908,75.819Z" style="fill:rgb(129,133,145);"/>
        </g>
        <g transform="matrix(2.527344,0,0,2.527344,0,0)">
            <path d="M508.424,374.095C503.184,375.494 502.125,375.693 501.57,375.797C494.767,377.076 489.664,367.825 489.997,366.578C490.559,364.473 493.121,368.724 494.499,370.501C500.753,378.564 508.774,367.152 512.341,374.603C516.167,382.598 515.336,383.003 523.907,395.386C527.963,401.245 522.044,396.196 521.935,396.069C513.905,386.715 515.025,386.041 510.086,374.717C509.532,374.51 508.978,374.303 508.424,374.095Z" style="fill:rgb(135,139,147);"/>
        </g>
        <g transform="matrix(2.527344,0,0,2.527344,0,0)">
            <path d="M402.375,731.471C398.589,756.795 404.535,766.922 400.745,765.163C398.997,764.352 394.979,724.046 408.477,718.226C413.997,715.846 406.148,721.453 403.656,727.555C403.531,727.86 403.561,727.845 402.375,731.471Z" style="fill:rgb(142,146,156);"/>
        </g>
        <g transform="matrix(2.527344,0,0,2.527344,0,0)">
            <path d="M337.384,49.509C338.963,42.559 337.962,42.551 335.771,36.373C332.902,28.285 324.438,29.761 322.676,29.203C321.41,28.801 325.498,25.415 332.604,29.282C342.945,34.911 340.257,45.063 340.246,45.534C340.176,48.535 343.139,44.559 343.152,40.426C343.153,40.15 343.185,30.761 345.137,37.608C347.365,45.422 339.514,49.96 338.507,50.541C338.133,50.197 337.758,49.853 337.384,49.509Z" style="fill:rgb(132,136,148);"/>
        </g>
        <g transform="matrix(2.527344,0,0,2.527344,0,0)">
            <path d="M256.29,765.026C254.564,762.838 255.255,761.673 255.685,755.506C257.983,722.615 249.351,722.732 247.54,719.481C244.416,713.874 250.914,719.76 251.128,719.954C262.281,730.056 257.734,762.505 256.29,765.026Z" style="fill:rgb(138,142,152);"/>
        </g>
        <g transform="matrix(2.527344,0,0,2.527344,0,0)">
            <path d="M249.863,479.316C250.974,472.172 260.628,460.746 268.523,455.535C269.758,454.72 284.159,445.215 285.178,447.494C285.854,449.006 263.631,456.612 253.775,474.733C252.056,477.893 252.947,479.176 249.863,479.316Z" style="fill:rgb(135,139,146);"/>
        </g>
        <g transform="matrix(2.527344,0,0,2.527344,0,0)">
            <path d="M520.747,362.233C511.281,355.303 509.788,349.43 507.258,340.471C499.974,314.68 511.645,347.518 511.886,348.197C516.01,359.8 540.064,371.569 537.244,375.363C536.341,376.58 536.487,374.609 522.549,363.415C521.948,363.021 521.348,362.627 520.747,362.233Z" style="fill:rgb(129,133,142);"/>
        </g>
        <g transform="matrix(2.527344,0,0,2.527344,0,0)">
            <path d="M390.475,459.53C374.783,448.01 373.436,449.917 372.592,448.461C372.475,448.261 372.095,446.558 375.427,447.84C394.271,455.094 404.584,472.757 406.258,475.625C408.467,479.408 406.094,479.264 405.912,479.056C401.688,474.237 404.549,471.967 390.475,459.53Z" style="fill:rgb(132,137,145);"/>
        </g>
        <g transform="matrix(2.527344,0,0,2.527344,0,0)">
            <path d="M334.251,44.976C317.89,24.232 307.431,42.387 296.675,35.248C290.667,31.26 299.342,34.078 299.578,34.155C305.205,35.984 328.602,25.985 335.819,44.503L334.251,44.976Z" style="fill:rgb(109,113,126);"/>
        </g>
        <g transform="matrix(2.527344,0,0,2.527344,0,0)">
            <path d="M148.559,339.58L150.068,340.482C146.019,353.567 142.78,357.892 136.315,362.273C135.708,362.677 135.1,363.081 134.492,363.485C125.437,370.519 126.007,371.069 121.299,375.183C115.027,380.664 122.709,368.624 132.446,362.423C145.682,353.993 145.249,345.655 148.559,339.58Z" style="fill:rgb(125,129,139);"/>
        </g>
        <g transform="matrix(2.527344,0,0,2.527344,0,0)">
            <path d="M350.41,77.556C350.453,77.276 353.194,66.125 350.637,69.599C348.163,72.96 351.71,75.812 338.66,84.929C338.719,84.595 336.879,83.766 340.657,80.958C356.072,66.956 346.42,55.247 346.657,54.512C347.641,51.464 349.596,56.079 349.706,56.341C357.703,75.224 350.963,76.917 350.41,77.556Z" style="fill:rgb(109,113,126);"/>
        </g>
        <g transform="matrix(2.527344,0,0,2.527344,0,0)">
            <path d="M286.832,74.334C289.31,77.877 288.948,78.052 291.701,81.325C294.359,84.485 293.266,78.489 293.425,78.417C294.092,78.116 293.997,78.588 295.68,81.343C296.034,81.923 298.882,86.585 300.746,88.157C302.991,90.05 301.764,87.334 301.165,84.46C300.465,81.093 302.389,81.837 302.622,82.382C304.353,86.427 303.641,86.615 305.637,90.436C304.71,91.854 304.492,91.69 304.318,93.29C303.917,93.526 303.918,94.196 303.517,94.431C302.588,94.978 300.542,88.481 296.495,87.531C294.855,87.146 290.153,82.823 288.642,81.194C288.186,80.701 288.108,79.723 287.455,79.566C286.897,79.432 286.617,80.706 286.059,80.572C284.954,76.581 285.81,76.643 286.832,74.334Z" style="fill:rgb(134,138,149);"/>
        </g>
        <g transform="matrix(2.527344,0,0,2.527344,0,0)">
            <path d="M406.529,358.513C408.414,359.907 408.164,360.164 407.801,362.472C407.383,362.558 406.955,362.177 406.536,362.263C406.128,362.347 397.604,378.104 393.234,384.323C386.035,394.568 386.326,394.79 385.376,395.305C381.825,397.227 385.45,391.812 385.617,391.563C405.662,361.615 404.74,361.08 406.529,358.513Z" style="fill:rgb(123,127,138);"/>
        </g>
        <g transform="matrix(2.527344,0,0,2.527344,0,0)">
            <path d="M247.511,836.507C246.832,837.343 239.391,846.51 235.474,842.52C232.47,839.459 237.584,842.347 241.204,840.106C247.617,836.135 251.637,822.546 252.565,812.51C252.6,812.128 254.317,793.558 254.929,808.337C255.52,822.612 248.675,834.488 247.511,836.507Z" style="fill:rgb(139,142,151);"/>
        </g>
        <g transform="matrix(2.527344,0,0,2.527344,0,0)">
            <path d="M408.625,834.426C401.044,818.714 402.194,806.435 403.501,806.44C405.111,806.445 404.332,807.355 404.91,813.421C406.782,833.079 415.863,842.394 420.545,841.288C424.154,840.435 421.582,842.772 421.161,843.001C415.922,845.847 409.279,835.45 408.625,834.426Z" style="fill:rgb(147,151,159);"/>
        </g>
        <g transform="matrix(2.527344,0,0,2.527344,0,0)">
            <path d="M250.611,358.443C254.529,363.958 259.16,373.045 262.256,377.676C263.12,378.968 289.189,417.961 271.287,394.87C258.862,378.845 252.543,365.448 251.25,362.706C250.395,360.895 249.793,361.824 249.157,361.438C249.156,361.276 249.143,359.41 249.143,359.41C249.496,358.942 250.258,358.91 250.611,358.443Z" style="fill:rgb(120,125,135);"/>
        </g>
        <g transform="matrix(2.527344,0,0,2.527344,0,0)">
            <path d="M402.427,213.398C385.88,224.041 382.744,218.658 375.44,226.434C374.861,227.05 371.171,232.724 371.101,229.606C370.93,221.995 392.819,216.526 393.328,216.291C400.299,213.073 408.65,204.912 408.734,207.457C408.748,207.85 409.24,208.441 402.427,213.398Z" style="fill:rgb(140,145,152);"/>
        </g>
        <g transform="matrix(2.527344,0,0,2.527344,0,0)">
            <path d="M311.54,446.464C320.016,456.886 323.211,465.214 318.735,460.276C313.408,454.4 309.941,441.686 292.801,435.009C288.79,433.446 292.331,432.686 292.509,432.732C302.141,435.197 310.337,445.023 311.54,446.464Z" style="fill:rgb(130,134,143);"/>
        </g>
        <g transform="matrix(2.527344,0,0,2.527344,0,0)">
            <path d="M297.431,380.427C284.164,390.684 282.216,388.798 282.348,387.473C282.617,384.792 293.78,386.106 305.055,367.229C309.747,359.374 309.641,358.202 310.766,359.151C311.826,360.045 306.681,371.226 297.431,380.427Z" style="fill:rgb(135,139,146);"/>
        </g>
        <g transform="matrix(2.527344,0,0,2.527344,0,0)">
            <path d="M366.114,432.992C366.115,435.338 362.298,435.029 355.609,439.629C354.916,440.106 351.526,442.438 347.976,446.866C338.406,458.802 339.243,459.382 338.385,460.393C327.336,473.422 350.873,431.206 366.114,432.992Z" style="fill:rgb(131,135,144);"/>
        </g>
        <g transform="matrix(2.527344,0,0,2.527344,0,0)">
            <path d="M236.921,259.611C237.403,259.799 237.945,258.808 239.422,260.583C249.49,272.681 248.991,273.266 263.556,283.435C288.24,300.668 242.971,276.792 236.921,259.611Z" style="fill:rgb(136,139,148);"/>
        </g>
        <g transform="matrix(2.527344,0,0,2.527344,0,0)">
            <path d="M405.356,277.339C391.231,288.458 389.419,287.962 389.495,286.498C389.657,283.377 395.039,288.2 418.32,260.118C423.532,253.831 418.975,265.561 405.356,277.339Z" style="fill:rgb(138,142,150);"/>
        </g>
        <g transform="matrix(2.527344,0,0,2.527344,0,0)">
            <path d="M239.527,499.498C243.465,509.803 240.889,538.784 240.109,539.188C239.899,539.297 239.67,538.791 239.459,538.9L238.692,538.43C238.62,532.704 240.172,522.068 239.002,505.649C238.819,503.074 237.856,503.724 237.241,503.408C237.786,501.095 237.551,500.924 239.527,499.498Z" style="fill:rgb(141,146,154);"/>
        </g>
        <g transform="matrix(2.527344,0,0,2.527344,0,0)">
            <path d="M361.238,378.788C367.123,383.204 366.909,383.477 373.583,386.402C375.726,387.341 374.357,388.788 373.501,388.48C370.633,387.447 355.203,381.891 346.612,361.483C342.343,351.339 351.049,365.18 351.316,365.603C355.121,371.652 354.623,371.978 361.238,378.788Z" style="fill:rgb(130,134,143);"/>
        </g>
        <g transform="matrix(2.527344,0,0,2.527344,0,0)">
            <path d="M337.384,49.509C337.758,49.853 338.133,50.197 338.507,50.541C335.813,54.702 337.284,55.456 334.165,59.214C330.732,63.35 323.408,68.664 326.357,80.533C326.434,80.841 326.866,82.578 326.51,84.495C325.065,82.614 325.151,82.684 323.567,80.485C323.461,79.819 323.356,79.154 323.25,78.488L322.376,75.544C322.953,75.158 322.991,75.892 323.525,75.534C323.59,75.491 323.705,75.414 323.796,74.594C324.615,67.173 324.323,66.744 332.137,58.164C335.678,54.276 333.205,52.5 337.384,49.509Z" style="fill:rgb(149,152,162);"/>
        </g>
        <g transform="matrix(2.527344,0,0,2.527344,0,0)">
            <path d="M380.564,753.519C380.131,752.616 378.834,753.193 379.096,750.458C379.813,742.968 381.196,729.397 386.394,726.324C392.97,722.437 399.797,731.711 394.582,729.289C384.409,724.564 384.234,730.903 380.564,753.519Z" style="fill:rgb(133,138,147);"/>
        </g>
        <g transform="matrix(2.527344,0,0,2.527344,0,0)">
            <path d="M314.22,57.325C318.82,60.774 313.376,61.804 313.15,69.509C313.017,74.071 313.389,73.946 314.749,78.255C315.53,78.394 314.859,79.179 315.586,79.308C315.787,79.344 315.715,79.178 317.378,77.496C317.901,80.548 317.759,80.487 318.874,83.445C320.558,87.913 312.749,82.806 311.19,73.56C310.584,69.966 310.788,69.974 309.597,66.489C312.888,62.447 311.681,61.83 314.22,57.325Z" style="fill:rgb(149,152,164);"/>
        </g>
        <g transform="matrix(2.527344,0,0,2.527344,0,0)">
            <path d="M417.837,500.536C419.236,501.684 419.201,501.685 419.836,503.327C419.511,503.815 418.902,504.068 418.577,504.556C417.082,506.799 418.599,536.362 418.341,538.364L417.53,538.443C416.313,536.717 413.495,512.906 417.837,500.536Z" style="fill:rgb(128,133,141);"/>
        </g>
        <g transform="matrix(2.527344,0,0,2.527344,0,0)">
            <path d="M384.638,689.552L385.484,689.109C385.642,689.324 386.023,688.498 386.181,688.713C387.611,690.668 386.574,730.848 382.896,725.288C382.328,724.43 383.085,724.418 384.082,712.476C384.749,704.482 384.599,695.866 384.638,689.552Z" style="fill:rgb(155,158,167);"/>
        </g>
        <g transform="matrix(2.527344,0,0,2.527344,0,0)">
            <path d="M271.558,688.929C271.955,689.194 272.338,688.668 272.448,689.523C272.746,691.837 271.656,698.909 273.57,716.493C274.345,723.608 275.427,724.769 273.446,724.662C271.944,724.581 270.91,712.545 270.818,711.473C269.919,701.003 270.535,691.316 270.646,689.567C270.95,689.354 271.254,689.142 271.558,688.929Z" style="fill:rgb(147,151,159);"/>
        </g>
        <g transform="matrix(2.527344,0,0,2.527344,0,0)">
            <path d="M320.689,66.628C322.597,63.04 322.539,63.034 322.749,62.753C325.469,59.132 324.6,63.365 324.544,63.511C323.069,67.31 321.633,67.109 322.376,75.544L323.25,78.488C321.99,80.111 323.385,80.031 323.567,80.485C325.151,82.684 325.065,82.614 326.51,84.495C327.863,86.955 327.585,86.997 329.276,89.28C328.569,90.035 327.863,90.79 327.156,91.544C325.827,87.623 325.441,86.991 325.221,86.63C321.816,81.056 321.338,81.403 318.457,75.558C318.721,75.105 319.435,75.045 319.698,74.592C319.824,74.376 319.662,74.368 319.205,71.507C319.315,71.351 320.586,71.827 320.689,66.628Z" style="fill:rgb(155,158,166);"/>
        </g>
        <g transform="matrix(2.527344,0,0,2.527344,0,0)">
            <path d="M223.58,816.491C222.452,805.47 221.92,805.458 222.691,802.593C225.892,790.695 220.946,808.013 230.1,834.566C231.031,837.269 229.159,837.995 228.558,836.455C224.79,826.797 224.994,826.757 223.58,816.491Z" style="fill:rgb(156,159,166);"/>
        </g>
        <g transform="matrix(2.527344,0,0,2.527344,0,0)">
            <path d="M431.54,818.508C433.527,803.457 432.277,802.949 433.394,802.271C437.966,799.497 430.999,838.807 427.509,837.184C426.123,836.539 427.496,836.003 431.54,818.508Z" style="fill:rgb(149,153,161);"/>
        </g>
        <g transform="matrix(2.527344,0,0,2.527344,0,0)">
            <path d="M321.611,47.849C327.769,45.677 328.768,45.87 334.392,48.406L334.424,49.066C326.038,49.96 323.797,45.989 314.22,57.325C311.681,61.83 312.888,62.447 309.597,66.489C309.506,54.564 316.4,51.898 321.611,47.849Z" style="fill:rgb(115,119,132);"/>
        </g>
        <g transform="matrix(2.527344,0,0,2.527344,0,0)">
            <path d="M469.852,328.059C469.609,327.842 469.184,328.631 468.941,328.414C467.67,327.278 475.782,319.286 468.692,299.459C463.523,285.005 480.785,308.594 470.505,328.509L469.852,328.059Z" style="fill:rgb(131,135,145);"/>
        </g>
        <g transform="matrix(2.527344,0,0,2.527344,0,0)">
            <path d="M186.449,322.511C188.199,328.175 187.044,328.406 186.59,328.311C185.201,328.02 180.974,314.343 185.022,303.173C185.214,302.642 198.308,267.771 189.159,297.441C185.986,307.73 184,309.128 186.449,322.511Z" style="fill:rgb(124,129,139);"/>
        </g>
        <g transform="matrix(2.527344,0,0,2.527344,0,0)">
            <path d="M339.764,75.652C341.333,71.348 343.37,67.057 340.172,57.505C337.102,48.334 349.141,62.8 341.268,77.397C340.37,79.062 340.804,79.088 340.657,80.958C336.879,83.766 338.719,84.595 338.66,84.929L338.358,85.195C335.726,86.302 335.738,86.505 335.522,86.388C334.923,86.065 335.193,85.8 338.748,78.516C339.086,77.561 339.425,76.606 339.764,75.652Z" style="fill:rgb(135,139,149);"/>
        </g>
        <g transform="matrix(2.527344,0,0,2.527344,0,0)">
            <path d="M302.287,49.698C302.557,49.821 302.536,49.824 305.521,51.605C304.963,51.889 300.053,54.384 298.867,55.736C294.029,61.258 301.149,54.039 308.429,53.745C311.971,53.602 309.605,55.306 309.459,55.351C303.586,57.172 303.019,56.266 298.729,60.638C296.769,61.693 296.756,61.642 295.428,63.383L293.606,63.486C294.085,61.494 293.986,61.541 294.56,59.519C296.461,52.819 301.89,52.761 302.287,49.698Z" style="fill:rgb(139,142,153);"/>
        </g>
        <g transform="matrix(2.527344,0,0,2.527344,0,0)">
            <path d="M580.249,512.27L581.505,513.174C582.054,513.724 584.166,515.839 584.232,522.497C584.361,535.643 581.729,535.411 582.171,536.45C582.437,537.074 583.6,536.955 583.866,537.58C583.712,540.14 583.557,540.125 584.466,542.539C583.943,543.243 583.42,543.946 582.897,544.65C582.375,543.26 582.429,543.321 581.707,542.087C581.766,537.566 580.633,537.91 580.476,537.496C582.922,521.453 582.064,521.244 580.249,512.27Z" style="fill:rgb(192,196,205);"/>
        </g>
        <g transform="matrix(2.527344,0,0,2.527344,0,0)">
            <path d="M352.296,84.168C352.561,84.838 353.344,84.554 353.261,86.617C353.261,86.617 354.457,88.386 354.561,88.54C353.538,89.727 351.991,91.648 351.771,91.921C349.225,92.394 349.225,92.461 347.433,94.405C346.062,95.757 344.696,96.516 342.64,98.785L341.698,97.428C341.632,96.786 341.566,96.143 341.499,95.501L341.296,94.514L341.478,93.486L341.821,92.758C342.002,92.312 342.184,91.867 342.365,91.421C342.486,90.176 342.606,88.931 342.727,87.686C345.339,83.424 344.542,90.538 344.122,92.551C343.568,95.211 347.21,93.613 352.296,84.168Z" style="fill:rgb(126,129,142);"/>
        </g>
        <g transform="matrix(2.527344,0,0,2.527344,0,0)">
            <path d="M283.199,247.445C282.943,247.728 282.688,248.011 282.433,248.294C279.003,246.299 280.836,245.178 279.295,241.582C272.239,225.12 265.673,229.096 265.765,224.601C265.824,221.759 277.204,230.547 280.04,237.679C283.206,245.641 282.816,245.716 283.199,247.445Z" style="fill:rgb(136,140,148);"/>
        </g>
        <g transform="matrix(2.527344,0,0,2.527344,0,0)">
            <path d="M76.109,516.414C72.556,536.295 81.183,541.708 75.459,545.401C72.3,547.438 76.797,542.359 75.218,536.695C74.713,534.883 70.239,518.84 75.389,513.18C77.167,511.225 76.304,513.814 76.109,516.414Z" style="fill:rgb(220,224,231);"/>
        </g>
        <g transform="matrix(2.527344,0,0,2.527344,0,0)">
            <path d="M299.5,66.503C299.775,66.716 300.464,65.922 300.687,67.426C302.409,79.028 308.401,79.661 308.438,79.428C308.537,78.795 307.516,78.903 307.437,71.477L308.495,71.517L309.116,72.596C309.828,77.221 309.553,77.208 311.335,81.563C313.564,87.013 295.681,77.555 299.5,66.503Z" style="fill:rgb(115,119,132);"/>
        </g>
        <g transform="matrix(2.527344,0,0,2.527344,0,0)">
            <path d="M375.41,248.37C375.092,248.36 374.817,248.663 374.5,248.652C372.625,248.591 376.485,232.307 388.687,224.929C393.57,221.977 389.869,226.606 389.732,226.698C377.695,234.754 376.987,245.811 375.41,248.37Z" style="fill:rgb(133,136,145);"/>
        </g>
        <g transform="matrix(2.527344,0,0,2.527344,0,0)">
            <path d="M407.751,439.478C408.122,441.414 408.154,441.383 407.733,443.348C407.469,443.212 405.348,442.12 404.547,441.433C393.086,431.601 384.804,432.011 383.093,430.741C381.492,429.552 384.153,427.692 393.375,431.777C406.238,437.475 404.667,440.201 405.871,440.162C406.537,440.14 407.085,439.5 407.751,439.478Z" style="fill:rgb(132,137,147);"/>
        </g>
        <g transform="matrix(2.527344,0,0,2.527344,0,0)">
            <path d="M147.227,372.197C147.525,372.67 146.851,373.131 148.267,373.848C148.395,373.913 148.471,374.057 148.6,374.122C146.161,375.162 146.8,375.848 143.15,384.341C141.717,387.675 133.671,397.982 133.328,398.16C128.198,400.831 135.379,392.099 135.731,391.672C143.946,381.683 142.924,374.346 147.227,372.197Z" style="fill:rgb(144,148,156);"/>
        </g>
        <g transform="matrix(2.527344,0,0,2.527344,0,0)">
            <path d="M293.702,428.131C291.886,424.2 291.248,416.154 285.099,405.645C284.93,405.356 282.062,400.454 284.499,401.503C285.998,402.148 290.499,411.276 290.582,411.467C297.044,426.291 294.89,427.477 293.702,428.131Z" style="fill:rgb(136,140,149);"/>
        </g>
        <g transform="matrix(2.527344,0,0,2.527344,0,0)">
            <path d="M363.179,428.122C362.653,427.44 362.332,428.044 361.838,427.403C361.793,427.345 361.734,427.269 361.919,426.49C365.79,410.213 370.035,404.756 371.27,403.17C371.379,403.03 377.775,396.64 373.463,403.487C366.315,414.836 367.978,415.537 363.179,428.122Z" style="fill:rgb(133,137,146);"/>
        </g>
        <g transform="matrix(2.527344,0,0,2.527344,0,0)">
            <path d="M256.71,839.39C256.384,838.626 253.532,831.956 253.558,829.503C253.629,822.931 257.883,836.934 258.282,837.616C258.304,837.654 262.661,847.843 267.425,845.29C270.948,843.402 269.495,846.268 269.371,846.397C263.996,851.993 257.289,840.392 256.71,839.39Z" style="fill:rgb(140,144,153);"/>
        </g>
        <g transform="matrix(2.527344,0,0,2.527344,0,0)">
            <path d="M293.206,42.718C294.307,42.616 295.408,42.514 296.509,42.412C296.536,42.628 294.625,44.547 301.614,47.154C309.304,50.023 313.159,48.05 317.497,47.048C317.29,47.483 317.698,48.059 317.491,48.494C316.675,50.205 308.211,50.952 305.521,51.605C302.536,49.824 302.557,49.821 302.287,49.698C300.343,48.948 295.797,47.665 293.206,42.718Z" style="fill:rgb(101,105,120);"/>
        </g>
        <g transform="matrix(2.527344,0,0,2.527344,0,0)">
            <path d="M402.525,828.534C403.358,829.107 404.641,829.376 401.47,837.489C395.553,852.626 386.31,847.529 386.758,844.544C387.153,841.92 390.913,848.954 394.981,843.945C401.002,836.532 400.062,832.939 402.525,828.534Z" style="fill:rgb(137,140,149);"/>
        </g>
        <g transform="matrix(2.527344,0,0,2.527344,0,0)">
            <path d="M476.886,347.27C476.363,346.261 471.969,337.781 470.798,334.438C470.791,334.418 470.858,329.537 472.879,334.181C478.825,347.842 485.322,355.951 484.106,357.168C482.633,358.645 478.745,349.933 476.886,347.27Z" style="fill:rgb(155,158,166);"/>
        </g>
        <g transform="matrix(2.527344,0,0,2.527344,0,0)">
            <path d="M179.118,349.27C174.345,356.085 172.117,361.121 172.658,356.487C172.878,354.61 174.625,355.426 183.434,335.464C183.55,335.201 186.517,328.478 186.434,333.498C186.405,335.299 179.761,348.036 179.118,349.27Z" style="fill:rgb(153,156,164);"/>
        </g>
        <g transform="matrix(2.527344,0,0,2.527344,0,0)">
            <path d="M331.724,164.569L332.369,164.096C332.583,164.311 332.994,163.529 333.208,163.744C333.31,163.846 334.511,169.288 337.394,178.542C337.53,178.979 342.206,188.824 340.207,190.131C338.692,191.121 338.808,186.514 336.67,182.413C334.983,179.174 332.089,168.82 331.724,164.569Z" style="fill:rgb(150,152,161);"/>
        </g>
        <g transform="matrix(2.527344,0,0,2.527344,0,0)">
            <path d="M339.764,75.652C339.425,76.606 339.086,77.561 338.748,78.516C338.262,78.549 338.073,77.595 337.587,77.628C337.13,77.659 330.718,87.271 330.269,94.479C329.651,104.396 327.227,91.879 327.156,91.544C327.863,90.79 328.569,90.035 329.276,89.28C331.059,84.333 330.783,84.255 334.536,78.529C337.746,73.631 339.597,75.635 339.764,75.652Z" style="fill:rgb(130,133,144);"/>
        </g>
        <g transform="matrix(2.527344,0,0,2.527344,0,0)">
            <path d="M317.979,182.738C320.692,175.206 320.919,175.38 322.766,167.585C323.369,165.038 323.682,163.003 325.134,164.637C325.98,165.59 322.273,178.35 320.533,182.515C317.498,189.778 318.047,190.117 317.413,190.347C316.839,190.555 315.583,190.122 317.979,182.738Z" style="fill:rgb(141,144,154);"/>
        </g>
        <g transform="matrix(2.527344,0,0,2.527344,0,0)">
            <path d="M251.876,441.957C251.759,440.93 250.258,439.929 255.488,436.484C256.791,435.625 267.854,428.336 273.614,429.273C282.3,430.685 269.784,429.39 256.506,438.51C256.125,438.771 254.904,439.61 251.876,441.957Z" style="fill:rgb(122,127,136);"/>
        </g>
        <g transform="matrix(2.527344,0,0,2.527344,0,0)">
            <path d="M371.126,56.632C372.89,64.131 372.131,64.542 371.507,64.475C371.172,64.439 367.077,55.1 368.117,61.437C369.073,67.256 368.739,67.259 366.83,72.801C366.648,72.434 365.846,72.781 365.665,72.414C365.021,71.114 367.697,66.987 365.156,57.564C364.645,55.668 365.857,55.481 367.376,56.79C367.898,57.24 367.906,57.106 368.51,57.465C369.811,56.841 369.736,56.953 371.126,56.632Z" style="fill:rgb(134,137,148);"/>
        </g>
        <g transform="matrix(2.527344,0,0,2.527344,0,0)">
            <path d="M339.795,87.642L340.445,87.328C340.688,88.5 340.931,89.673 341.174,90.846C341.133,90.965 340.664,92.334 340.664,92.334C340.916,92.658 341.569,92.434 341.821,92.758L341.478,93.486C341.27,93.876 341.061,94.266 340.853,94.656C341.068,94.937 341.284,95.219 341.499,95.501C341.566,96.143 341.632,96.786 341.698,97.428C341.229,97.329 340.976,96.721 340.507,96.621C338.745,96.248 336.547,98.943 336.296,99.251C334.761,101.671 333.78,102.307 333.57,102.58C328.041,109.747 331.731,95.945 336.705,94.97C339.192,94.483 338.23,93.452 339.795,87.642Z" style="fill:rgb(160,162,171);"/>
        </g>
        <g transform="matrix(2.527344,0,0,2.527344,0,0)">
            <path d="M296.465,75.533C296.645,75.72 300.752,80.011 297.493,78.606C287.259,74.197 286.378,54.552 291.372,55.702C294.93,56.521 283.801,61.962 296.465,75.533Z" style="fill:rgb(137,140,150);"/>
        </g>
        <g transform="matrix(2.527344,0,0,2.527344,0,0)">
            <path d="M147.227,372.197C153.957,370.538 157.997,379.021 164.981,366.894C166.36,364.5 167.165,366.416 167.131,366.54C166.905,367.383 165.396,372.999 160.304,375.056C156.083,376.761 151.694,374.848 148.6,374.122C148.471,374.057 148.395,373.913 148.267,373.848C146.851,373.131 147.525,372.67 147.227,372.197Z" style="fill:rgb(129,133,142);"/>
        </g>
        <g transform="matrix(2.527344,0,0,2.527344,0,0)">
            <path d="M504.235,350.335C501.373,350.179 503.28,348.312 497.346,333.549C489.923,315.079 504.916,339.542 504.235,350.335Z" style="fill:rgb(166,169,175);"/>
        </g>
        <g transform="matrix(2.527344,0,0,2.527344,0,0)">
            <path d="M266.661,217.303C268.128,217.814 269.951,218.128 276.546,220.375C282.414,222.374 286.129,228.658 286.187,229.487C286.547,234.666 284.312,223.144 266.503,219.37C267.283,218.201 266.779,218.202 266.661,217.303Z" style="fill:rgb(148,151,159);"/>
        </g>
        <g transform="matrix(2.527344,0,0,2.527344,0,0)">
            <path d="M160.392,328.187L161.576,328.46C161.042,331.835 155.91,341.669 154.385,349.409C153.359,349.094 153.442,349.141 152.651,348.49C155.194,336.851 159.497,329.677 160.392,328.187Z" style="fill:rgb(151,153,161);"/>
        </g>
        <g transform="matrix(2.527344,0,0,2.527344,0,0)">
            <path d="M266.661,217.303C266.779,218.202 267.283,218.201 266.503,219.37C254.883,215.51 248.409,207.747 248.4,207.512C248.241,203.389 253.356,212.042 266.661,217.303Z" style="fill:rgb(132,135,144);"/>
        </g>
        <g transform="matrix(2.527344,0,0,2.527344,0,0)">
            <path d="M297.043,159.576C298.244,159.254 298.926,159.959 300.081,157.161C301.482,153.769 301.327,153.768 301.462,153.484C305.495,144.946 304.408,144.501 304.972,143.912C308.683,140.03 304.47,156.795 297.968,163.664C296.994,161.738 296.792,161.781 297.043,159.576Z" style="fill:rgb(156,159,167);"/>
        </g>
        <g transform="matrix(2.527344,0,0,2.527344,0,0)">
            <path d="M353.411,27.375C355.785,27.837 355.68,27.943 357.66,29.264C357.398,30.334 356.44,29.545 356.191,30.562C356.146,30.745 356.287,30.702 357.524,32.494C357.348,33.091 356.461,33.293 356.285,33.89C356.207,34.153 357.374,36.061 356.061,40.279C355.828,41.03 355.609,41.79 355.292,42.51C355.126,42.887 354.537,43.144 354.621,43.547C354.733,44.09 355.646,44.217 355.758,44.76C355.6,44.917 353.953,46.558 353.491,46.388C352.851,46.152 353.237,45.755 352.559,45.5C352.034,45.302 352.132,45.878 351.644,45.694C353.926,40.809 356.443,38.9 353.411,27.375Z" style="fill:rgb(207,209,214);"/>
        </g>
        <g transform="matrix(2.527344,0,0,2.527344,0,0)">
            <path d="M317.55,337.511C319.189,330.6 318.413,330.537 319.737,323.587C320.936,317.295 323.591,328.886 318.885,339.895C314.587,349.95 317.484,337.72 317.55,337.511Z" style="fill:rgb(137,140,149);"/>
        </g>
        <g transform="matrix(2.527344,0,0,2.527344,0,0)">
            <path d="M338.488,333.503C338.674,334.177 342.334,347.477 338.799,342.24C338.104,341.211 332.356,320.032 336.45,322.56C337.227,323.039 336.777,326.413 338.488,333.503Z" style="fill:rgb(135,138,147);"/>
        </g>
        <g transform="matrix(2.527344,0,0,2.527344,0,0)">
            <path d="M475.517,305.447C481.49,311.59 481.753,311.157 488.345,316.642C490.812,318.694 489.79,320.25 488.51,319.476C477.017,312.522 475.395,308.056 474.884,306.648L475.517,305.447Z" style="fill:rgb(121,126,135);"/>
        </g>
        <g transform="matrix(2.527344,0,0,2.527344,0,0)">
            <path d="M353.411,27.375C356.443,38.9 353.926,40.809 351.644,45.694C351.274,46.012 350.903,46.329 350.533,46.647C350.153,46.258 349.773,45.868 349.393,45.479C353.464,37.539 353.769,37.195 351.174,28.683C351.92,28.247 352.666,27.811 353.411,27.375Z" style="fill:rgb(105,109,121);"/>
        </g>
        <g transform="matrix(2.527344,0,0,2.527344,0,0)">
            <path d="M181.308,306.002C183.134,308.548 182.16,309.368 172.521,316.533C172.276,316.716 156.138,327.161 168.708,316.703C174.549,311.844 175.193,312.684 181.308,306.002Z" style="fill:rgb(121,126,135);"/>
        </g>
        <g transform="matrix(2.527344,0,0,2.527344,0,0)">
            <path d="M289.645,85.451C290.069,86.085 302.253,99.457 299.229,102.233C297.693,103.642 296.578,96.141 292.411,91.706C292.041,91.312 288.042,87.055 288.38,86.291C288.584,85.828 289.441,85.914 289.645,85.451Z" style="fill:rgb(190,193,198);"/>
        </g>
        <g transform="matrix(2.527344,0,0,2.527344,0,0)">
            <path d="M311.929,88.779C312.24,88.111 311.953,88.02 312.51,87.535C313.668,86.525 313.39,87.77 313.951,89.194C316.026,94.465 318.828,95.846 319.466,96.161C321.633,98.296 321.43,98.452 321.668,98.558C321.928,98.675 322.193,98.052 322.442,98.193C322.442,98.193 323.546,100.107 323.642,100.273C323.449,100.32 323.147,101.784 321.438,100.804C318.223,98.96 314.043,93.24 313.501,92.498C312.433,90.719 312.503,90.784 311.929,88.779Z" style="fill:rgb(137,140,151);"/>
        </g>
        <g transform="matrix(2.527344,0,0,2.527344,0,0)">
            <path d="M340.459,19.385C344.399,24.944 344.63,24.813 346.268,31.439C345.771,31.713 345.274,31.986 344.777,32.26C343.186,28.977 343.053,29.154 340.407,26.615C340.498,26.431 343.052,25.968 340.376,23.944C340.143,23.532 340.696,22.938 340.462,22.526C340.462,22.526 337.79,20.395 337.558,20.21C338.973,19.472 338.908,19.523 340.459,19.385Z" style="fill:rgb(127,130,142);"/>
        </g>
        <g transform="matrix(2.527344,0,0,2.527344,0,0)">
            <path d="M322.882,211.722L322.339,212.163C319.785,211.064 320.854,209.233 319.199,203.606C317.525,197.916 313.516,191.932 317.579,196.218C319.469,198.212 321.846,201.359 322.882,211.722Z" style="fill:rgb(142,145,153);"/>
        </g>
        <g transform="matrix(2.527344,0,0,2.527344,0,0)">
            <path d="M336.325,201.434C337.56,199.225 337.745,197.818 339.335,196.067C339.476,195.913 341.571,195.373 339.998,198.591C335.058,208.696 337.49,209.705 335.607,211.757C335.048,212.367 333.085,211.496 336.325,201.434Z" style="fill:rgb(146,148,157);"/>
        </g>
        <g transform="matrix(2.527344,0,0,2.527344,0,0)">
            <path d="M354.183,76.293C359.413,65.993 355.806,53.891 358.711,62.252C360.982,68.788 357.421,73.953 356.846,74.787C356.429,75.392 356.44,75.42 356.462,75.479C356.748,76.215 357.215,75.738 357.519,76.521C357.355,76.606 355.478,77.582 355.478,77.582C354.919,77.34 354.742,76.534 354.183,76.293Z" style="fill:rgb(148,151,162);"/>
        </g>
        <g transform="matrix(2.527344,0,0,2.527344,0,0)">
            <path d="M320.681,90.246C320.786,91.174 320.843,91.114 321.289,92.589C322.239,95.903 330.348,104.587 326.507,104.438C326.103,104.423 326.014,104.419 323.642,100.273C323.546,100.107 322.442,98.193 322.442,98.193C322.193,98.052 321.928,98.675 321.668,98.558C321.43,98.452 321.633,98.296 319.466,96.161C319.801,91.567 317.885,89.03 320.681,90.246Z" style="fill:rgb(150,154,163);"/>
        </g>
        <g transform="matrix(2.527344,0,0,2.527344,0,0)">
            <path d="M356.804,48.632C362.163,45.967 368.759,51.228 371.126,56.632C369.736,56.953 369.811,56.841 368.51,57.465C368.384,50.923 362.477,52.303 356.804,48.632Z" style="fill:rgb(133,136,146);"/>
        </g>
        <g transform="matrix(2.527344,0,0,2.527344,0,0)">
            <path d="M240.294,205.108C229.553,205.906 218.999,210.868 224.76,206.767C226.366,205.624 240.497,201.057 240.422,204.48C240.417,204.693 240.298,204.894 240.294,205.108Z" style="fill:rgb(148,152,160);"/>
        </g>
        <g transform="matrix(2.527344,0,0,2.527344,0,0)">
            <path d="M422.497,203.525C423.352,203.747 434.724,206.702 432.432,208.356C431.509,209.021 431.629,207.092 418.552,205.237C418.361,205.21 415.994,204.875 416.711,203.663C417.083,203.035 422.036,203.483 422.497,203.525Z" style="fill:rgb(145,148,156);"/>
        </g>
        <g transform="matrix(2.527344,0,0,2.527344,0,0)">
            <path d="M281.987,57.58C285.047,55.837 284.839,55.068 285.876,53.922C290.123,49.226 295.56,49.174 296.084,49.994C297.106,51.593 295.609,51.052 292.722,51.931C286.474,53.832 288.321,57.01 282.083,59.068L281.987,57.58Z" style="fill:rgb(120,124,134);"/>
        </g>
        <g transform="matrix(2.527344,0,0,2.527344,0,0)">
            <path d="M370.75,95.535C373.301,103.806 369.724,111.927 369.299,112.082C367.112,112.881 369.415,107.031 369.704,100.464C369.775,98.849 368.391,98.427 368.382,98.413C369.364,96.808 369.433,96.926 370.75,95.535Z" style="fill:rgb(144,147,157);"/>
        </g>
        <g transform="matrix(2.527344,0,0,2.527344,0,0)">
            <path d="M286.676,95.471C287.769,96.358 287.708,96.316 288.496,97.504C287.547,99.09 287.133,99.057 287.559,103.493C287.87,106.735 290.392,114.012 287.616,111.381C287.026,110.822 285.932,107.154 285.731,105.47C284.943,98.871 286.311,96.187 286.676,95.471Z" style="fill:rgb(151,154,163);"/>
        </g>
        <g transform="matrix(2.527344,0,0,2.527344,0,0)">
            <path d="M311.929,88.779C312.503,90.784 312.433,90.719 313.501,92.498C313.471,92.598 312.353,92.999 312.929,94.4C313.023,94.628 315.414,100.442 311.68,97.21C311.592,96.892 311.385,97.073 311.287,96.718C311.239,96.543 311.255,96.553 310.851,94.484C310.602,93.879 306.661,84.319 309.52,86.409C310.834,87.37 309.176,88.353 310.601,89.184C311.001,89.417 311.529,88.546 311.929,88.779Z" style="fill:rgb(159,162,170);"/>
        </g>
        <g transform="matrix(2.527344,0,0,2.527344,0,0)">
            <path d="M353.988,51.044C359.228,55.983 357.096,57.049 356.576,57.021C356.101,56.996 352.535,51.158 348.52,50.441C348.338,50.409 338.872,48.66 347.458,48.386C350.058,48.303 353.525,50.721 353.988,51.044Z" style="fill:rgb(151,154,162);"/>
        </g>
        <g transform="matrix(2.527344,0,0,2.527344,0,0)">
            <path d="M359.531,79.514C356.525,82.867 356.983,84.768 352.606,83.644C352.561,82.805 352.516,81.965 352.471,81.126C360.188,78.45 359.447,76.301 361.483,75.19C363.134,74.289 359.747,79.201 359.531,79.514Z" style="fill:rgb(229,232,236);"/>
        </g>
        <g transform="matrix(2.527344,0,0,2.527344,0,0)">
            <path d="M359.531,79.514C360.462,81.457 360.494,81.471 359.846,83.498C358.959,83.932 358.576,83.196 357.59,84.601C357.362,84.926 357.34,84.771 354.561,88.54C354.457,88.386 353.261,86.617 353.261,86.617C353.344,84.554 352.561,84.838 352.296,84.168L352.606,83.644C356.983,84.768 356.525,82.867 359.531,79.514Z" style="fill:rgb(137,140,151);"/>
        </g>
        <g transform="matrix(2.527344,0,0,2.527344,0,0)">
            <path d="M318.467,67.387C318.713,68.761 318.959,70.134 319.205,71.507C317.118,72.703 317.792,73.24 318.457,75.558C317.566,76.301 317.694,76.339 317.378,77.496C315.715,79.178 315.787,79.344 315.586,79.308C314.859,79.179 315.53,78.394 314.749,78.255C317.619,73.087 314.142,71.511 318.467,67.387Z" style="fill:rgb(142,145,155);"/>
        </g>
        <g transform="matrix(2.527344,0,0,2.527344,0,0)">
            <path d="M154.047,326.336C153.938,326.682 153.998,326.687 152.753,330.677C151.962,333.212 150.918,332.121 149.123,330.243C151.667,325.324 151.63,325.32 151.933,324.913C152.892,323.625 152.896,324.971 154.047,326.336Z" style="fill:rgb(189,192,199);"/>
        </g>
        <g transform="matrix(2.527344,0,0,2.527344,0,0)">
            <path d="M357.524,32.494C358.617,35.321 359.776,38.532 355.758,44.76C355.646,44.217 354.733,44.09 354.621,43.547C354.537,43.144 355.126,42.887 355.292,42.51C355.609,41.79 355.828,41.03 356.061,40.279C357.374,36.061 356.207,34.153 356.285,33.89C356.461,33.293 357.348,33.091 357.524,32.494Z" style="fill:rgb(154,157,165);"/>
        </g>
        <g transform="matrix(2.527344,0,0,2.527344,0,0)">
            <path d="M360.474,99.489C358.932,102.405 358.151,105.742 357.531,102.489C356.822,98.772 365.485,89.434 362.092,96.381C361.567,97.455 360.606,99.242 360.474,99.489Z" style="fill:rgb(203,205,210);"/>
        </g>
        <g transform="matrix(2.527344,0,0,2.527344,0,0)">
            <path d="M305.637,90.436C309.328,95.355 310.041,94.423 310.851,94.484C311.255,96.553 311.239,96.543 311.287,96.718C311.385,97.073 311.592,96.892 311.68,97.21C307.592,96.063 307.785,95.737 304.318,93.29C304.492,91.69 304.71,91.854 305.637,90.436Z" style="fill:rgb(164,167,175);"/>
        </g>
        <g transform="matrix(2.527344,0,0,2.527344,0,0)">
            <path d="M148.258,365.389L147.424,366.021C143.343,363.379 152.176,353.685 150.297,359.453C149.31,362.481 149.199,362.362 148.258,365.389Z" style="fill:rgb(150,154,162);"/>
        </g>
        <g transform="matrix(2.527344,0,0,2.527344,0,0)">
            <path d="M507.448,360.521C507.297,360.127 507.03,359.784 506.879,359.391C505.245,355.136 510.908,359.152 510.691,364.566C510.476,369.946 507.626,360.87 507.448,360.521Z" style="fill:rgb(161,164,172);"/>
        </g>
        <g transform="matrix(2.527344,0,0,2.527344,0,0)">
            <path d="M477.839,269.591L477.487,271.506C470.344,266.492 471.497,263.745 472.373,263.857C472.649,263.893 477.412,269.123 477.839,269.591Z" style="fill:rgb(177,179,187);"/>
        </g>
        <g transform="matrix(2.527344,0,0,2.527344,0,0)">
            <path d="M362.83,129.605C362.698,130.235 362.653,130.881 362.52,131.51C362.475,131.728 362.043,133.78 361.333,134.032C361.147,134.098 361.195,133.921 359.409,132.484C359.723,127.059 359.533,127.046 359.748,126.628C360.252,125.648 360.115,126.9 360.922,127.5C361.558,128.202 362.194,128.904 362.83,129.605Z" style="fill:rgb(156,160,168);"/>
        </g>
        <g transform="matrix(2.527344,0,0,2.527344,0,0)">
            <path d="M452.756,971.076C456.533,969.055 457.57,970.15 459.4,973.764C456.505,973.845 455.081,973.915 452.756,971.076Z" style="fill:rgb(171,175,182);"/>
        </g>
        <g transform="matrix(2.527344,0,0,2.527344,0,0)">
            <path d="M179.53,269.492C184.735,263.795 184.824,263.533 185.406,263.829C186.059,264.16 186.948,265.233 180.086,271.277C179.901,270.682 179.716,270.087 179.53,269.492Z" style="fill:rgb(180,183,190);"/>
        </g>
        <g transform="matrix(2.527344,0,0,2.527344,0,0)">
            <path d="M204.426,971.355C202.189,973.483 202.245,973.918 198.612,973.731C199.236,969.404 201.058,969.419 204.426,971.355Z" style="fill:rgb(177,181,188);"/>
        </g>
        <g transform="matrix(2.527344,0,0,2.527344,0,0)">
            <path d="M341.698,97.428L342.64,98.785C340.976,99.605 340.318,97.56 339.333,99.213C337.518,102.26 336.546,99.389 336.296,99.251C336.547,98.943 338.745,96.248 340.507,96.621C340.976,96.721 341.229,97.329 341.698,97.428Z" style="fill:rgb(189,191,198);"/>
        </g>
        <g transform="matrix(2.527344,0,0,2.527344,0,0)">
            <path d="M590.502,547.501L590.5,548.602L591.19,549.5C589.987,552.706 590.27,552.757 590.15,553.026C589.556,554.359 589.19,553.395 587.515,552.548C588.83,549.829 588.929,549.999 590.502,547.501Z" style="fill:rgb(143,147,158);"/>
        </g>
        <g transform="matrix(2.527344,0,0,2.527344,0,0)">
            <path d="M181.474,358.481C181.48,360.605 181.742,360.597 180.951,362.602L179.5,362.108C179.087,362.189 178.913,362.8 178.5,362.88C174.559,363.647 181.134,358.735 181.474,358.481Z" style="fill:rgb(172,176,184);"/>
        </g>
        <g transform="matrix(2.527344,0,0,2.527344,0,0)">
            <path d="M351.771,91.921C351.282,92.922 351.446,92.881 350.804,93.902C350.684,94.093 350.625,94.317 350.51,94.511C350.23,94.986 350.165,95.03 350.121,95.06C347.769,96.663 347.803,94.495 347.433,94.405C349.225,92.461 349.225,92.394 351.771,91.921Z" style="fill:rgb(189,191,199);"/>
        </g>
        <g transform="matrix(2.527344,0,0,2.527344,0,0)">
            <path d="M220.579,994.388L219.509,995.109C219.291,994.875 218.785,995.162 218.567,994.928C218.218,994.555 218.236,993.958 218.007,993.5C213.005,983.482 220.455,994.209 220.579,994.388Z" style="fill:rgb(172,176,182);"/>
        </g>
        <g transform="matrix(2.527344,0,0,2.527344,0,0)">
            <path d="M436.702,994.751C436.901,994.409 447.317,976.549 440.44,991.522C440.306,991.813 439.174,994.279 438.44,994.994C438.248,995.181 437.829,994.76 437.637,994.947L436.702,994.751Z" style="fill:rgb(175,178,185);"/>
        </g>
        <g transform="matrix(2.527344,0,0,2.527344,0,0)">
            <path d="M320.689,66.628C320.586,71.827 319.315,71.351 319.205,71.507C318.959,70.134 318.713,68.761 318.467,67.387C319.208,67.134 319.948,66.881 320.689,66.628Z" style="fill:rgb(198,200,206);"/>
        </g>
        <g transform="matrix(2.527344,0,0,2.527344,0,0)">
            <path d="M580.476,537.496C580.633,537.91 581.766,537.566 581.707,542.087L580.312,542.498C580.112,539.97 580.19,540.044 580.476,537.496Z" style="fill:rgb(155,159,172);"/>
        </g>
        <g transform="matrix(2.527344,0,0,2.527344,0,0)">
            <path d="M580.312,542.498L581.707,542.087C582.429,543.321 582.375,543.26 582.897,544.65C582.621,544.786 582.766,545.342 582.49,545.479C581.135,546.149 581.482,545.067 580.312,542.498Z" style="fill:rgb(201,205,214);"/>
        </g>
        <g transform="matrix(2.527344,0,0,2.527344,0,0)">
            <path d="M340.445,87.328C341.206,87.447 341.966,87.566 342.727,87.686C342.606,88.931 342.486,90.176 342.365,91.421L341.174,90.846C340.931,89.673 340.688,88.5 340.445,87.328Z" style="fill:rgb(219,222,227);"/>
        </g>
        <g transform="matrix(2.527344,0,0,2.527344,0,0)">
            <path d="M319.205,71.507C319.662,74.368 319.824,74.376 319.698,74.592C319.435,75.045 318.721,75.105 318.457,75.558C317.792,73.24 317.118,72.703 319.205,71.507Z" style="fill:rgb(157,159,167);"/>
        </g>
        <g transform="matrix(2.527344,0,0,2.527344,0,0)">
            <path d="M334.251,44.976L335.819,44.503C336.34,46.111 337.072,47.036 335.38,46.92C334.889,46.887 334.308,45.146 334.251,44.976Z" style="fill:rgb(177,179,188);"/>
        </g>
        <g transform="matrix(2.527344,0,0,2.527344,0,0)">
            <path d="M293.606,63.486L295.428,63.383C294.059,65.798 294.444,65.866 294.319,66.061C293.195,67.826 293.68,65.564 293.606,63.486Z" style="fill:rgb(180,181,188);"/>
        </g>
        <g transform="matrix(2.527344,0,0,2.527344,0,0)">
            <path d="M307.437,71.477C307.466,71.335 307.805,69.705 307.805,69.705C308.636,68.168 308.519,69.951 309.049,71.64L308.495,71.517L307.437,71.477Z" style="fill:rgb(197,200,205);"/>
        </g>
        <g transform="matrix(2.527344,0,0,2.527344,0,0)">
            <path d="M341.174,90.846L342.365,91.421C342.184,91.867 342.002,92.312 341.821,92.758C341.569,92.434 340.916,92.658 340.664,92.334C340.664,92.334 341.133,90.965 341.174,90.846Z" style="fill:rgb(220,221,229);"/>
        </g>
        <g transform="matrix(2.527344,0,0,2.527344,0,0)">
            <path d="M152.651,348.49C153.442,349.141 153.359,349.094 154.385,349.409C153.549,350.496 153.306,351.724 152.755,350.379C152.515,349.796 152.89,349.073 152.651,348.49Z" style="fill:rgb(218,220,224);"/>
        </g>
        <g transform="matrix(2.527344,0,0,2.527344,0,0)">
            <path d="M349.393,45.479C349.773,45.868 350.153,46.258 350.533,46.647C350.277,46.748 350.696,47.365 350.44,47.466C350.331,47.509 348.817,46.648 348.81,46.542C348.782,46.139 349.42,45.882 349.393,45.479Z" style="fill:rgb(197,197,202);"/>
        </g>
        <g transform="matrix(2.527344,0,0,2.527344,0,0)">
            <path d="M255.335,974.579C255.78,975.529 256.529,974.599 256.951,975.5C256.993,975.589 257.45,976.566 256.235,976.5C256.235,976.5 255.407,974.733 255.335,974.579Z" style="fill:rgb(210,213,218);"/>
        </g>
        <g transform="matrix(2.527344,0,0,2.527344,0,0)">
            <path d="M475.517,305.447L474.884,306.648C474.587,305.462 473.161,304.933 474.441,304.88C475.156,304.851 474.848,305.475 475.517,305.447Z" style="fill:rgb(200,205,211);"/>
        </g>
        <g transform="matrix(2.527344,0,0,2.527344,0,0)">
            <path d="M334.392,48.406C335.216,48.217 334.739,47.57 335.556,47.383C337.093,47.03 335.308,47.752 334.424,49.066L334.392,48.406Z" style="fill:rgb(223,226,230);"/>
        </g>
        <g transform="matrix(2.527344,0,0,2.527344,0,0)">
            <path d="M346.268,31.439C346.133,31.702 346.297,32.056 346.163,32.318C345.837,32.953 345.573,32.942 345.5,32.939C344.919,32.914 345.357,32.284 344.777,32.26C345.274,31.986 345.771,31.713 346.268,31.439Z" style="fill:rgb(190,192,198);"/>
        </g>
        <g transform="matrix(2.527344,0,0,2.527344,0,0)">
            <path d="M148.559,339.58C149.534,339.611 149.645,339.522 150.068,340.482L148.559,339.58Z" style="fill:rgb(213,215,220);"/>
        </g>
        <g transform="matrix(2.527344,0,0,2.527344,0,0)">
            <path d="M323.25,78.488C323.356,79.154 323.461,79.819 323.567,80.485C323.385,80.031 321.99,80.111 323.25,78.488Z" style="fill:rgb(186,188,194);"/>
        </g>
        <g transform="matrix(2.527344,0,0,2.527344,0,0)">
            <path d="M478.404,360.558C478.637,360.951 479.115,361.159 479.348,361.552C479.763,362.253 479.605,362.441 479.555,362.5C479.135,362.997 478.885,362.101 478.5,362.557C478.468,361.891 478.436,361.225 478.404,360.558Z" style="fill:rgb(197,200,207);"/>
        </g>
        <g transform="matrix(2.527344,0,0,2.527344,0,0)">
            <path d="M370.605,76.566C370.124,77.094 369.643,77.622 369.163,78.151C369.914,76.258 370.589,76.579 370.605,76.566Z" style="fill:rgb(158,163,173);"/>
        </g>
        <g transform="matrix(2.527344,0,0,2.527344,0,0)">
            <path d="M362.327,82.563L363.319,83.33C362.327,83.392 361.958,84.443 361.773,83.427C361.665,82.829 362.438,83.172 362.327,82.563Z" style="fill:rgb(177,180,191);"/>
        </g>
        <g transform="matrix(2.527344,0,0,2.527344,0,0)">
            <path d="M340.853,94.656L341.296,94.514L341.499,95.501C341.284,95.219 341.068,94.937 340.853,94.656Z" style="fill:rgb(161,164,172);"/>
        </g>
        <g transform="matrix(2.527344,0,0,2.527344,0,0)">
            <path d="M580.249,512.27C580.479,512.365 580.318,511.494 580.548,511.588C580.685,511.644 580.619,511.705 581.505,513.174L580.249,512.27Z" style="fill:rgb(133,140,154);"/>
        </g>
        <g transform="matrix(2.527344,0,0,2.527344,0,0)">
            <path d="M320.681,90.246C320.883,91.027 321.086,91.808 321.289,92.589C320.843,91.114 320.786,91.174 320.681,90.246Z" style="fill:rgb(207,211,216);"/>
        </g>
        <g transform="matrix(2.527344,0,0,2.527344,0,0)">
            <path d="M341.478,93.486L341.296,94.514L340.853,94.656C341.061,94.266 341.27,93.876 341.478,93.486Z" style="fill:rgb(156,159,167);"/>
        </g>
        <g transform="matrix(2.527344,0,0,2.527344,0,0)">
            <path d="M282.496,256.492C282.337,257.026 282.178,257.56 282.019,258.094C281.947,257.132 282.027,257.231 282.496,256.492Z" style="fill:rgb(222,225,229);"/>
        </g>
        <g transform="matrix(2.527344,0,0,2.527344,0,0)">
            <path d="M308.495,71.517L309.049,71.64L309.116,72.596L308.495,71.517Z" style="fill:rgb(203,207,212);"/>
        </g>
    </g>
</svg>
