<?xml version="1.0" encoding="UTF-8" standalone="no"?>
<!DOCTYPE svg PUBLIC "-//W3C//DTD SVG 1.1//EN" "http://www.w3.org/Graphics/SVG/1.1/DTD/svg11.dtd">
<svg width="100%" height="100%" viewBox="0 0 1664 2588" version="1.1" xmlns="http://www.w3.org/2000/svg" xmlns:xlink="http://www.w3.org/1999/xlink" xml:space="preserve" xmlns:serif="http://www.serif.com/" style="fill-rule:evenodd;clip-rule:evenodd;stroke-linejoin:round;stroke-miterlimit:2;">
    <g>
        <g transform="matrix(2.527344,0,0,2.527344,0,0)">
            <path d="M293.495,167.693C293.478,171.155 293.436,171.041 293.142,174.601C292.334,184.388 295.424,173.688 295.461,173.486C299.41,152.085 294.43,137.556 298.579,142.388C318.285,165.341 327.11,160.919 329.507,160.888C348.479,160.644 356.24,139.921 359.342,140.82C360.318,141.103 358.106,176.991 362.555,176.65C364.782,176.479 359.989,164.254 364.785,169.106C372.685,177.098 380.546,177.547 409.316,193.654C409.035,193.843 409.373,194.728 407.652,194.772C403.954,194.867 403.942,194.693 403.663,194.848C399.047,197.404 410.781,196.942 411.423,196.917C432.762,199.466 454.405,199.761 470.538,237.483C479.215,257.771 475.508,297.361 479.568,274.379C484.395,281.802 489.691,287.761 497.799,308.386C506.73,331.103 507.944,330.569 524.144,348.8C544.923,372.184 553.658,410.555 568.007,438.75C580.038,462.392 577.244,463.511 588.217,487.633C593.386,498.996 593.51,499.023 594.667,511.482C596.267,528.706 596.691,528.794 592.74,545.593C592.484,546.682 591.024,547.74 588.866,545.207C585.426,541.17 591.278,522.743 583.37,511.589C578.485,504.698 580.716,503.235 574.612,497.382C571.642,494.535 575.353,492.12 574.108,490.801C573.279,489.924 570.879,490.319 570.758,505.502C570.75,506.537 570.667,516.969 566.55,517.738C557.218,519.48 564.776,501.693 556.219,484.633C551.119,474.466 554.1,474 556.931,462.491C557.075,461.155 557.45,460.015 556.581,455.483C555.838,451.606 550.966,442.345 550.332,441.676C543.736,434.723 554.029,449.916 554.85,459.586C554.999,461.332 553.461,461.534 553.44,461.563C519.841,410.754 500.358,421.284 475.779,360.388C467.984,341.074 438.804,331.456 426.276,280.546C425.954,279.238 432.218,265.144 438.504,265.355C451.836,265.802 466.662,279.412 463.428,273.535C462.873,272.527 439.453,256.321 431.401,266.415C422.415,277.68 411.171,303.059 382.503,300.467C338.168,296.459 339.797,290.754 337.346,288.734C337.187,288.602 333.825,288.069 336.808,291.26C347.532,302.735 389.811,304.627 398.566,301.714C414.11,296.543 422.775,281.321 424.283,282.74C424.352,282.805 427.649,293.818 427.51,295.502C427.497,295.663 423.207,314.935 421.678,319.559C414.614,340.922 409.253,339.23 406.652,361.516C404.607,379.042 402.719,379.072 405.703,396.466C410.429,424.018 404.155,424.443 406.819,436.434C411.778,458.754 412.394,458.55 416.727,486.463C421.982,520.319 449.082,612.104 420.41,688.485C423.837,689.257 422.144,690.785 423.298,706.514C425.457,735.926 425.21,735.975 432.65,764.457C443.467,805.869 429.198,843.137 428.924,904.499C428.865,917.8 433.551,917.173 433.197,930.495C433.123,933.293 433.043,936.287 449.798,961.296C455.545,969.875 472.304,981.578 470.128,987.362C468.964,990.455 468.367,982.968 463.395,979.773C461.809,978.754 460.962,980.128 461.924,981.155C462.628,981.906 471.614,991.499 465.497,993.519C465.187,992.684 463.131,987.154 460.268,983.699C460.139,983.543 451.921,977.016 457.806,984.284C462.771,990.415 462.418,992.833 463.163,994.407C460.035,1001.194 458.828,994.246 458.603,993.464C457.378,989.223 451.166,981.813 450.449,981.808C446.216,981.777 462.918,997.871 454.5,999.502C448.787,1000.609 452.635,994.659 448.324,990.671C440.168,983.126 441.32,982.038 440.438,981.666C439.674,981.343 436.523,983.53 445.128,990.916C451.285,996.201 448.263,1000.618 443.525,1001.63C434.671,1003.522 436.602,997.639 424.793,991.037C416.732,986.53 418.503,970.152 414.211,965.926C411.804,963.556 413.239,966.898 414.111,970.161L413.521,971.377C402.644,965.148 399.306,963.73 400.431,954.491C400.54,953.592 401.706,944.021 402.138,943.296C403.067,941.737 404.227,946.312 404.305,946.62C404.335,946.736 404.63,947.901 404.879,948.01C406.114,948.55 407.225,947.067 401.474,931.509C397.646,921.153 404.576,920.148 401.321,899.527C390.663,831.997 374.379,834.454 376.964,783.529C377.076,781.319 378.203,759.132 378.835,755.936C383.556,762.237 384.154,769.672 386.4,769.093C387.619,768.779 387.516,767.93 380.739,754.422C365.793,724.731 362.271,688.776 357.174,662.56C351.183,637.983 335.745,597.347 332.37,554.512C332.139,551.574 330.46,549.873 335.364,548.103C347.979,543.549 349.11,530.678 356.942,515.646C357.037,515.465 360.777,508.287 356.374,513.157C348.509,521.855 345.39,554.561 320.46,544.59C308,539.606 302.564,508.932 298.519,512.521C297.42,513.496 299.418,513.445 305.672,529.439C314.706,552.543 324.437,545.884 324.345,550.516C323.621,586.759 303.258,646.291 299.879,660.595C299.254,659.701 298.759,660.4 298.131,659.5C298.07,659.413 298.029,659.354 298.184,658.168C298.429,656.287 298.807,654.424 299.039,652.541C299.784,646.48 299.242,619.573 298.279,618.665C294.903,615.484 297.852,627.688 297.003,650.5C296.672,659.381 294.104,660.496 298.855,664.563C295.967,680.566 291.215,722.938 276.041,754.352C275.459,755.448 266.463,772.378 271.094,769.045C271.678,768.625 275.539,759.678 275.896,758.85C276.988,756.318 277.84,757.581 278.057,757.581C277.061,788.548 287.432,792.666 270.117,841.36C250.79,895.71 254.733,913.671 255.571,919.49C257.047,929.734 255.844,929.715 252.12,939.424C251.937,940.024 248.324,951.891 252.245,947.262C252.38,947.102 252.241,947.069 252.75,944.696C253.143,942.865 254.186,942.804 254.342,942.598C255.654,950.531 257.654,958.769 255.118,963.273C254.562,964.261 254.127,965.034 243.415,971.277C240.519,972.965 244.797,966.602 243.342,965.946C240.778,964.788 238.892,977.174 237.72,982.55C235.823,991.256 229.639,991.084 226.613,994.598C225.76,995.588 218.3,1004.251 211.645,1001.166C201.817,996.61 214.906,990.264 217.279,983.461C217.72,982.195 216.391,980.978 215.476,982.476C212.662,987.085 212.387,986.788 208.527,990.529C203.802,995.109 208.301,999.456 203.501,999.523C194.461,999.648 205.592,985.375 206.349,984.405C206.459,984.263 209.177,977.806 204.786,982.805C195.302,993.601 198.528,997.625 195.385,996.825C190.048,995.466 200.08,982.288 200.007,981.588C199.968,981.215 199.093,980.125 196.035,984.066C191.937,989.348 191.986,992.208 191.403,993.248C191.224,993.565 189.091,995.021 188.826,989.5C179.846,982.705 197.856,975.556 209.063,958.198C223.697,935.53 223.625,932.999 223.555,930.499C223.237,919.198 225.804,919.624 227.597,908.513C229.868,894.447 218.745,805.975 219.664,792.509C222.195,755.436 230.536,756.696 232.298,719.49C232.405,717.234 232.589,717.266 234.089,691.317C236.12,691.517 237.188,692.532 237.037,690.505C237.017,690.24 236.944,690.277 235.79,687.436C223.821,647.633 217.145,621.927 229.718,538.533C230.53,533.148 231.718,533.403 241.995,471.573C247.07,441.043 251.685,441.43 249.448,423.506C246.481,399.731 255.428,398.28 250.799,369.448C248.331,354.078 250.491,353.455 243.371,339.567C241.682,336.273 231.841,317.077 229.038,295.576C228.91,294.598 229.056,294.629 231.489,283.496C231.521,283.353 231.572,283.389 232.6,282.048C250.525,301.672 255.129,308.004 303.416,299.026C304.966,298.738 317.63,296.384 320.668,289.523C321.345,287.993 319.433,288.203 318.739,288.832C313.772,293.341 314.304,296.558 275.475,300.267C244.988,303.179 236.36,280.799 225.263,266.706C216.23,255.234 187.132,275.832 193.489,275.227C193.705,275.206 207.921,265.41 218.502,265.377C221.217,265.369 222.478,266.402 229.061,276.759C230.319,278.738 230.003,278.948 230.25,279.522C226.751,291.973 224.18,307.068 207.077,328.157C202.196,334.176 184.395,351.381 180.871,359.665C167.84,390.299 166.007,394.238 138.571,420.572C100.109,457.491 102.774,466.923 101.477,462.628C99.629,456.504 113.118,432.746 106.425,441.365C96.568,454.062 100.202,466.276 100.832,468.392C103.854,478.549 102.561,478.794 98.338,488.423C94.036,498.232 97.393,513.42 92.32,517.234C82.985,524.253 86.861,490.483 83.306,490.84C80.325,491.139 84.668,493.883 81.484,497.483C78.865,500.362 78.811,500.294 78.656,500.592C71.027,515.23 70.715,515.077 70.299,516.45C66.826,527.909 68.335,534.89 68.675,536.46C70.56,545.178 64.579,548.363 63.917,546.263C59.651,532.736 60.557,524.43 60.765,522.525C62.605,505.661 61.064,503.074 65.163,494.338C78.663,465.563 77.922,459.499 82.834,449.67C100.49,414.341 98.277,413.444 114.393,377.45C131.004,340.35 144.129,344.205 154.276,319.414C163.8,296.143 163.132,295.802 176.605,274.613C177.622,276.375 177.562,276.379 177.587,278.469C177.588,278.599 177.603,279.866 177.955,280.048C183.369,282.847 172.667,251.772 195.876,219.764C215.994,192.018 246.756,199.109 253.55,196.563C257.946,194.916 247.094,194.558 247.055,194.529C245.106,193.12 274.039,180.467 283.321,175.197C290.442,171.155 289.594,170.044 293.495,167.693Z" style="fill:rgb(254,254,254);"/>
        </g>
        <g transform="matrix(2.527344,0,0,2.527344,0,0)">
            <path d="M480.763,271.343C507.042,309.117 497.406,314.939 514.72,334.301C535.857,357.94 537.806,357.287 560.477,414.509C571.14,441.422 573.992,440.187 583.101,467.627C590.941,491.247 596.141,490.144 597.16,507.522C597.57,514.493 601.016,530.873 594.888,547.65C593.392,551.744 587.856,549.182 585.973,546.194C584.169,543.331 583.275,544.398 580.836,542.137C574.622,536.377 583.509,533.046 575.941,512.328C574.957,509.634 576.094,498.771 573.501,500.501C573.494,500.506 574.747,527.022 562.378,519.688C553.952,514.692 563.215,504.554 552.836,484.333C546.847,472.664 555.625,469.301 551.075,462.768C514.875,410.796 498.402,422.189 474.066,363.702C466.137,344.645 438.465,328.032 430.466,301.524C428.608,295.368 428.55,312.017 421.053,329.3C414.686,343.979 410.667,343.149 407.298,378.475C405.589,396.395 413.026,400.765 409.331,426.471C407.657,438.121 411.873,437.774 416.792,468.448C429.619,548.427 434.57,551.633 435.863,598.486C437.772,667.704 424.342,670.432 424.999,689.494C425.4,701.107 427.646,729.023 427.922,732.457C429.973,757.944 443.336,763.714 438.545,815.505C438.283,818.342 429.493,901.626 432.254,910.562C435.307,920.442 436.209,920.281 435.935,930.516C435.873,932.857 435.835,934.251 449.875,956.265C462.184,975.564 478.363,978.001 470.831,991.691C469.357,994.371 469.844,994.862 466.472,996.443C465.206,997.036 464.059,999.309 461.59,999.864C455.921,1001.139 456.23,1003.057 450.571,1002.086C447.915,1001.631 439.073,1010.096 429.616,998.407C424.218,991.735 418.724,993.418 416.327,983.543C414.959,977.905 416.795,976.107 407.68,971.175C386.88,959.92 403.665,948.076 399.528,934.492C395.181,920.219 400.931,919.913 399.434,905.506C393.937,852.618 371.441,831.297 373.96,785.53C375.414,759.097 379.095,758.505 372.096,740.668C355.349,697.987 363.004,686.316 348.138,640.618C326.442,573.924 331.783,547.258 327.686,549.763C325.441,551.135 328.824,576.85 310.322,634.44C291.615,692.665 301.948,697.182 283.765,742.608C273.883,767.296 289.419,778.055 279.468,821.493C274.505,843.159 266.568,848.118 257.335,903.472C255.51,914.417 261.212,922.755 258.212,931.404C251.416,950.999 269.349,959.189 251.256,970.091C247.737,972.212 242.277,973.67 241.389,978.479C239.514,988.639 239.409,989.707 230.777,994.969C229.888,995.511 220.637,1008.306 210.429,1003.672C207.106,1002.164 207.086,1002.503 203.5,1002.503C200.813,1002.502 188.718,997.314 186.709,993.399C182.881,985.942 180.712,983.472 195.536,969.538C197.784,967.425 205.505,960.167 218.091,938.257C223.185,929.388 218.499,928.201 221.834,918.615C226.881,904.106 225.468,903.71 221.787,853.474C218.11,803.299 211.313,797.383 224.549,751.514C229.874,733.06 228.004,732.773 230.979,697.543C232.825,675.679 228.599,676.133 223.873,654.421C218.979,631.939 218.834,578.726 227.83,533.568C234.803,498.564 235.222,498.72 240.557,463.509C243.844,441.82 249.034,442.248 246.353,420.517C244.106,402.297 251.854,398.588 248.193,371.538C245.96,355.037 247.638,354.523 240.249,339.621C224.03,306.914 230.428,302.627 227.349,300.775C223.732,298.601 230.444,307.247 196.762,343.75C178.167,363.902 183.306,367.139 171.162,387.299C153.158,417.19 124.296,432.01 104.908,463.733C101.422,469.437 109.246,473.06 103.057,485.263C94.036,503.051 102.034,522.77 89.461,520.753C81.485,519.473 83.325,504.667 82.543,500.428C82.42,500.234 81.008,498.006 81.008,498.006C80.919,497.788 81.572,497.702 81.484,497.483C84.668,493.883 80.325,491.139 83.306,490.84C86.861,490.483 82.985,524.253 92.32,517.234C97.393,513.42 94.036,498.232 98.338,488.423C102.561,478.794 103.854,478.549 100.832,468.392C100.202,466.276 96.568,454.062 106.425,441.365C113.118,432.746 99.629,456.504 101.477,462.628C102.774,466.923 100.109,457.491 138.571,420.572C166.007,394.238 167.84,390.299 180.871,359.665C184.395,351.381 202.196,334.176 207.077,328.157C224.18,307.068 226.751,291.973 230.25,279.522C231.411,281.611 231.356,281.634 231.504,281.778C231.773,282.04 232.33,281.785 232.6,282.048C231.572,283.389 231.521,283.353 231.489,283.496C229.056,294.629 228.91,294.598 229.038,295.576C231.841,317.077 241.682,336.273 243.371,339.567C250.491,353.455 248.331,354.078 250.799,369.448C255.428,398.28 246.481,399.731 249.448,423.506C251.685,441.43 247.07,441.043 241.995,471.573C231.718,533.403 230.53,533.148 229.718,538.533C217.145,621.927 223.821,647.633 235.79,687.436C234.354,689.185 234.205,689.097 234.089,691.317C232.589,717.266 232.405,717.234 232.298,719.49C230.536,756.696 222.195,755.436 219.664,792.509C218.745,805.975 229.868,894.447 227.597,908.513C225.804,919.624 223.237,919.198 223.555,930.499C223.625,932.999 223.697,935.53 209.063,958.198C197.856,975.556 179.846,982.705 188.826,989.5C189.091,995.021 191.224,993.565 191.403,993.248C191.986,992.208 191.937,989.348 196.035,984.066C199.093,980.125 199.968,981.215 200.007,981.588C200.08,982.288 190.048,995.466 195.385,996.825C198.528,997.625 195.302,993.601 204.786,982.805C209.177,977.806 206.459,984.263 206.349,984.405C205.592,985.375 194.461,999.648 203.501,999.523C208.301,999.456 203.802,995.109 208.527,990.529C212.387,986.788 212.662,987.085 215.476,982.476C216.391,980.978 217.72,982.195 217.279,983.461C214.906,990.264 201.817,996.61 211.645,1001.166C218.3,1004.251 225.76,995.588 226.613,994.598C229.639,991.084 235.823,991.256 237.72,982.55C238.892,977.174 240.778,964.788 243.342,965.946C244.797,966.602 240.519,972.965 243.415,971.277C254.127,965.034 254.562,964.261 255.118,963.273C257.654,958.769 255.654,950.531 254.342,942.598C253.52,940.764 253.381,940.946 252.12,939.424C255.844,929.715 257.047,929.734 255.571,919.49C254.733,913.671 250.79,895.71 270.117,841.36C287.432,792.666 277.061,788.548 278.057,757.581C277.385,756.505 276.713,755.429 276.041,754.352C291.215,722.938 295.967,680.566 298.855,664.563L299.879,660.595C303.258,646.291 323.621,586.759 324.345,550.516C324.437,545.884 314.706,552.543 305.672,529.439C299.418,513.445 297.42,513.496 298.519,512.521C302.564,508.932 308,539.606 320.46,544.59C345.39,554.561 348.509,521.855 356.374,513.157C360.777,508.287 357.037,515.465 356.942,515.646C349.11,530.678 347.979,543.549 335.364,548.103C330.46,549.873 332.139,551.574 332.37,554.512C335.745,597.347 351.183,637.983 357.174,662.56C362.271,688.776 365.793,724.731 380.739,754.422C380.104,754.927 379.469,755.431 378.835,755.936C378.203,759.132 377.076,781.319 376.964,783.529C374.379,834.454 390.663,831.997 401.321,899.527C404.576,920.148 397.646,921.153 401.474,931.509C407.225,947.067 406.114,948.55 404.879,948.01C404.63,947.901 404.335,946.736 404.305,946.62C404.227,946.312 403.067,941.737 402.138,943.296C401.706,944.021 400.54,953.592 400.431,954.491C399.306,963.73 402.644,965.148 413.521,971.377C413.718,970.972 413.914,970.567 414.111,970.161C413.239,966.898 411.804,963.556 414.211,965.926C418.503,970.152 416.732,986.53 424.793,991.037C436.602,997.639 434.671,1003.522 443.525,1001.63C448.263,1000.618 451.285,996.201 445.128,990.916C436.523,983.53 439.674,981.343 440.438,981.666C441.32,982.038 440.168,983.126 448.324,990.671C452.635,994.659 448.787,1000.609 454.5,999.502C462.918,997.871 446.216,981.777 450.449,981.808C451.166,981.813 457.378,989.223 458.603,993.464C458.828,994.246 460.035,1001.194 463.163,994.407C463.471,994.177 463.991,994.441 464.299,994.211C464.705,993.908 464.089,993.643 464.514,993.397C465.001,993.115 465.007,993.802 465.497,993.519C471.614,991.499 462.628,981.906 461.924,981.155C460.962,980.128 461.809,978.754 463.395,979.773C468.367,982.968 468.964,990.455 470.128,987.362C472.304,981.578 455.545,969.875 449.798,961.296C433.043,936.287 433.123,933.293 433.197,930.495C433.551,917.173 428.865,917.8 428.924,904.499C429.198,843.137 443.467,805.869 432.65,764.457C425.21,735.975 425.457,735.926 423.298,706.514C422.144,690.785 423.837,689.257 420.41,688.485C449.082,612.104 421.982,520.319 416.727,486.463C412.394,458.55 411.778,458.754 406.819,436.434C404.155,424.443 410.429,424.018 405.703,396.466C402.719,379.072 404.607,379.042 406.652,361.516C409.253,339.23 414.614,340.922 421.678,319.559C423.207,314.935 427.497,295.663 427.51,295.502C427.649,293.818 424.352,282.805 424.283,282.74C422.775,281.321 414.11,296.543 398.566,301.714C389.811,304.627 347.532,302.735 336.808,291.26C333.825,288.069 337.187,288.602 337.346,288.734C339.797,290.754 338.168,296.459 382.503,300.467C411.171,303.059 422.415,277.68 431.401,266.415C439.453,256.321 462.873,272.527 463.428,273.535C466.662,279.412 451.836,265.802 438.504,265.355C432.218,265.144 425.954,279.238 426.276,280.546C438.804,331.456 467.984,341.074 475.779,360.388C500.358,421.284 519.841,410.754 553.44,461.563C554.757,463.121 554.964,463.104 556.931,462.491C554.1,474 551.119,474.466 556.219,484.633C564.776,501.693 557.218,519.48 566.55,517.738C570.667,516.969 570.75,506.537 570.758,505.502C570.879,490.319 573.279,489.924 574.108,490.801C575.353,492.12 571.642,494.535 574.612,497.382C580.716,503.235 578.485,504.698 583.37,511.589C591.278,522.743 585.426,541.17 588.866,545.207C591.024,547.74 592.484,546.682 592.74,545.593C596.691,528.794 596.267,528.706 594.667,511.482C593.51,499.023 593.386,498.996 588.217,487.633C577.244,463.511 580.038,462.392 568.007,438.75C553.658,410.555 544.923,372.184 524.144,348.8C507.944,330.569 506.73,331.103 497.799,308.386C489.691,287.761 484.395,281.802 479.568,274.379C478.054,272.903 479.238,272.745 480.763,271.343Z" style="fill:rgb(77,80,95);"/>
        </g>
        <g transform="matrix(2.527344,0,0,2.527344,0,0)">
            <path d="M325.232,63.951C328.036,64.696 328.036,64.702 330.804,63.958C340.111,61.694 346.727,61.838 347.162,62.795C350.418,69.965 340.344,98.243 362.5,105.037C363.348,105.297 363.43,105.268 363.508,105.241C363.929,105.091 363.241,104.774 363.603,104.645C363.179,103.982 362.755,103.318 362.331,102.654C360.145,100.818 360.344,100.725 358.775,98.332C358.273,97.139 354.602,88.418 355.476,82.485C356.006,78.886 356.91,85.418 361.864,90.167C365.999,94.131 364.691,94.795 365.276,100.527C366.11,108.712 362.516,131.714 360.172,135.255C356.955,140.116 343.516,152.688 342.551,153.558C337.147,158.43 322.543,161.998 311.864,152.111C295.603,137.055 294.311,136.639 292.003,114.548C291.817,112.769 289.883,94.264 292.123,92.19C297.461,87.245 297.131,87.024 299.709,81.845L300.665,82.338C300.748,85.514 301.291,90.887 297.092,99.177C293.949,103.309 288.348,105.819 293.498,105.041C313.102,102.077 307.849,69.748 308.674,64.54C308.881,63.23 309.435,59.737 325.232,63.951Z" style="fill:rgb(254,254,254);"/>
        </g>
        <g transform="matrix(2.527344,0,0,2.527344,0,0)">
            <path d="M301.437,62.75L302.292,63.554C302.182,72.569 302.237,72.505 302.841,81.496C303.355,89.141 302.798,89.06 300.692,96.515C300.346,97.738 301.272,97.926 301.315,98.029C301.126,98.252 299.153,100.584 298.525,100.378C297.933,100.183 297.684,99.371 297.092,99.177C301.291,90.887 300.748,85.514 300.665,82.338C300.347,82.173 300.028,82.009 299.709,81.845C297.131,87.024 297.461,87.245 292.123,92.19C289.883,94.264 291.817,112.769 292.003,114.548C294.311,136.639 295.603,137.055 311.864,152.111C322.543,161.998 337.147,158.43 342.551,153.558C343.516,152.688 356.955,140.116 360.172,135.255C362.516,131.714 366.11,108.712 365.276,100.527C364.691,94.795 365.999,94.131 361.864,90.167C356.91,85.418 356.006,78.886 355.476,82.485C354.602,88.418 358.273,97.139 358.775,98.332C357.46,100.065 357.541,100.167 357.357,100.2C356.807,100.301 357.081,99.618 356.532,99.718C356.349,96.379 355.14,96.756 354.467,93.499C351.9,81.064 355.279,73.89 353.927,64.517C353.904,64.354 355.104,58.472 355.951,64.175C356.202,65.861 356.11,65.808 356.279,67.544C356.221,77.076 355.222,77.611 360.818,85.243C368.692,95.982 377.312,92.186 378.701,91.574C379.801,90.524 379.516,90.384 380.133,89.005C384.122,87.085 384.208,88.318 384.864,88.568C381.48,93.766 380.113,92.168 377.7,94.629C377.486,94.847 377.306,115.573 369.538,119.567C364.072,122.377 366.283,124.702 364.73,131.56C364.612,132.084 362.488,136.813 362.462,138.499C362.084,162.06 361.769,163.467 368.855,169.036C377.838,176.094 395.461,181.292 413.182,192.977C422.422,199.07 450.095,189.239 471.116,231.686C479.626,248.871 477.084,262.319 480.763,271.343C479.238,272.745 478.054,272.903 479.568,274.379C475.508,297.361 479.215,257.771 470.538,237.483C454.405,199.761 432.762,199.466 411.423,196.917C410.934,196.179 411.216,196.092 410.736,195.368C410.638,195.22 410.631,195.241 409.316,193.654C380.546,177.547 372.685,177.098 364.785,169.106C359.989,164.254 364.782,176.479 362.555,176.65C358.106,176.991 360.318,141.103 359.342,140.82C356.24,139.921 348.479,160.644 329.507,160.888C327.11,160.919 318.285,165.341 298.579,142.388C294.43,137.556 299.41,152.085 295.461,173.486C295.424,173.688 292.334,184.388 293.142,174.601C293.436,171.041 293.478,171.155 293.495,167.693C289.594,170.044 290.442,171.155 283.321,175.197C274.039,180.467 245.106,193.12 247.055,194.529C247.094,194.558 257.946,194.916 253.55,196.563C246.756,199.109 215.994,192.018 195.876,219.764C172.667,251.772 183.369,282.847 177.955,280.048C177.603,279.866 177.588,278.599 177.587,278.469C177.562,276.379 177.622,276.375 176.605,274.613C163.132,295.802 163.8,296.143 154.276,319.414C144.129,344.205 131.004,340.35 114.393,377.45C98.277,413.444 100.49,414.341 82.834,449.67C77.922,459.499 78.663,465.563 65.163,494.338C61.064,503.074 62.605,505.661 60.765,522.525C60.557,524.43 59.651,532.736 63.917,546.263C64.579,548.363 70.56,545.178 68.675,536.46C68.335,534.89 66.826,527.909 70.299,516.45C70.715,515.077 71.027,515.23 78.656,500.592C78.811,500.294 78.865,500.362 81.484,497.483C81.572,497.702 80.919,497.788 81.008,498.006C81.008,498.006 82.42,500.234 82.543,500.428C78.822,503.133 81.947,507.273 80.197,512.388C72.885,533.756 83.541,539.818 72.502,543.505C72.093,543.641 65.572,554.04 61.829,548.325C61.752,548.208 57.406,534.473 57.619,527.501C57.649,526.517 59.455,501.025 60.241,498.412C62.4,491.228 65.211,491.651 76.105,459.356C81.923,442.109 84.019,443.079 91.022,426.281C116.451,365.288 114.176,363.361 140.152,336.146C158.565,316.856 148.859,310.882 173.984,273.849C181.582,262.652 173.925,252.418 187.932,226.735C207.026,191.724 236.716,197.368 243.286,193.167C273.991,173.532 293.703,172.256 294.059,158.493C294.731,132.496 291.858,132.703 291.434,130.514C290.021,123.234 291.629,122.05 287.693,120.099C277.926,115.259 279.398,95.386 278.49,94.508C277.533,93.582 272.31,93.072 269.663,84.473C269.428,83.709 269.55,83.579 269.602,83.524C270.407,82.665 270.771,83.29 271.566,82.443C273.355,83.914 274.919,83.808 273.42,85.644C273.146,85.98 272.474,86.095 272.466,86.528C272.457,87.007 273.391,87.158 273.382,87.637C274.959,88.688 274.962,88.549 276.726,89.12C277.249,90.507 276.908,90.616 278.048,91.71C285.614,95.352 291.674,89.352 292.516,88.518C302.963,78.174 299.634,66.331 300.386,63.427C300.698,62.225 301.178,62.917 301.437,62.75Z" style="fill:rgb(78,82,98);"/>
        </g>
        <g transform="matrix(2.527344,0,0,2.527344,0,0)">
            <path d="M326.368,45.513C329.467,54.001 323.801,45.798 323.513,45.487C317.413,38.899 305.575,40.483 313.534,42.435C323.034,44.766 327.273,53.302 327.319,56.491C327.324,56.858 327.346,58.362 330.718,59.57L330.159,60.436C330.108,60.601 329.517,62.5 329.517,62.5C329.787,63.089 330.534,63.369 330.804,63.958C328.036,64.702 328.036,64.696 325.232,63.951L325.893,62.789C326.018,62.533 326.579,62.776 326.704,62.521C327.043,61.828 324.55,58 324.313,57.635C324.63,57.048 325.448,56.844 325.765,56.257C326.51,54.878 314.994,41.397 307.945,57.649C302.591,69.993 310.997,85.051 301.315,98.029C301.272,97.926 300.346,97.738 300.692,96.515C302.798,89.06 303.355,89.141 302.841,81.496C302.237,72.505 302.182,72.569 302.292,63.554L302.16,62.662L301.437,62.75C301.178,62.917 300.698,62.225 300.386,63.427C299.634,66.331 302.963,78.174 292.516,88.518C291.674,89.352 285.614,95.352 278.048,91.71C284.352,89.521 285.881,87.948 286.405,87.408C292.616,80.132 292.462,75.955 292.333,70.438C293.168,65.853 293.934,64.24 295.321,59.415C296.956,60.902 297.608,62.54 298.33,60.409C298.858,58.85 298.393,58.782 299.21,57.305C301.737,52.733 304.027,46.798 312.538,45.542C319.658,44.492 311.645,43.923 311.491,43.927C304.815,44.094 298.925,50.344 298.087,51.233C295.956,53.936 291.417,59.886 290.225,71.609C290.939,80.231 286.026,84.63 284.464,86.453L282.189,84.667C280.779,84.289 280.901,83.971 279.411,83.922C274.884,83.772 269.848,77.35 269.228,76.559L268.979,75.688C269.156,75.784 269.184,75.123 269.361,75.219C270.178,75.662 270.703,76.52 271.473,77.04C272.847,77.967 274.264,78.259 274.523,78.312C282.912,80.041 285.549,72.34 285.895,71.33C285.898,71.164 285.943,69.25 285.943,69.25C285.539,68.791 284.74,68.825 284.336,68.366C290.157,61.48 290.041,59.909 297.362,48.61C297.72,48.252 297.831,48.824 298.155,48.5C298.226,48.43 298.851,47.804 298.622,47.349C298.45,47.009 297.661,47.519 297.49,47.178C289.081,54.037 288.943,61.059 286.457,61.418C284.416,61.713 284.685,62.186 282.892,63.786C280.429,63.425 280.521,62.704 280.548,62.491C280.548,62.491 281.162,60.769 281.215,60.619C281.667,60.562 281.981,61.3 282.433,61.242C282.495,61.234 282.461,61.247 284.598,58.608C284.921,58.095 293.063,40.966 300.838,37.949C317.481,31.492 321.919,41.034 326.368,45.513Z" style="fill:rgb(245,245,245);"/>
        </g>
        <g transform="matrix(2.527344,0,0,2.527344,0,0)">
            <path d="M364.74,34.234C369.846,38.816 374.075,42.195 376.192,50.575C378.591,60.076 377.507,61.289 382.932,68.176C382.31,68.365 382.122,69.311 381.5,69.5C380.327,69.855 380.595,69.034 379.434,68.674C373.525,66.837 374.516,62.86 369.654,61.219C366.524,60.162 368.951,57.895 359.489,47.52C357.47,46.874 357.414,47.26 356.094,48.993C355.256,48.325 348.13,42.655 343.663,43.996C338.266,45.617 349.732,44.607 354.082,51.892C358.469,59.237 357.302,62.417 359.459,60.5C359.918,60.091 360.413,59.724 360.873,59.315C363.109,66.897 364.133,66.719 363.731,74.572C364.293,76.961 363.807,80.085 369.716,87.279C369.153,87.599 369.086,88.494 368.522,88.813C368.149,89.025 365.935,87.396 365.729,87.244C365.799,87.023 367.157,87.13 366.254,85.599C361.981,78.358 361.526,78.55 359.725,70.399C359.254,66.286 359.447,66.222 359.035,65.788C358.855,65.599 358.7,65.436 356.279,67.544C356.11,65.808 356.202,65.861 355.951,64.175C355.104,58.472 353.904,64.354 353.927,64.517C355.279,73.89 351.9,81.064 354.467,93.499C355.14,96.756 356.349,96.379 356.532,99.718C343.511,88.176 356.434,61.022 344.222,51.811C335.364,45.131 330.989,56.083 330.428,56.396C326.758,58.447 330.136,52.711 330.297,52.438C335.619,43.402 339.942,43.486 344.093,42.154C347.938,40.92 343.103,40.373 341.522,40.773C332.7,43.001 332.346,46.407 330.557,48.629C328.797,50.815 329.759,45.746 329.807,45.492C330.646,44.817 341.674,27.651 358.715,40.207C367.148,46.42 366.178,50.111 372.384,59.613C373.359,60.83 374.431,62.524 374.597,62.786C374.966,62.707 375.334,62.629 375.703,62.551C374.456,47.355 367.871,40.037 366.493,38.506C364.946,36.787 364.72,38.557 364.389,38.566C364.241,38.321 362.534,35.506 362.534,35.506C362.951,35.09 362.994,35.855 363.5,35.563C364.304,35.099 363.867,34.737 364.74,34.234Z" style="fill:rgb(250,250,249);"/>
        </g>
        <g transform="matrix(2.527344,0,0,2.527344,0,0)">
            <path d="M314.811,24.625C314.033,24.643 314.327,23.997 313.5,24.016C313.377,24.019 312.535,24.038 312.118,24.687C311.209,26.099 312.879,25.023 314.371,25.682C317.099,26.311 317.095,26.178 318.29,26.735C322.331,28.617 325.172,32.901 321.396,30.777C313.05,26.082 307.527,29.104 308.744,30.144C311.35,32.371 313.64,26.812 323.796,35.103C325.084,36.155 324.813,34.884 325.527,33.482C325.983,34.184 327.992,37.275 326.954,43.852C325.472,41.843 325.482,41.855 325.353,41.682C324.422,40.431 317.618,31.278 307.542,33.75C296.411,36.479 291.29,40.052 284.72,54.677C284.44,54.394 283.828,54.73 283.548,54.447C283.194,54.089 283.4,53.992 285.675,48.527C288.206,42.444 288.643,42.737 292.718,37.641C292.856,37.469 294.446,35.495 294.446,35.495C294.356,35.293 294.303,35.349 292.513,33.516C293.439,32.78 293.408,32.894 294.26,32.216C295.08,31.565 294.966,31.571 295.823,30.885C319.805,11.679 325.557,30.651 329.521,27.519C342.025,17.642 348.142,21.337 364.74,34.234C363.867,34.737 364.304,35.099 363.5,35.563C362.994,35.855 362.951,35.09 362.534,35.506C362.534,35.506 364.241,38.321 364.389,38.566C364.731,38.978 368.78,42.936 372.232,52.592C372.717,53.949 371.517,54.475 371.512,54.488C366.439,43.01 363.971,41.182 357.89,37.003C354.624,34.759 340.795,29.011 332.011,40.14C330.403,42.178 330.003,41.442 329.237,41.546C329.293,37.983 329.331,38.052 329.301,34.502C332.679,37.148 332.695,34.536 336.336,32.185C340.549,29.465 349.256,31.109 347.323,28.78C347.078,28.485 340.575,28.133 338.574,28.891C335.076,30.215 331.612,32.68 333.879,29.705C335.962,26.971 340.964,25.863 341.646,25.712C342.237,25.577 342.854,25.574 343.445,25.439C344.754,25.141 343.558,24.759 342.5,23.976L341.445,24.53C332.772,23.989 332.73,30.658 328.642,33.165C327.916,32.787 327.19,32.409 326.464,32.031C322.458,26.891 320.165,23.945 314.811,24.625Z" style="fill:rgb(252,252,252);"/>
        </g>
        <g transform="matrix(2.527344,0,0,2.527344,0,0)">
            <path d="M292.513,33.516C273.926,48.185 283.521,56.384 273.203,68.281L271.294,70.017C269.311,71.087 268.23,71.939 270.936,74.109C278.042,79.806 281.621,72.396 285.895,71.33C285.549,72.34 282.912,80.041 274.523,78.312C274.264,78.259 272.847,77.967 271.473,77.04C270.703,76.52 270.178,75.662 269.361,75.219C269.184,75.123 269.156,75.784 268.979,75.688C269.062,75.978 269.145,76.269 269.228,76.559C269.848,77.35 274.884,83.772 279.411,83.922C280.901,83.971 280.779,84.289 282.189,84.667C280.858,86.838 280.307,85.892 274.481,86.215C274.481,86.215 273.47,87.523 273.382,87.637C273.391,87.158 272.457,87.007 272.466,86.528C272.474,86.095 273.146,85.98 273.42,85.644C274.919,83.808 273.355,83.914 271.566,82.443C265.008,77.731 264.752,67.707 266.428,67.787C267.82,67.854 268.416,69.78 271.527,66.526C280.305,57.346 271.199,46.941 292.447,30.437C300.34,24.306 310.022,16.133 322.53,21.434C326.813,23.25 326.834,26.307 330.506,23.507C333.345,21.343 347.191,10.787 372.538,38.467C381.033,47.745 380.561,70.234 388.576,68.734C389.46,68.569 389.354,67.622 390.718,68.283C391.247,68.54 391.406,68.779 389.726,75.572C388.984,78.574 385.599,81.835 385.13,82.286C382.575,83.95 382.333,83.779 382.228,84.472C382.158,84.934 382.819,85.377 382.643,85.809C382.076,87.2 370.552,85.685 374.605,83.888C375.354,83.556 382.546,85.404 387.382,75.573C386.988,74.813 386.594,74.053 386.2,73.293C386.536,72.769 388.452,72.137 386.289,70.789C385.317,70.183 385.388,70.194 384.451,69.576L382.932,68.176C377.507,61.289 378.591,60.076 376.192,50.575C374.075,42.195 369.846,38.816 364.74,34.234C348.142,21.337 342.025,17.642 329.521,27.519C325.557,30.651 319.805,11.679 295.823,30.885C294.966,31.571 295.08,31.565 294.26,32.216C293.408,32.894 293.439,32.78 292.513,33.516Z" style="fill:rgb(90,93,106);"/>
        </g>
        <g transform="matrix(2.527344,0,0,2.527344,0,0)">
            <path d="M326.464,32.031C327.19,32.409 327.916,32.787 328.642,33.165C328.861,33.611 329.081,34.057 329.301,34.502C329.331,38.052 329.293,37.983 329.237,41.546C329.293,43.605 329.211,43.551 329.807,45.492C329.759,45.746 328.797,50.815 330.557,48.629C332.346,46.407 332.7,43.001 341.522,40.773C343.103,40.373 347.938,40.92 344.093,42.154C339.942,43.486 335.619,43.402 330.297,52.438C330.136,52.711 326.758,58.447 330.428,56.396C330.989,56.083 335.364,45.131 344.222,51.811C356.434,61.022 343.511,88.176 356.532,99.718C357.081,99.618 356.807,100.301 357.357,100.2C357.541,100.167 357.46,100.065 358.775,98.332C360.344,100.725 360.145,100.818 362.331,102.654C362.755,103.318 363.179,103.982 363.603,104.645C363.241,104.774 363.929,105.091 363.508,105.241C363.43,105.268 363.348,105.297 362.5,105.037C340.344,98.243 350.418,69.965 347.162,62.795C346.727,61.838 340.111,61.694 330.804,63.958C330.534,63.369 329.787,63.089 329.517,62.5C329.517,62.5 330.108,60.601 330.159,60.436C330.701,60.635 330.962,61.328 331.504,61.526C332.123,61.753 331.784,60.069 339.541,59.717C342.423,59.586 342.318,60.218 345.112,60.031C345.702,59.992 349.529,57.707 341.475,53.605C340.816,53.25 340.157,52.894 339.497,52.538C335.937,51.359 336.177,52.862 333.493,55.486C331.897,57.789 331.905,57.703 330.718,59.57C327.346,58.362 327.324,56.858 327.319,56.491C327.273,53.302 323.034,44.766 313.534,42.435C305.575,40.483 317.413,38.899 323.513,45.487C323.801,45.798 329.467,54.001 326.368,45.513C326.563,44.96 326.759,44.406 326.954,43.852C327.992,37.275 325.983,34.184 325.527,33.482L326.464,32.031Z" style="fill:rgb(107,110,123);"/>
        </g>
        <g transform="matrix(2.527344,0,0,2.527344,0,0)">
            <path d="M230.25,279.522C230.003,278.948 230.319,278.738 229.061,276.759C222.478,266.402 221.217,265.369 218.502,265.377C207.921,265.41 193.705,275.206 193.489,275.227C187.132,275.832 216.23,255.234 225.263,266.706C236.36,280.799 244.988,303.179 275.475,300.267C314.304,296.558 313.772,293.341 318.739,288.832C319.433,288.203 321.345,287.993 320.668,289.523C317.63,296.384 304.966,298.738 303.416,299.026C255.129,308.004 250.525,301.672 232.6,282.048C232.33,281.785 231.773,282.04 231.504,281.778C231.356,281.634 231.411,281.611 230.25,279.522Z" style="fill:rgb(83,88,100);"/>
        </g>
        <g transform="matrix(2.527344,0,0,2.527344,0,0)">
            <path d="M359.489,47.52C359.455,47.754 358.183,47.991 359.208,49.472C365.675,58.819 364.376,59.659 371.872,68.234C370.25,69.455 369.918,69.451 370.277,71.518C374.112,78.026 377.653,80.932 387.382,75.573C382.546,85.404 375.354,83.556 374.605,83.888C370.552,85.685 382.076,87.2 382.643,85.809C382.819,85.377 382.158,84.934 382.228,84.472C382.333,83.779 382.575,83.95 385.13,82.286C385.503,82.846 386.432,82.852 386.804,83.412C387.156,83.942 386.852,83.956 384.864,88.568C384.208,88.318 384.122,87.085 380.133,89.005C378.557,88.877 368.538,90.146 365.503,73.499C365.885,72.436 366.911,69.585 363.2,59.571C361.999,56.331 358.038,51.167 357.516,50.487C357.225,50.193 357.319,50.197 357.074,49.95C356.997,49.872 357.074,49.95 356.094,48.993C357.414,47.26 357.47,46.874 359.489,47.52Z" style="fill:rgb(245,245,245);"/>
        </g>
        <g transform="matrix(2.527344,0,0,2.527344,0,0)">
            <path d="M314.465,53.376C313.124,54.084 313.212,54.107 312.166,55.195C309.439,59.607 310.567,59.983 310.963,60.04C314.704,60.583 318.534,57.34 325.893,62.789L325.232,63.951C309.435,59.737 308.881,63.23 308.674,64.54C307.849,69.748 313.102,102.077 293.498,105.041C288.348,105.819 293.949,103.309 297.092,99.177C297.684,99.371 297.933,100.183 298.525,100.378C299.153,100.584 301.126,98.252 301.315,98.029C310.997,85.051 302.591,69.993 307.945,57.649C314.994,41.397 326.51,54.878 325.765,56.257C325.448,56.844 324.63,57.048 324.313,57.635C324.071,57.229 323.829,56.822 323.588,56.415C323.313,56.062 320.458,52.381 319.431,52.669C319.086,52.766 318.935,53.371 318.579,53.325C317.18,53.146 317.036,51.362 314.465,53.376Z" style="fill:rgb(90,93,108);"/>
        </g>
        <g transform="matrix(2.527344,0,0,2.527344,0,0)">
            <path d="M269.59,706.32C266.265,704.299 265.978,704.717 261.58,699.436C256.269,693.057 253.468,678.813 253.658,676.534C254.23,669.648 256.7,681.879 256.805,682.401C260.666,701.518 272.469,706.276 276.47,705.359C285.292,703.336 289.739,688.943 289.856,688.847C291.121,687.813 293.104,690.73 286.91,699.733C278.963,711.282 272.326,707.245 269.59,706.32Z" style="fill:rgb(117,119,127);"/>
        </g>
        <g transform="matrix(2.527344,0,0,2.527344,0,0)">
            <path d="M387.36,706.229C370.061,713.097 364.676,689.303 365.648,688.839C367.913,687.759 375.458,720.021 393.583,697.56C399.807,689.848 401.193,669.87 402.689,676.401C403.097,678.186 400.909,693.38 393.438,701.447C390.96,704.122 387.894,705.916 387.36,706.229Z" style="fill:rgb(109,111,119);"/>
        </g>
        <g transform="matrix(2.527344,0,0,2.527344,0,0)">
            <path d="M329.237,41.546C330.003,41.442 330.403,42.178 332.011,40.14C340.795,29.011 354.624,34.759 357.89,37.003C363.971,41.182 366.439,43.01 371.512,54.488C372.918,56.966 373.481,57.032 372.384,59.613C366.178,50.111 367.148,46.42 358.715,40.207C341.674,27.651 330.646,44.817 329.807,45.492C329.211,43.551 329.293,43.605 329.237,41.546Z" style="fill:rgb(157,157,162);"/>
        </g>
        <g transform="matrix(2.527344,0,0,2.527344,0,0)">
            <path d="M326.954,43.852C326.759,44.406 326.563,44.96 326.368,45.513C321.919,41.034 317.481,31.492 300.838,37.949C293.063,40.966 284.921,58.095 284.598,58.608C284.372,58.117 283.626,58.009 283.4,57.518C283.295,57.291 283.495,57.313 284.72,54.677C291.29,40.052 296.411,36.479 307.542,33.75C317.618,31.278 324.422,40.431 325.353,41.682C325.482,41.855 325.472,41.843 326.954,43.852Z" style="fill:rgb(148,148,154);"/>
        </g>
        <g transform="matrix(2.527344,0,0,2.527344,0,0)">
            <path d="M292.513,33.516C294.303,35.349 294.356,35.293 294.446,35.495C294.446,35.495 292.856,37.469 292.718,37.641C292.19,37.804 291.845,36.592 291.317,36.755C291.227,36.783 286.942,41.534 285.852,43.636C280.851,53.277 281.146,59.213 281.215,60.619C281.162,60.769 280.548,62.491 280.548,62.491C280.521,62.704 280.429,63.425 282.892,63.786C276.806,71.438 274.154,68.683 273.203,68.281C283.521,56.384 273.926,48.185 292.513,33.516Z" style="fill:rgb(248,248,247);"/>
        </g>
        <g transform="matrix(2.527344,0,0,2.527344,0,0)">
            <path d="M287.928,99.426C289.589,116.729 289.92,117.823 288.487,117.583C283.797,116.798 279.631,95.626 282.928,94.939C287,94.092 286.948,95.444 287.928,99.426Z" style="fill:rgb(253,253,253);"/>
        </g>
        <g transform="matrix(2.527344,0,0,2.527344,0,0)">
            <path d="M368.176,100.453C368.936,95.887 368.655,94.137 373.187,94.922C377.089,95.598 372.024,117.596 367.495,117.611C366.121,117.616 366.829,116.698 368.176,100.453Z" style="fill:rgb(252,253,253);"/>
        </g>
        <g transform="matrix(2.527344,0,0,2.527344,0,0)">
            <path d="M395.473,791.508C401.491,811.636 400.306,838.77 398.523,825.489C397.436,817.394 398.012,806.698 390.387,781.54C388.473,775.226 386.089,771.639 389.32,773.769C391.15,774.975 394.453,788.107 394.776,789.391C394.82,789.563 395.002,790.289 395.473,791.508Z" style="fill:rgb(152,153,157);"/>
        </g>
        <g transform="matrix(2.527344,0,0,2.527344,0,0)">
            <path d="M240.183,732.472C239.989,747.958 247.196,758.436 241.581,751.43C241.447,751.262 236.044,739.099 238.283,729.442C241.253,716.636 236.917,716.302 239.373,703.446C239.709,701.684 241.509,702.061 241.453,703.507C240.886,718.097 243.21,718.2 240.183,732.472Z" style="fill:rgb(114,116,124);"/>
        </g>
        <g transform="matrix(2.527344,0,0,2.527344,0,0)">
            <path d="M258.056,826.115C257.72,825.95 257.267,826.287 256.931,826.121C253.905,824.631 263.113,774.222 267.532,774.104C269.038,774.064 268.216,775.145 263.141,792.409C259.176,805.9 259.086,821.841 258.056,826.115Z" style="fill:rgb(155,156,161);"/>
        </g>
        <g transform="matrix(2.527344,0,0,2.527344,0,0)">
            <path d="M416.654,737.515C416.592,731.947 416.761,731.964 415.313,726.546C415.262,726.358 414.38,723.499 414.743,720.535C416.766,704.02 414.532,703.555 415.623,702.624C416.653,701.745 419.037,702.604 417.259,719.473C416.405,727.565 419.38,727.306 419.099,735.497C418.893,741.468 415.361,751.034 415.193,751.267C411.172,756.849 415.655,743.578 416.654,737.515Z" style="fill:rgb(108,110,119);"/>
        </g>
        <g transform="matrix(2.527344,0,0,2.527344,0,0)">
            <path d="M268.461,199.5C268.492,199.216 267.821,199.18 267.853,198.896C268.002,197.545 270.452,199.474 290.483,200.778C306.535,201.823 310.604,202.616 315.082,206.829C316.107,207.794 315.212,209.293 313.576,208.308C305.744,203.596 305.454,204.228 294.502,203.478C281.438,202.582 281.509,202.502 268.601,200.348L268.461,199.5Z" style="fill:rgb(118,120,125);"/>
        </g>
        <g transform="matrix(2.527344,0,0,2.527344,0,0)">
            <path d="M388.244,198.835C388.24,199.055 388.174,199.27 388.17,199.489C388.12,201.862 365.11,203.172 355.538,203.97C346.082,204.757 344.497,207.477 342.478,208.433C339.026,210.068 340.899,203.027 354.525,201.726C357.22,201.469 386.876,198.638 388.244,198.835Z" style="fill:rgb(115,117,124);"/>
        </g>
        <g transform="matrix(2.527344,0,0,2.527344,0,0)">
            <path d="M360.616,331.25C341.03,322.657 336.698,326.87 335.59,325.42C335.332,325.082 334.576,323.206 340.493,323.366C360.14,323.897 365.166,338.582 377.759,326.841C380.72,324.079 380.519,327.04 380.26,327.368C371.804,338.124 361.816,331.672 360.616,331.25Z" style="fill:rgb(127,128,134);"/>
        </g>
        <g transform="matrix(2.527344,0,0,2.527344,0,0)">
            <path d="M321.155,324.658C321.088,324.706 320.964,325.787 319.581,325.783C296.842,325.717 296.223,335.347 284.512,333.446C280.812,332.846 275.864,327.14 275.894,326.466C275.996,324.178 279.555,327.793 279.791,328.033C290.234,338.641 308.792,317.639 321.155,324.658Z" style="fill:rgb(129,131,135);"/>
        </g>
        <g transform="matrix(2.527344,0,0,2.527344,0,0)">
            <path d="M359.292,457.042C359.235,456.954 358.192,456.892 358.302,455.526C358.317,455.336 358.339,455.347 359.115,453.441C374.748,415.057 365.956,410.535 369.477,410.649C375.1,410.833 365.139,450.573 359.292,457.042Z" style="fill:rgb(133,133,139);"/>
        </g>
        <g transform="matrix(2.527344,0,0,2.527344,0,0)">
            <path d="M298.255,456.413C296.76,456.412 296.55,456.665 295.883,455.272C284.26,430.984 285.414,416.053 285.685,412.55C285.853,410.371 287.8,410.226 287.803,412.405C287.841,438.946 293.336,437.855 298.255,456.413Z" style="fill:rgb(134,134,139);"/>
        </g>
        <g transform="matrix(2.527344,0,0,2.527344,0,0)">
            <path d="M299.879,660.595L298.855,664.563C294.104,660.496 296.672,659.381 297.003,650.5C297.852,627.688 294.903,615.484 298.279,618.665C299.242,619.573 299.784,646.48 299.039,652.541C298.807,654.424 298.429,656.287 298.184,658.168C298.029,659.354 298.07,659.413 298.131,659.5C298.759,660.4 299.254,659.701 299.879,660.595Z" style="fill:rgb(185,186,189);"/>
        </g>
        <g transform="matrix(2.527344,0,0,2.527344,0,0)">
            <path d="M297.49,47.178L297.362,48.61C290.041,59.909 290.157,61.48 284.336,68.366C278.761,73.204 277.974,72.933 271.294,70.017L273.203,68.281C274.154,68.683 276.806,71.438 282.892,63.786C284.685,62.186 284.416,61.713 286.457,61.418C288.943,61.059 289.081,54.037 297.49,47.178Z" style="fill:rgb(175,175,179);"/>
        </g>
        <g transform="matrix(2.527344,0,0,2.527344,0,0)">
            <path d="M359.489,47.52C368.951,57.895 366.524,60.162 369.654,61.219C374.516,62.86 373.525,66.837 379.434,68.674C380.595,69.034 380.327,69.855 381.5,69.5C382.122,69.311 382.31,68.365 382.932,68.176L384.451,69.576C379.301,74.25 376.682,72.666 371.872,68.234C364.376,59.659 365.675,58.819 359.208,49.472C358.183,47.991 359.455,47.754 359.489,47.52Z" style="fill:rgb(175,175,179);"/>
        </g>
        <g transform="matrix(2.527344,0,0,2.527344,0,0)">
            <path d="M441.165,298.688C452.346,319.216 470.115,342.793 454.835,325.094C448.549,317.813 427.962,281.288 435.199,286.832C435.621,287.156 439.042,294.929 441.165,298.688Z" style="fill:rgb(134,135,139);"/>
        </g>
        <g transform="matrix(2.527344,0,0,2.527344,0,0)">
            <path d="M213.448,306.469C212.668,307.688 208.1,314.828 203.832,321.8C200.197,327.737 198.93,326.888 198.894,326.352C198.817,325.195 213.753,303.174 219.312,290.364C220.582,287.437 223.052,285.311 222.432,288.498C221.952,290.959 214.221,305.059 213.448,306.469Z" style="fill:rgb(131,131,138);"/>
        </g>
        <g transform="matrix(2.527344,0,0,2.527344,0,0)">
            <path d="M356.279,67.544C358.7,65.436 358.855,65.599 359.035,65.788C359.447,66.222 359.254,66.286 359.725,70.399C359.099,71.021 358.916,69.561 358.304,70.17C358.191,70.283 358.06,70.413 357.967,72.146C357.652,78.035 364.833,86.223 365.729,87.244C365.935,87.396 368.149,89.025 368.522,88.813C369.086,88.494 369.153,87.599 369.716,87.279C373.689,90.464 373.849,90.119 378.701,91.574C377.312,92.186 368.692,95.982 360.818,85.243C355.222,77.611 356.221,77.076 356.279,67.544Z" style="fill:rgb(247,247,245);"/>
        </g>
        <g transform="matrix(2.527344,0,0,2.527344,0,0)">
            <path d="M78.401,507.654C78.479,509.578 78.708,509.546 78.031,511.414C73.849,522.965 74.885,523.141 74.762,535.504C74.702,541.444 71.941,540.381 71.78,539.4C68.794,521.285 74.789,513.981 77.496,508.492L78.401,507.654Z" style="fill:rgb(248,248,248);"/>
        </g>
        <g transform="matrix(2.527344,0,0,2.527344,0,0)">
            <path d="M299.511,363.537C300.997,363.182 316.435,359.488 318.58,362.44C320.295,364.799 309.007,363.867 308.565,363.907C295.197,365.102 292.606,371.874 280.709,359.34C280.587,359.212 277.957,353.371 282.265,357.783C289.375,365.066 290.098,365.478 299.511,363.537Z" style="fill:rgb(129,131,135);"/>
        </g>
        <g transform="matrix(2.527344,0,0,2.527344,0,0)">
            <path d="M577.692,507.793C578.711,509.121 578.955,508.835 579.648,510.343C579.67,510.389 580.675,512.094 580.765,512.246C588.111,524.71 584.453,540.304 584.374,540.365C580.77,543.157 581.688,527.086 581.596,523.499C581.353,514.109 577.653,514.028 577.692,507.793Z" style="fill:rgb(247,248,248);"/>
        </g>
        <g transform="matrix(2.527344,0,0,2.527344,0,0)">
            <path d="M355.53,365.394C348.113,363.271 348.078,363.805 340.337,363.996C336.105,364.101 338.463,362.039 338.661,361.966C345.337,359.492 361.569,366.069 366.688,363.975C369.78,362.71 379.958,351.922 376.343,358.419C369.993,369.834 357.209,365.909 355.53,365.394Z" style="fill:rgb(131,132,136);"/>
        </g>
        <g transform="matrix(2.527344,0,0,2.527344,0,0)">
            <path d="M359.982,658.485C359.651,658.026 358.616,658.96 358.284,658.501C354.88,653.791 360.465,576.208 359.473,632.5C359.244,645.53 359.319,645.461 359.982,658.485Z" style="fill:rgb(163,164,168);"/>
        </g>
        <g transform="matrix(2.527344,0,0,2.527344,0,0)">
            <path d="M279.654,464.138C274.612,458.951 276.703,452.826 261.448,441.566C260.771,441.066 249.199,432.525 254.484,433.682C254.843,433.76 266.622,442.508 269.122,444.903C274.988,450.524 281.248,462.655 280.678,463.61C280.482,463.94 279.851,463.808 279.654,464.138Z" style="fill:rgb(132,132,137);"/>
        </g>
        <g transform="matrix(2.527344,0,0,2.527344,0,0)">
            <path d="M391.313,444.281C377.698,456.841 380.173,462.542 377.434,463.395C373.723,464.551 381.35,448.319 392.517,440.524C394.794,438.934 406.219,429.872 402.54,435.521C401.643,436.899 399.193,438.162 391.313,444.281Z" style="fill:rgb(132,133,137);"/>
        </g>
        <g transform="matrix(2.527344,0,0,2.527344,0,0)">
            <path d="M345.776,400.077C345.938,399.657 345.641,399.146 345.804,398.727C346.74,396.305 363.456,397.366 367.217,394.171C371.487,390.543 372.189,382.517 372.243,382.312C372.581,381.044 374.715,381.021 374.114,384.487C371.364,400.324 364.424,397.243 345.776,400.077Z" style="fill:rgb(132,133,137);"/>
        </g>
        <g transform="matrix(2.527344,0,0,2.527344,0,0)">
            <path d="M240.482,228.486C231.863,238.851 227.175,254.28 226.861,248.408C226.589,243.325 246.702,213.837 249.409,218.546C250.354,220.191 248.013,219.311 240.482,228.486Z" style="fill:rgb(154,155,157);"/>
        </g>
        <g transform="matrix(2.527344,0,0,2.527344,0,0)">
            <path d="M417.709,227.323C426.53,238.894 430.272,248.579 428.502,248.533C423.892,248.414 428.728,239.484 408.129,220.734C408.007,220.624 404.346,215.302 409.189,218.976C414.71,223.163 417.381,226.951 417.709,227.323Z" style="fill:rgb(143,144,147);"/>
        </g>
        <g transform="matrix(2.527344,0,0,2.527344,0,0)">
            <path d="M246.385,327.667C249.011,330.843 257.455,346.217 268.665,351.271C268.829,351.344 275.707,356.422 268.498,353.509C255.713,348.342 245.712,330.062 244.732,328.461C244.793,328.378 245.491,327.423 245.491,327.423C245.77,327.291 246.106,327.8 246.385,327.667Z" style="fill:rgb(138,139,141);"/>
        </g>
        <g transform="matrix(2.527344,0,0,2.527344,0,0)">
            <path d="M308.541,399.639C295.741,398.182 283.063,399.626 282.303,383.472C282.183,380.918 284.125,380.706 284.321,382.547C284.426,383.533 285.134,390.193 288.983,394.034C292.106,397.152 310.619,396.444 310.196,398.688C310.131,399.035 309.494,399.071 309.428,399.418L308.541,399.639Z" style="fill:rgb(126,128,132);"/>
        </g>
        <g transform="matrix(2.527344,0,0,2.527344,0,0)">
            <path d="M385.666,354.115C386.159,352.52 385.892,352.374 386.766,351.834C398.022,344.877 398.015,344.614 407.659,330.609C423.238,307.986 399.656,354.338 385.666,354.115Z" style="fill:rgb(137,137,141);"/>
        </g>
        <g transform="matrix(2.527344,0,0,2.527344,0,0)">
            <path d="M149.885,348.774C156.028,348.892 150.689,379.643 146.302,383.21C143.258,385.686 145.637,379.848 145.748,379.576C153.935,359.491 148.824,357.383 149.885,348.774Z" style="fill:rgb(122,123,129);"/>
        </g>
        <g transform="matrix(2.527344,0,0,2.527344,0,0)">
            <path d="M508.495,374.502C508.762,375.148 513.596,386.81 509.846,383.136C508.029,381.356 502.938,365.474 503.899,356.551C504.195,353.795 504.645,347.724 506.508,349.494C507.962,350.877 503.378,351.636 508.495,374.502Z" style="fill:rgb(131,132,137);"/>
        </g>
        <g transform="matrix(2.527344,0,0,2.527344,0,0)">
            <path d="M482.465,298.522C484.845,302.639 484.838,302.565 487.334,306.574C487.552,306.924 490.576,311.783 488.492,311.602C487.019,311.474 478.964,296.079 473.713,289.359C473.401,288.958 468.798,283.067 471.515,283.397C472.399,283.505 481.633,297.282 482.465,298.522Z" style="fill:rgb(148,149,152);"/>
        </g>
        <g transform="matrix(2.527344,0,0,2.527344,0,0)">
            <path d="M169.748,308.983C169.332,310.065 169.408,310 168.696,310.881C162.814,318.156 167.614,308.75 167.718,308.579C177.521,292.463 181.908,286.854 183.298,285.078C189.03,277.751 184.274,287.154 184.163,287.31C170.24,306.818 170.978,307.303 169.748,308.983Z" style="fill:rgb(154,155,157);"/>
        </g>
        <g transform="matrix(2.527344,0,0,2.527344,0,0)">
            <path d="M341.445,24.53L341.646,25.712C340.964,25.863 335.962,26.971 333.879,29.705C331.612,32.68 335.076,30.215 338.574,28.891C340.575,28.133 347.078,28.485 347.323,28.78C349.256,31.109 340.549,29.465 336.336,32.185C332.695,34.536 332.679,37.148 329.301,34.502C329.081,34.057 328.861,33.611 328.642,33.165C332.73,30.658 332.772,23.989 341.445,24.53Z" style="fill:rgb(165,165,169);"/>
        </g>
        <g transform="matrix(2.527344,0,0,2.527344,0,0)">
            <path d="M341.475,53.605C349.529,57.707 345.702,59.992 345.112,60.031C342.318,60.218 342.423,59.586 339.541,59.717C331.784,60.069 332.123,61.753 331.504,61.526C330.962,61.328 330.701,60.635 330.159,60.436L330.718,59.57C331.905,57.703 331.897,57.789 333.493,55.486C334.164,55.829 334.835,56.172 335.506,56.515C338.275,57.579 338.167,56.446 339.447,55.351C340.123,54.769 340.799,54.187 341.475,53.605Z" style="fill:rgb(224,224,224);"/>
        </g>
        <g transform="matrix(2.527344,0,0,2.527344,0,0)">
            <path d="M298.087,51.233C298.925,50.344 304.815,44.094 311.491,43.927C311.645,43.923 319.658,44.492 312.538,45.542C304.027,46.798 301.737,52.733 299.21,57.305C298.393,58.782 298.858,58.85 298.33,60.409C297.608,62.54 296.956,60.902 295.321,59.415C295.549,58.928 297.134,55.543 298.542,53.52C299.383,52.311 299.167,52.15 298.087,51.233Z" style="fill:rgb(171,171,176);"/>
        </g>
        <g transform="matrix(2.527344,0,0,2.527344,0,0)">
            <path d="M356.094,48.993C357.074,49.95 356.997,49.872 357.074,49.95C357.319,50.197 357.225,50.193 357.516,50.487C356.915,51.611 356.193,51.694 357.434,53.582C359.29,56.405 359.389,56.277 360.873,59.315C360.413,59.724 359.918,60.091 359.459,60.5C357.302,62.417 358.469,59.237 354.082,51.892C349.732,44.607 338.266,45.617 343.663,43.996C348.13,42.655 355.256,48.325 356.094,48.993Z" style="fill:rgb(166,167,171);"/>
        </g>
        <g transform="matrix(2.527344,0,0,2.527344,0,0)">
            <path d="M314.811,24.625C320.165,23.945 322.458,26.891 326.464,32.031L325.527,33.482C324.813,34.884 325.084,36.155 323.796,35.103C313.64,26.812 311.35,32.371 308.744,30.144C307.527,29.104 313.05,26.082 321.396,30.777C325.172,32.901 322.331,28.617 318.29,26.735C317.095,26.178 317.099,26.311 314.371,25.682L314.811,24.625Z" style="fill:rgb(161,162,165);"/>
        </g>
        <g transform="matrix(2.527344,0,0,2.527344,0,0)">
            <path d="M406.604,319.619C405.679,320.327 391.95,330.839 393.852,326.633C395.641,322.677 403.492,323.907 412.418,308.429C412.504,308.279 417.014,304.161 414.338,309.429C411.877,314.273 407.322,318.89 406.604,319.619Z" style="fill:rgb(140,140,144);"/>
        </g>
        <g transform="matrix(2.527344,0,0,2.527344,0,0)">
            <path d="M262.35,326.553C261.931,326.748 261.955,327.479 261.536,327.674C261.112,327.872 248.692,320.854 243.614,312.438C243.463,312.188 235.931,295.563 244.059,308.816C250.799,319.806 252.853,317.807 262.35,326.553Z" style="fill:rgb(135,136,139);"/>
        </g>
        <g transform="matrix(2.527344,0,0,2.527344,0,0)">
            <path d="M284.336,68.366C284.74,68.825 285.539,68.791 285.943,69.25C285.943,69.25 285.898,71.164 285.895,71.33C281.621,72.396 278.042,79.806 270.936,74.109C268.23,71.939 269.311,71.087 271.294,70.017C277.974,72.933 278.761,73.204 284.336,68.366Z" style="fill:rgb(251,251,250);"/>
        </g>
        <g transform="matrix(2.527344,0,0,2.527344,0,0)">
            <path d="M371.872,68.234C376.682,72.666 379.301,74.25 384.451,69.576C385.388,70.194 385.317,70.183 386.289,70.789C388.452,72.137 386.536,72.769 386.2,73.293C378.358,79.989 374.252,73.515 372.4,71.59C370.978,70.112 370.576,71.528 370.277,71.518C369.918,69.451 370.25,69.455 371.872,68.234Z" style="fill:rgb(249,249,248);"/>
        </g>
        <g transform="matrix(2.527344,0,0,2.527344,0,0)">
            <path d="M310.447,172.565C310.86,173.328 310.795,173.296 311.908,176.193C319.514,195.972 319.633,195.804 320.265,197.524C322.971,204.894 315.949,196.85 308.905,173.508C309.419,173.193 309.933,172.879 310.447,172.565Z" style="fill:rgb(137,138,142);"/>
        </g>
        <g transform="matrix(2.527344,0,0,2.527344,0,0)">
            <path d="M292.333,70.438C292.462,75.955 292.616,80.132 286.405,87.408C285.881,87.948 284.352,89.521 278.048,91.71C276.908,90.616 277.249,90.507 276.726,89.12C280.868,88.562 281.025,88.922 284.464,86.453C286.026,84.63 290.939,80.231 290.225,71.609C290.901,71.318 290.882,71.96 291.6,71.651C291.704,71.606 291.6,71.651 292.333,70.438Z" style="fill:rgb(149,149,155);"/>
        </g>
        <g transform="matrix(2.527344,0,0,2.527344,0,0)">
            <path d="M292.718,37.641C288.643,42.737 288.206,42.444 285.675,48.527C283.4,53.992 283.194,54.089 283.548,54.447C283.828,54.73 284.44,54.394 284.72,54.677C283.495,57.313 283.295,57.291 283.4,57.518C283.626,58.009 284.372,58.117 284.598,58.608C282.461,61.247 282.495,61.234 282.433,61.242C281.981,61.3 281.667,60.562 281.215,60.619C281.146,59.213 280.851,53.277 285.852,43.636C286.942,41.534 291.227,36.783 291.317,36.755C291.845,36.592 292.19,37.804 292.718,37.641Z" style="fill:rgb(167,167,170);"/>
        </g>
        <g transform="matrix(2.527344,0,0,2.527344,0,0)">
            <path d="M364.389,38.566C364.72,38.557 364.946,36.787 366.493,38.506C367.871,40.037 374.456,47.355 375.703,62.551L374.597,62.786C374.431,62.524 373.359,60.83 372.384,59.613C373.481,57.032 372.918,56.966 371.512,54.488C371.517,54.475 372.717,53.949 372.232,52.592C368.78,42.936 364.731,38.978 364.389,38.566Z" style="fill:rgb(175,176,178);"/>
        </g>
        <g transform="matrix(2.527344,0,0,2.527344,0,0)">
            <path d="M553.44,461.563C553.461,461.534 554.999,461.332 554.85,459.586C554.029,449.916 543.736,434.723 550.332,441.676C550.966,442.345 555.838,451.606 556.581,455.483C557.45,460.015 557.075,461.155 556.931,462.491C554.964,463.104 554.757,463.121 553.44,461.563Z" style="fill:rgb(141,142,148);"/>
        </g>
        <g transform="matrix(2.527344,0,0,2.527344,0,0)">
            <path d="M344.646,175.789C344.838,176.119 345.391,176.119 345.584,176.449C346.225,177.55 341.762,192.029 337.694,197.973C332.056,206.21 336.685,195.804 336.777,195.624C340.159,188.966 343.229,177.494 344.646,175.789Z" style="fill:rgb(147,148,152);"/>
        </g>
        <g transform="matrix(2.527344,0,0,2.527344,0,0)">
            <path d="M312.166,55.195C314.215,56.898 314.068,57.31 315.308,57.146C317.241,56.892 317.192,56.316 317.616,56.129C317.922,56.398 320.018,58.239 322.482,57.63C323.013,57.498 323.056,56.547 323.588,56.415C323.829,56.822 324.071,57.229 324.313,57.635C324.55,58 327.043,61.828 326.704,62.521C326.579,62.776 326.018,62.533 325.893,62.789C318.534,57.34 314.704,60.583 310.963,60.04C310.567,59.983 309.439,59.607 312.166,55.195Z" style="fill:rgb(232,232,232);"/>
        </g>
        <g transform="matrix(2.527344,0,0,2.527344,0,0)">
            <path d="M365.503,73.499C368.538,90.146 378.557,88.877 380.133,89.005C379.516,90.384 379.801,90.524 378.701,91.574C373.849,90.119 373.689,90.464 369.716,87.279C363.807,80.085 364.293,76.961 363.731,74.572C364.322,74.214 364.912,73.857 365.503,73.499Z" style="fill:rgb(128,129,139);"/>
        </g>
        <g transform="matrix(2.527344,0,0,2.527344,0,0)">
            <path d="M357.516,50.487C358.038,51.167 361.999,56.331 363.2,59.571C366.911,69.585 365.885,72.436 365.503,73.499C364.912,73.857 364.322,74.214 363.731,74.572C364.133,66.719 363.109,66.897 360.873,59.315C359.389,56.277 359.29,56.405 357.434,53.582C356.193,51.694 356.915,51.611 357.516,50.487Z" style="fill:rgb(167,167,170);"/>
        </g>
        <g transform="matrix(2.527344,0,0,2.527344,0,0)">
            <path d="M501.354,341.498C501.288,342.475 500.366,356.185 497.872,353.23C495.768,350.737 501.558,349.017 497.972,333.441C497.456,331.2 499.592,331.226 500.058,332.702C501.11,336.039 501.322,340.788 501.354,341.498Z" style="fill:rgb(149,150,153);"/>
        </g>
        <g transform="matrix(2.527344,0,0,2.527344,0,0)">
            <path d="M157.55,343.498C158.277,350.544 159.402,354.341 157.55,353.375C154.742,351.91 154.592,328.623 158.145,331.838C158.838,332.465 157.716,332.586 157.55,343.498Z" style="fill:rgb(146,147,150);"/>
        </g>
        <g transform="matrix(2.527344,0,0,2.527344,0,0)">
            <path d="M489.513,357.441C482.854,355.335 482.781,355.619 476.831,352.039C474.258,350.491 474.871,348.447 476.535,349.343C484.169,353.452 484.105,353.431 492.397,355.768C504.903,359.294 489.777,357.473 489.513,357.441Z" style="fill:rgb(125,126,130);"/>
        </g>
        <g transform="matrix(2.527344,0,0,2.527344,0,0)">
            <path d="M298.087,51.233C299.167,52.15 299.383,52.311 298.542,53.52C297.134,55.543 295.549,58.928 295.321,59.415C293.934,64.24 293.168,65.853 292.333,70.438C291.6,71.651 291.704,71.606 291.6,71.651C290.882,71.96 290.901,71.318 290.225,71.609C291.417,59.886 295.956,53.936 298.087,51.233Z" style="fill:rgb(151,151,156);"/>
        </g>
        <g transform="matrix(2.527344,0,0,2.527344,0,0)">
            <path d="M166.497,357.483C166.229,357.504 156.508,358.262 163.605,355.774C168.393,354.096 168.569,354.966 173.31,353.077C173.461,353.017 183.158,347.059 181.458,350.485C179.915,353.593 167.766,357.115 166.497,357.483Z" style="fill:rgb(119,120,125);"/>
        </g>
        <g transform="matrix(2.527344,0,0,2.527344,0,0)">
            <path d="M370.277,71.518C370.576,71.528 370.978,70.112 372.4,71.59C374.252,73.515 378.358,79.989 386.2,73.293C386.594,74.053 386.988,74.813 387.382,75.573C377.653,80.932 374.112,78.026 370.277,71.518Z" style="fill:rgb(132,133,141);"/>
        </g>
        <g transform="matrix(2.527344,0,0,2.527344,0,0)">
            <path d="M266.472,741.484C265.95,742.258 258.482,753.327 257.951,749.455C257.766,748.11 260.412,749.498 267.046,735.131C268.797,731.34 269.304,734.993 269.168,735.459C268.223,738.699 268.174,738.608 266.472,741.484Z" style="fill:rgb(119,121,127);"/>
        </g>
        <g transform="matrix(2.527344,0,0,2.527344,0,0)">
            <path d="M395.047,744.862C395.312,745.205 401.372,753.039 396.742,750.01C392.76,747.405 384.141,731.867 388.425,733.817C389.363,734.244 388.428,734.98 395.047,744.862Z" style="fill:rgb(125,127,133);"/>
        </g>
        <g transform="matrix(2.527344,0,0,2.527344,0,0)">
            <path d="M297.078,68.107C298.699,71.519 299.673,77.697 289.749,87.834C289.839,87.33 289.219,86.867 289.309,86.363C289.765,83.808 293.579,85.421 297.078,68.107Z" style="fill:rgb(161,160,166);"/>
        </g>
        <g transform="matrix(2.527344,0,0,2.527344,0,0)">
            <path d="M270.335,723.413C264.857,733.197 262.442,730.685 262.424,730.54C262.279,729.337 268.535,724.715 270.029,718.166C270.834,714.636 272.044,716.505 272.147,716.684C273.012,718.185 272.241,718.228 270.335,723.413Z" style="fill:rgb(126,128,134);"/>
        </g>
        <g transform="matrix(2.527344,0,0,2.527344,0,0)">
            <path d="M391.235,726.764C391.478,726.987 397.575,732.596 392.433,730.704C386.592,728.554 381.585,711.014 386.09,716.805C386.792,717.708 386.665,721.66 391.235,726.764Z" style="fill:rgb(118,120,126);"/>
        </g>
        <g transform="matrix(2.527344,0,0,2.527344,0,0)">
            <path d="M276.041,754.352C276.713,755.429 277.385,756.505 278.057,757.581C277.84,757.581 276.988,756.318 275.896,758.85C275.539,759.678 271.678,768.625 271.094,769.045C266.463,772.378 275.459,755.448 276.041,754.352Z" style="fill:rgb(121,123,130);"/>
        </g>
        <g transform="matrix(2.527344,0,0,2.527344,0,0)">
            <path d="M359.725,70.399C361.526,78.55 361.981,78.358 366.254,85.599C367.157,87.13 365.799,87.023 365.729,87.244C364.833,86.223 357.652,78.035 357.967,72.146C358.06,70.413 358.191,70.283 358.304,70.17C358.916,69.561 359.099,71.021 359.725,70.399Z" style="fill:rgb(172,172,176);"/>
        </g>
        <g transform="matrix(2.527344,0,0,2.527344,0,0)">
            <path d="M380.739,754.422C387.516,767.93 387.619,768.779 386.4,769.093C384.154,769.672 383.556,762.237 378.835,755.936C379.469,755.431 380.104,754.927 380.739,754.422Z" style="fill:rgb(111,112,120);"/>
        </g>
        <g transform="matrix(2.527344,0,0,2.527344,0,0)">
            <path d="M465.497,993.519C465.007,993.802 465.001,993.115 464.514,993.397C464.089,993.643 464.705,993.908 464.299,994.211C463.991,994.441 463.471,994.177 463.163,994.407C462.418,992.833 462.771,990.415 457.806,984.284C451.921,977.016 460.139,983.543 460.268,983.699C463.131,987.154 465.187,992.684 465.497,993.519Z" style="fill:rgb(107,108,116);"/>
        </g>
        <g transform="matrix(2.527344,0,0,2.527344,0,0)">
            <path d="M314.465,53.376C317.036,51.362 317.18,53.146 318.579,53.325C318.935,53.371 319.086,52.766 319.431,52.669C320.458,52.381 323.313,56.062 323.588,56.415C323.056,56.547 323.013,57.498 322.482,57.63C320.018,58.239 317.922,56.398 317.616,56.129C316.641,55.118 316.707,55.139 315.5,54.4L314.465,53.376Z" style="fill:rgb(182,183,186);"/>
        </g>
        <g transform="matrix(2.527344,0,0,2.527344,0,0)">
            <path d="M282.189,84.667L284.464,86.453C281.025,88.922 280.868,88.562 276.726,89.12C274.962,88.549 274.959,88.688 273.382,87.637C273.47,87.523 274.481,86.215 274.481,86.215C280.307,85.892 280.858,86.838 282.189,84.667Z" style="fill:rgb(250,250,249);"/>
        </g>
        <g transform="matrix(2.527344,0,0,2.527344,0,0)">
            <path d="M329.558,409.239C324.72,409.119 324.934,410.253 324.524,410.226C319.86,409.914 329.723,403.83 333.143,408.703C335,411.35 329.828,409.344 329.558,409.239Z" style="fill:rgb(125,126,132);"/>
        </g>
        <g transform="matrix(2.527344,0,0,2.527344,0,0)">
            <path d="M189.669,987.578C189.452,986.917 187.154,986.932 189.525,983.527C189.745,983.211 191.101,981.263 192.693,979.906C195.287,977.696 195.606,979.812 195.189,980.326C192.313,983.876 192.019,983.54 189.669,987.578Z" style="fill:rgb(129,131,137);"/>
        </g>
        <g transform="matrix(2.527344,0,0,2.527344,0,0)">
            <path d="M351.618,55.477C351.261,56.093 350.904,56.709 350.547,57.325C348.775,53.881 349.116,53.756 347.242,51.608C345.2,49.268 342.668,48.088 345.364,48.143C348.079,48.198 351.281,54.784 351.618,55.477Z" style="fill:rgb(196,197,198);"/>
        </g>
        <g transform="matrix(2.527344,0,0,2.527344,0,0)">
            <path d="M328.501,213.536C323.192,212.973 324.571,211.136 324.839,210.894C325.568,210.237 327.874,211.951 329.445,211.203C329.646,211.107 336.417,207.881 332.079,212.109C330.647,213.504 330.492,213.163 328.501,213.536Z" style="fill:rgb(125,125,130);"/>
        </g>
        <g transform="matrix(2.527344,0,0,2.527344,0,0)">
            <path d="M304.187,56.5C304.515,55.735 307.619,48.491 310.547,48.271C314.493,47.974 309.963,49.564 307.905,52.933C307.397,53.765 307.025,54.676 306.495,55.494C305.336,57.281 304.538,56.347 304.187,56.5Z" style="fill:rgb(195,195,197);"/>
        </g>
        <g transform="matrix(2.527344,0,0,2.527344,0,0)">
            <path d="M409.316,193.654C410.631,195.241 410.638,195.22 410.736,195.368C411.216,196.092 410.934,196.179 411.423,196.917C410.781,196.942 399.047,197.404 403.663,194.848C403.942,194.693 403.954,194.867 407.652,194.772C409.373,194.728 409.035,193.843 409.316,193.654Z" style="fill:rgb(149,151,157);"/>
        </g>
        <g transform="matrix(2.527344,0,0,2.527344,0,0)">
            <path d="M252.12,939.424C253.381,940.946 253.52,940.764 254.342,942.598C254.186,942.804 253.143,942.865 252.75,944.696C252.241,947.069 252.38,947.102 252.245,947.262C248.324,951.891 251.937,940.024 252.12,939.424Z" style="fill:rgb(136,137,144);"/>
        </g>
        <g transform="matrix(2.527344,0,0,2.527344,0,0)">
            <path d="M376.44,79.779C377.707,80.233 378.638,80.646 377.399,81.21C373.203,83.12 367.71,74.55 371.858,76.975C373.611,78 373.101,78.725 376.44,79.779Z" style="fill:rgb(210,210,210);"/>
        </g>
        <g transform="matrix(2.527344,0,0,2.527344,0,0)">
            <path d="M314.465,53.376L315.5,54.4C316.707,55.139 316.641,55.118 317.616,56.129C317.192,56.316 317.241,56.892 315.308,57.146C314.068,57.31 314.215,56.898 312.166,55.195C313.212,54.107 313.124,54.084 314.465,53.376Z" style="fill:rgb(209,210,211);"/>
        </g>
        <g transform="matrix(2.527344,0,0,2.527344,0,0)">
            <path d="M339.497,52.538C337.426,54.478 337.468,54.439 335.506,56.515C334.835,56.172 334.164,55.829 333.493,55.486C336.177,52.862 335.937,51.359 339.497,52.538Z" style="fill:rgb(148,148,155);"/>
        </g>
        <g transform="matrix(2.527344,0,0,2.527344,0,0)">
            <path d="M339.497,52.538C340.157,52.894 340.816,53.25 341.475,53.605C340.799,54.187 340.123,54.769 339.447,55.351C338.167,56.446 338.275,57.579 335.506,56.515C337.468,54.439 337.426,54.478 339.497,52.538Z" style="fill:rgb(192,193,196);"/>
        </g>
        <g transform="matrix(2.527344,0,0,2.527344,0,0)">
            <path d="M284.495,77.556L285.554,78.527C279.211,83.515 278.353,81.087 278.458,80.507C278.553,79.978 279.06,80.74 284.495,77.556Z" style="fill:rgb(210,210,210);"/>
        </g>
        <g transform="matrix(2.527344,0,0,2.527344,0,0)">
            <path d="M235.79,687.436C236.944,690.277 237.017,690.24 237.037,690.505C237.188,692.532 236.12,691.517 234.089,691.317C234.205,689.097 234.354,689.185 235.79,687.436Z" style="fill:rgb(137,139,145);"/>
        </g>
        <g transform="matrix(2.527344,0,0,2.527344,0,0)">
            <path d="M351.618,55.477C351.666,55.641 354.303,64.973 350.547,57.325C350.904,56.709 351.261,56.093 351.618,55.477Z" style="fill:rgb(231,231,231);"/>
        </g>
        <g transform="matrix(2.527344,0,0,2.527344,0,0)">
            <path d="M341.445,24.53L342.5,23.976C343.558,24.759 344.754,25.141 343.445,25.439C342.854,25.574 342.237,25.577 341.646,25.712L341.445,24.53Z" style="fill:rgb(228,228,228);"/>
        </g>
        <g transform="matrix(2.527344,0,0,2.527344,0,0)">
            <path d="M314.811,24.625L314.371,25.682C312.879,25.023 311.209,26.099 312.118,24.687C312.535,24.038 313.377,24.019 313.5,24.016C314.327,23.997 314.033,24.643 314.811,24.625Z" style="fill:rgb(230,230,230);"/>
        </g>
        <g transform="matrix(2.527344,0,0,2.527344,0,0)">
            <path d="M284.495,77.556C285.689,76.907 285.806,75.321 286.218,76.619C286.238,76.684 286.363,77.079 286.23,77.462C286.092,77.859 285.692,78.13 285.554,78.527L284.495,77.556Z" style="fill:rgb(236,235,232);"/>
        </g>
        <g transform="matrix(2.527344,0,0,2.527344,0,0)">
            <path d="M297.068,67.19C297.583,65.823 297.281,64.817 298.519,65.569C299.772,66.329 298.069,66.072 297.068,67.19Z" style="fill:rgb(238,238,236);"/>
        </g>
        <g transform="matrix(2.527344,0,0,2.527344,0,0)">
            <path d="M310.447,172.565C309.933,172.879 309.419,173.193 308.905,173.508C308.959,172.382 308.524,171.907 309.5,171.965C310.104,172.001 309.937,172.242 310.447,172.565Z" style="fill:rgb(226,226,226);"/>
        </g>
        <g transform="matrix(2.527344,0,0,2.527344,0,0)">
            <path d="M297.49,47.178C297.661,47.519 298.45,47.009 298.622,47.349C298.851,47.804 298.226,48.43 298.155,48.5C297.831,48.824 297.72,48.252 297.362,48.61L297.49,47.178Z" style="fill:rgb(223,223,222);"/>
        </g>
        <g transform="matrix(2.527344,0,0,2.527344,0,0)">
            <path d="M246.385,327.667C246.106,327.8 245.77,327.291 245.491,327.423C245.491,327.423 244.793,328.378 244.732,328.461C244.853,328.172 244.485,327.82 244.606,327.532C244.924,326.773 245.337,326.804 245.423,326.811C246.164,326.867 245.655,327.611 246.385,327.667Z" style="fill:rgb(219,219,219);"/>
        </g>
        <g transform="matrix(2.527344,0,0,2.527344,0,0)">
            <path d="M362.331,102.654C362.755,103.318 363.179,103.982 363.603,104.645C363.179,103.982 362.755,103.318 362.331,102.654Z" style="fill:rgb(182,183,189);"/>
        </g>
        <g transform="matrix(2.527344,0,0,2.527344,0,0)">
            <path d="M299.709,81.845C300.028,82.009 300.347,82.173 300.665,82.338L299.709,81.845Z" style="fill:rgb(157,158,165);"/>
        </g>
        <g transform="matrix(2.527344,0,0,2.527344,0,0)">
            <path d="M78.401,507.654L77.496,508.492C77.962,507.478 77.154,506.633 78.235,506.884C78.491,506.943 78.145,507.595 78.401,507.654Z" style="fill:rgb(113,116,128);"/>
        </g>
        <g transform="matrix(2.527344,0,0,2.527344,0,0)">
            <path d="M301.437,62.75L302.16,62.662L302.292,63.554L301.437,62.75Z" style="fill:rgb(232,232,232);"/>
        </g>
    </g>
</svg>
