<?xml version="1.0" encoding="UTF-8" standalone="no"?>
<!DOCTYPE svg PUBLIC "-//W3C//DTD SVG 1.1//EN" "http://www.w3.org/Graphics/SVG/1.1/DTD/svg11.dtd">
<svg width="100%" height="100%" viewBox="0 0 658 1024" version="1.1" xmlns="http://www.w3.org/2000/svg" xmlns:xlink="http://www.w3.org/1999/xlink" xml:space="preserve" xmlns:serif="http://www.serif.com/" style="fill-rule:evenodd;clip-rule:evenodd;stroke-linejoin:round;stroke-miterlimit:2;">
    <g>
        <path d="M333.384,20.78C335.218,21.226 335.248,21.009 336.395,21.775C336.56,21.885 344.846,27.419 338.848,21.416C327.878,10.436 349.181,23.983 351.627,29.401C352.363,31.032 353.52,30.499 353.67,30.586C352.642,24.016 352.584,24.082 352.543,23.51L353.199,22.759C357.818,30.606 355.648,33.033 358.503,32.761C359.719,32.645 369.606,31.702 373.261,36.664C377.132,41.92 370.326,33.788 362.791,35.643C366.905,38.495 373.583,38.338 376.319,44.595C378.542,49.68 381.727,53.353 384.108,58.686C385.663,62.169 384.907,62.265 384.383,63.671C378.159,52.164 375.954,54.712 375.719,54.737C375.567,54.907 375.917,55.25 375.765,55.419C374.7,56.605 371.824,56.565 373.458,58.539C372.638,60.351 372.295,60.321 372.779,61.041C377.273,67.739 376.554,68.136 381.378,74.552C385.093,82.949 380.259,85.695 381.578,87.5C381.925,87.974 382.567,88.175 382.913,88.649C380.416,96.316 383.254,96.61 381.886,104.569C381.72,105.535 378.612,119.705 372.633,122.72C366.519,125.804 370.71,129.313 364.148,140.266C361.403,144.847 361.333,144.93 361.275,157.496C361.208,171.827 373.396,172.379 403.706,189.157C417.589,196.841 420.53,187.794 442.575,199.371C451.595,204.107 467.394,222.765 471.136,239.585C474.962,256.785 470.634,258.151 478.845,271.273C502.842,309.623 494.02,314.799 511.637,334.378C538.91,364.688 538.658,365.269 554.409,404.539C567.228,436.498 575.174,443.935 583.229,467.592C590.7,489.536 596.596,492.146 597.708,502.476C599.154,515.901 601.496,532.427 595.821,548.627C595.489,549.574 591.868,553.694 586.834,547.224C585.031,544.906 585.021,545.032 582.596,543.341C576.346,538.984 583.074,532.1 577.931,515.345C575.051,505.963 576.22,497.71 573.628,501.562C573.575,501.64 575.821,524.438 564.546,521.35C554.75,518.666 561.204,502.977 555.467,489.512C551.183,479.456 550.398,479.263 552.689,468.547C554.91,458.16 504.695,416.775 492.904,402.155C470.328,374.164 477.608,365.046 459.673,344.355C451.155,334.529 436.351,318.064 426.856,294.362C426.768,294.142 424.458,284.308 423.626,292.535C422.372,304.94 411.232,321.216 405.897,343.582C399.13,371.946 393.243,380.702 403.991,401.282C417.106,426.396 413.425,427.75 416.538,436.488C419.84,445.759 423.724,449.395 428.075,471.568C435.492,509.362 453.636,530.189 440.658,634.523C437.388,660.81 429.86,680.623 428.399,684.469C428.116,685.213 423.759,717.732 433.279,750.574C450.409,809.664 441.804,810.785 434.997,883.547C432.717,907.917 431.847,908.155 436.184,923.581C438.713,932.578 434.329,933.69 439.384,941.576C451.029,959.742 449.18,961.3 465.447,975.555C484.846,992.553 461.412,1004.398 450.487,1003.65C449.91,1003.61 438.797,1010.978 429.745,1000.279C424.831,994.471 418.875,996.138 415.942,984.38C414.259,977.63 414.811,976.668 405.603,971.318C389.485,961.954 404.973,949.223 400.239,934.573C396.284,922.332 402.404,918.902 400.07,904.55C391.147,849.663 367.544,829.188 372.417,776.492C374.301,756.117 376.055,753.557 370.969,742.298C353.966,704.66 359.309,678.117 345.565,628.485C324.395,552.03 337.212,549.303 333.5,545.5C333.155,545.146 323.568,544.314 323.7,546.51C326.223,588.615 321.407,588.28 307.176,648.412C301.134,673.942 303.561,704.532 285.722,744.603C276.609,765.073 298.516,781.229 274.972,843.665C273.103,848.623 259.388,884.991 257.185,907.469C255.966,919.902 261.46,923.117 257.287,935.438C252.118,950.697 270.266,961.516 250.768,971.917C238.155,978.644 245.063,984.09 238.065,992.154C237.249,993.094 236.912,992.688 226.161,1002.157C217.208,1010.043 211.036,1003.729 205.48,1003.922C195.213,1004.278 176.024,990.512 188.883,978.952C207.132,962.548 206.196,961.704 217.836,942.692C221.873,936.098 220.201,935.633 220.523,928.501C220.804,922.279 227.151,916.348 223.396,889.516C222.654,884.217 220.362,859.321 218.236,845.538C218.211,845.379 214.444,811.556 214.753,800.5C215.936,758.239 231.834,755.89 230.221,694.507C229.906,682.519 228.314,682.857 224.859,671.382C221.247,659.384 199.518,567.265 224.056,493.288C232.456,467.962 227.736,466.476 239.042,442.251C244.477,430.607 241.35,425.71 248.919,410.727C260.736,387.334 262.99,386.145 253.539,350.491C247.818,328.91 246.625,329.38 238.599,308.463C233.422,294.97 233.891,283.138 231.311,292.432C224.938,315.397 194.237,348.055 190.855,353.706C180.132,371.621 183.525,388.569 142.627,424.659C139.365,427.538 116.698,447.54 105.736,464.624C102.808,469.188 109.197,474.26 104.681,484.595C100.114,495.043 99.498,495.025 99.009,510.494C98.546,525.123 84.75,525.038 83.954,511.44C83.74,507.798 84.805,498.648 82.498,501.498C82.384,501.639 78.28,521.692 78.191,523.49C77.937,528.583 80.494,541.356 74.616,543.753C70.444,545.454 67.588,553.632 63.161,549.955C63.123,549.923 56.525,536.899 58.183,520.472C60.253,499.958 59.435,499.516 69.037,481.236C71.903,475.779 76.634,458.238 87.929,437.743C109.908,397.863 107.066,377.787 136.602,344.588C152.229,327.022 153.187,327.42 161.465,305.489C172.328,276.708 183.518,267.778 184.075,259.455C184.59,251.758 183.106,225.454 211.661,201.678C221.697,193.323 239.912,192.369 242.488,192.234C254.805,191.589 253.781,188.475 267.71,181.922C293.864,169.616 296.672,168.553 296.141,151.492C295.94,145.018 296.151,144.9 292.898,139.263C287.783,130.4 290.566,125.56 285.686,123.144C279.281,119.975 274.485,106.526 275.221,96.489C275.294,95.5 275.458,93.257 272.786,84.328C272.366,82.925 263.614,87.14 268.007,83.301C271.596,80.164 270.566,79.484 271.214,68.485C271.01,68.658 267.378,73.42 267.951,66.469C268.172,63.787 268.244,53.056 277.395,45.374C279.537,43.577 277.706,43.295 275.262,41.966C274.936,41.733 269.543,37.877 272.506,37.778C276.832,37.633 278.137,40.137 287.61,32.636C292.507,28.757 294.458,30.001 294.159,26.974C295.104,26.925 294.627,26.05 295.585,26C295.694,25.994 295.278,26.47 296.657,26.843C296.657,26.843 298.342,26.56 298.488,26.535C307.859,25.216 307.795,25.189 308.609,25.111C309.155,25.058 309.748,25.724 310.222,25.446C310.306,25.396 309.13,25.491 310.113,24.227C310.662,23.521 311.081,24.341 311.637,23.626C313.223,26.313 316.94,23.278 324.506,24.18C330.42,24.885 330.831,25.636 331.442,24.445C331.51,24.313 331.676,23.989 330.519,22.842C332.065,21.937 332.036,21.996 333.384,20.78Z" style="fill:rgb(70,72,88);"/>
        <path d="M295.474,168.342L295.731,169.064C293.995,180.955 293.455,181.511 294.459,181.571C297.692,181.762 298.265,167.72 298.316,166.474C298.683,157.48 298.941,157.592 298.707,148.546C298.504,140.743 318.657,182.229 346.916,157.963C352.354,153.293 352.297,153.341 357.423,148.313C359.703,146.077 357.9,154.736 358.805,162.466C361.03,181.476 362.628,182.786 363.438,181.449C364.033,180.468 361.194,169.292 361.624,168.774C361.813,168.546 362.292,168.771 362.481,168.543C371.128,178.609 393.642,185.56 403.906,192.189C407.563,194.551 402.415,192.732 398.317,194.364C398.127,194.44 396.97,196.121 400.397,195.836C407.048,195.283 406.919,195.146 407.489,195.114C465.238,191.822 472.609,249.809 471.364,269.529C471.449,274.021 471.669,274.241 471.967,274.032C472.53,273.636 472.879,272.969 473.144,272.333C473.284,271.998 472.893,271.52 473.127,271.242C473.594,270.69 474.529,270.693 474.996,270.14C476.406,272.592 476.485,272.442 478.088,274.873C497.886,304.905 489.846,315.003 513.872,341.17C534.632,363.779 534.533,364.23 558.063,419.684C568.217,443.615 571.271,442.193 580.004,466.726C589.993,494.787 593.879,493.403 594.976,502.434C598.923,534.929 594.871,541.487 594.044,544.358C592.947,548.166 591.208,548.529 588.832,545.292C583.595,538.155 595.984,534.891 582.999,510.283C576.387,497.751 575.389,498.46 574.855,498.034C572.238,495.946 576.266,487.312 573.347,491.114C568.282,497.712 573.901,516.153 567.491,518.481C558.78,521.644 562.682,503.321 559.251,491.568C556.052,480.61 551.288,480.476 556.928,465.581C557.513,463.476 559.053,457.926 548.15,439.716C545.032,434.509 544.144,435.28 543.863,435.659C542.662,437.28 559.042,458.279 554.397,463.713C533.899,428.961 497.434,417.248 478.449,372.522C468.329,348.68 467.34,349.144 450.649,329.38C428.788,303.494 422.423,269.209 421.371,263.542C421.256,262.919 421.187,263.01 420.99,262.444C420.248,263.429 418.96,263.197 419.841,268.478C421.396,277.804 425.82,282.403 415.243,310.43C410.064,324.153 407.69,323.306 400.666,352.534C395.176,375.378 390.09,383.526 405.597,410.448C411.188,420.156 410.119,420.565 412.228,431.555C414.209,441.874 420.835,447.927 425.164,471.561C430.423,500.273 451.302,532.006 438.098,632.469C436.686,643.213 430.523,676.607 422.142,692.443C422.027,692.69 420.699,695.531 420.699,695.531C420.288,696.796 420.712,696.705 421.565,697.687C423.912,692.953 424.658,693.574 424.822,693.38C424.718,695.26 423.72,723.529 428.135,741.606C437.269,779.005 443.357,781.558 438.587,828.511C432.489,888.537 426.457,901.43 433.556,924.484C435.136,929.616 433.968,933.818 434.268,937.511C434.422,939.409 434.763,939.265 445.911,958.262C455.914,975.308 470.973,978.883 470.188,989.315C465.84,984.792 467.068,983.683 463.602,981.324C457.059,976.869 464.259,983.545 468.136,990.442C468.146,990.763 468.004,1001.107 464.281,991.594C461.468,984.408 452.607,978.406 457.249,984.608C457.946,985.54 467.647,998.502 460.519,998.782C458.91,998.845 458.624,993.347 456.507,990.495C450.765,982.759 450.076,982.956 449.506,983.505C448.106,984.853 464.587,1002.207 452.527,1001.267C448.039,1000.917 452.599,996.759 447.289,991.728C443.372,988.018 443.942,987.654 440.586,983.371C439.433,981.9 436.782,985.641 445.193,992.809C455.211,1001.348 440.048,1008.752 431.61,998.418C425.905,991.43 421.933,994.056 419.491,986.502C417.354,979.891 418.071,979.756 415.926,973.141C415.832,972.704 414.104,964.698 412.735,968.554C412.674,968.725 413.58,971.268 413.489,971.493C413.295,971.976 412.626,972.16 412.432,972.644C402.536,965.829 401.879,965.328 401.26,962.556C399.858,956.277 402.208,954.435 402.996,944.517C406.438,944.654 404.664,948.367 405.674,949.351C408.771,952.364 406.112,942.979 405.961,942.447C401.795,931.57 401.004,930.116 402.085,923.415C406.084,898.629 397.717,880.498 381.539,831.488C368.957,793.372 376.843,781.639 376.526,755.506C376.484,752.059 379.076,757.842 381.338,761.714C381.443,761.894 388.694,772.24 383.83,762.478C370.483,735.694 364.423,726.531 357.538,675.495C350.305,621.886 343.674,623.211 337.596,581.49C332.642,547.479 337.3,543.862 339.805,541.918C347.159,536.209 345.243,534.649 358.836,514.646C358.954,514.473 364.682,503.786 358.176,512.108C344.3,529.856 343.48,544.676 325.521,542.37C312.393,540.685 303.885,513.827 298.348,510.764C292.885,507.743 304.294,522.316 305.053,523.728C316.46,544.94 319.689,542.593 320.433,544.524C327.403,562.608 313.069,614.583 311.442,620.482C293.702,684.807 301.534,708.794 279.26,752.413C279.556,752.741 280.81,752.196 281.231,754.605C281.243,754.677 281.296,754.98 281.274,755.517C280.683,769.946 283.633,775.985 283.349,793.499C282.634,837.541 248.868,883.62 255.365,922.524C256.466,929.117 256.485,929.297 252.14,941.434C249.556,949.976 251.366,950.288 252.03,950.09C252.352,949.994 251.752,949.766 252.74,945.947C252.74,945.947 254.175,944.724 254.3,944.618C254.998,948.119 254.941,948.052 255.667,951.47C258.394,964.313 256.689,965.43 245.771,971.958C245.391,971.124 244.155,971.571 244.653,969.501C249.893,947.721 241.702,973.158 241.605,973.552C239.785,979.503 239.979,979.466 238.664,985.538C237.243,992.094 228.961,994.892 226.678,997.636C217.398,1008.788 209.76,1000.946 209.619,1000.445C207.788,993.916 218.14,989.918 218.404,984.508C218.636,979.734 217.045,985.698 210.584,991.597C204.839,996.841 209.599,1000.981 205.477,1001.367C193.17,1002.521 208.92,984.747 208.287,983.574C207.357,981.85 204.621,986.194 202.658,988.633C196.646,996.106 199.448,999.509 196.404,998.832C190.382,997.494 201.277,983.436 200.366,982.736C197.908,980.85 191.725,995.406 191.5,995.5C189.173,996.473 189.806,990.934 189.853,990.517C193.73,982.981 201.475,975.613 194.582,980.642C193.835,981.188 192.802,981.941 187.392,989.702C187.396,989.037 186.087,988.551 188.698,983.611C191.921,977.514 204.836,971.661 214.166,954.329C221.267,941.138 223.614,941.729 223.496,934.5C223.353,925.695 224.161,925.816 226.4,917.472C232.557,894.527 210.477,820.057 220.404,776.481C225.092,755.907 235.588,732.48 232.635,692.556C233.754,693.688 233.954,693.418 234.774,695.122C235.367,696.353 235.202,696.777 236.606,696.624C237.119,696.568 237.414,696.194 234.758,690.437C233.021,686.667 225.186,669.661 220.911,640.422C205.034,531.835 227.841,496.959 230.581,481.515C237.245,443.962 243.277,445.647 245.257,432.455C249.901,401.502 267.313,397.946 261.128,369.58C254.391,338.689 248.453,325.037 246.848,321.347C230.097,282.835 236.388,279.003 237.768,267.507C238.233,263.631 236.183,264.158 236.181,264.156C223.003,329.864 195.258,332.37 183.923,361.665C162.939,415.895 146.966,408.032 107.466,457.471C105.182,460.33 105.365,460.39 103.493,463.489C102.379,462.644 99.701,461.26 113.648,437.531C123.367,420.995 110.052,439.434 109.858,439.727C97.726,458.034 100.371,464.479 101.227,466.566C102.748,471.248 105.777,476.347 101.259,485.389C91.325,505.269 99.845,514.666 93.324,518.215C83.223,523.713 88.764,494.006 84.27,490.773C82.226,489.302 83.318,493.283 83.379,493.504C84.834,498.811 81.369,497.811 78.904,502.711C73.699,513.056 66.492,521.272 69.476,536.504C71.646,547.577 64.925,549.022 64.331,546.56C60.635,531.226 59.731,531.222 61.668,515.514C63.206,503.047 61.752,502.634 67.217,491.38C80.165,464.718 77.723,463.232 85.82,447.681C103.826,413.095 101.677,412.2 117.926,376.661C132.674,344.404 151.665,342.943 163.171,309.397C171.257,285.826 175.61,283.31 183.116,269.065C183.138,269.088 184.597,268.876 184.503,270.498C184.491,270.7 183.853,282.043 186.179,272.378C186.252,272.075 186.192,272.089 186.359,268.48C184.443,229.883 207.425,201.803 226.502,197.512C252.834,191.588 256.342,197.916 259.562,195.561C262.635,193.314 249.348,194.444 254.595,191.688C282.866,176.835 284.287,178.969 295.474,168.342Z" style="fill:rgb(234,234,234);"/>
        <path d="M347.741,71.671C349.663,68.416 349.122,68.217 350.995,64.949C352.325,62.629 351.618,65.9 354.312,73.574C359.606,84.609 361.75,83.139 361.742,82.687C361.727,81.921 361.609,82.03 359.883,78.451C358.385,75.344 359.587,74.878 359.588,74.846C361.912,77.921 369.63,87.331 369.012,103.478C368.89,106.649 368.795,106.574 367.586,109.52C367.406,109.908 367.072,110.21 366.892,110.598C365.301,114.035 369.262,110.732 369.417,110.602C369.577,115.495 365.433,131.81 364.234,134.38C359.802,143.872 343.742,162.393 329.528,162.873C326.447,162.977 314.912,163.367 297.415,141.567C290.756,133.27 288.201,112.651 288.477,112.483C288.796,112.286 289.205,112.726 289.579,112.707C291.822,112.595 290.526,111.514 289.649,109.463C288.929,107.78 288.503,102.136 288.455,101.493C288.867,99.928 288.816,99.915 288.9,99.803C290.602,97.533 289.996,97.366 290.13,94.499C290.141,94.265 290.681,88.044 292.232,85.189C295.323,79.501 292.577,91.181 293.356,93.618C294.53,97.288 294.911,90.186 297.858,85.735C301.484,80.255 305.114,85.64 322.5,72.5C321.348,80.116 303.416,89.145 315.48,85.416C334.155,79.643 335.195,77.412 342.593,68.604C346.042,64.498 344.229,73.381 335.336,80.419C327.961,86.255 337.42,81.042 337.573,80.941C343.87,76.767 345.23,74.573 347.741,71.671Z" style="fill:rgb(229,232,237);"/>
        <path d="M329.398,56.265L330.561,57.453C330.023,57.814 328.32,58.956 326.272,64.335C323.458,71.728 308.907,79 304.861,79.343L304.677,78.574C318.929,68.445 318.402,64.842 316.56,65.642C316.508,65.665 313.236,69.225 306.62,74.64C301.926,78.481 302.04,78.501 297.504,82.509C297.131,82.84 296.977,83.816 296.514,83.631C295.931,83.397 296.462,82.092 295.88,81.858C304.891,63.148 312.629,64.23 309.232,62.65C306.214,61.245 294.793,78.028 292.348,81.444C287.1,87.056 288.895,98.147 287.289,90.615C286.138,85.22 289.207,76.655 289.62,75.504C290.616,73.076 290.269,72.798 288.061,71.428C289.915,65.751 289.691,65.481 290.385,65.338C295.159,64.352 295.166,64.599 299.823,62.992C308.218,62.28 306.98,57.854 308.362,58.391C308.542,58.461 308.521,58.473 310.504,59.497C317.085,61.019 326.432,57.275 329.398,56.265Z" style="fill:rgb(104,111,129);"/>
        <path d="M333.384,20.78C322.975,18.728 321.048,16.054 306.551,22.603C302.822,24.287 298.277,24.796 298.161,25.415C298.089,25.797 298.56,26.153 298.488,26.535C298.342,26.56 296.657,26.843 296.657,26.843C295.278,26.47 295.694,25.994 295.585,26C294.627,26.05 295.104,26.925 294.159,26.974C293.681,26.753 282.583,21.621 289.47,22.354C293.551,22.788 294.212,25.484 307.384,19.268C323.179,11.815 335.043,20.657 333.433,17.518C332.63,15.952 318.571,11.73 326.494,12.442C340.56,13.707 347.091,21.243 348.356,22.703C354.74,30.07 349.058,20.479 348.939,20.323C346.319,16.853 340.151,11.224 346.426,14.732C354.692,19.353 356.571,23.638 357.038,24.705C358.156,27.256 357.494,28.339 359.453,28.109C360.865,27.942 363.848,25.599 370.424,27.605C369.874,28.034 369.324,28.464 368.774,28.894C365.117,28.868 365.132,28.795 364.825,28.866C362.777,29.339 363.432,30.481 364.463,30.612C372.296,31.607 374.657,33.13 380.783,42.46C379.227,42.534 378.344,41.888 378.593,43.477C378.624,43.678 378.655,43.875 380.011,45.586C383.494,52.674 384.415,52.139 387.187,59.619C388.685,63.663 388.92,79.447 386.112,68.889C385.7,67.341 385.074,67.979 384.458,67.44L384.883,66.5C385.345,64.883 385.893,64.565 384.383,63.671C384.907,62.265 385.663,62.169 384.108,58.686C381.727,53.353 378.542,49.68 376.319,44.595C373.583,38.338 366.905,38.495 362.791,35.643C370.326,33.788 377.132,41.92 373.261,36.664C369.606,31.702 359.719,32.645 358.503,32.761C355.648,33.033 357.818,30.606 353.199,22.759C352.98,23.009 352.761,23.26 352.543,23.51C352.584,24.082 352.642,24.016 353.67,30.586C353.52,30.499 352.363,31.032 351.627,29.401C349.181,23.983 327.878,10.436 338.848,21.416C344.846,27.419 336.56,21.885 336.395,21.775C335.248,21.009 335.218,21.226 333.384,20.78Z" style="fill:rgb(63,68,86);"/>
        <path d="M237.756,261.297C232.864,255.561 230.936,254.551 226.551,255.767C213.777,259.308 214.226,260.344 202.484,266.401C199.717,267.829 201.11,262.565 215.422,257.277C227.736,252.726 230.293,251.169 235.512,255.487C245.31,263.593 245.291,272.462 246.451,266.447C247.13,262.926 248.162,261.716 248.445,261.385C254.966,253.741 238.914,278.185 248.689,301.421C256.212,319.303 289.278,334.09 315.815,300.797C320.055,295.479 317.4,302.253 317.302,302.398C295.436,334.633 235.848,331.497 243.68,275.533C243.851,274.312 244.776,267.696 237.756,261.297Z" style="fill:rgb(67,66,79);"/>
        <path d="M419.501,261.501C418.047,262.865 418.034,262.836 417.931,262.974C412.311,270.478 413.357,271.15 414.559,280.494C417.484,303.215 401.249,327.025 372.481,322.608C341.863,317.906 333.275,287.681 342.493,301.505C358.564,325.607 395.637,325.781 407.091,305.284C415.477,290.279 410.953,273.727 410.468,270.506C416.786,261.524 420.348,249.945 433.381,253.929C449.318,258.8 453.576,263.049 454.933,264.403L454.456,265.951C448.154,261.969 444.339,260.311 443.416,259.91C426.599,252.604 424.225,255.803 419.501,261.501Z" style="fill:rgb(63,62,74);"/>
        <path d="M318.52,43.818C318.723,43.723 331.998,38.173 321.296,44.175C316.189,47.039 302.203,59.916 299.823,62.992C295.166,64.599 295.159,64.352 290.385,65.338C289.691,65.481 289.915,65.751 288.061,71.428C287.926,71.754 284.044,81.137 287.675,75.816C288.46,74.666 288.419,74.673 288.533,74.654C289.38,74.518 288.848,75.628 289.62,75.504C289.207,76.655 286.138,85.22 287.289,90.615C288.895,98.147 287.1,87.056 292.348,81.444C293.158,81.639 293.553,82.727 294.362,82.922C294.362,82.922 295.758,81.943 295.88,81.858C296.462,82.092 295.931,83.397 296.514,83.631C296.977,83.816 297.131,82.84 297.504,82.509C302.04,78.501 301.926,78.481 306.62,74.64C313.236,69.225 316.508,65.665 316.56,65.642C318.402,64.842 318.929,68.445 304.677,78.574C302.918,80.403 302.803,80.329 302.78,80.547C302.59,82.327 303.304,80.244 304.861,79.343C308.907,79 323.458,71.728 326.272,64.335C328.32,58.956 330.023,57.814 330.561,57.453C330.677,57.63 331.07,57.386 331.186,57.563C331.236,57.639 327.097,70.544 323.4,72.651L322.5,72.5C305.114,85.64 301.484,80.255 297.858,85.735C294.911,90.186 294.53,97.288 293.356,93.618C292.577,91.181 295.323,79.501 292.232,85.189C290.681,88.044 290.141,94.265 290.13,94.499C289.996,97.366 290.602,97.533 288.9,99.803C288.816,99.915 288.867,99.928 288.455,101.493C287.081,102.983 286.936,104.042 285.371,102.691C287.134,96.516 287.248,96.242 284.293,90.6C285.15,89.12 285.38,89.26 285.515,87.501C284.975,80.13 285.392,80.113 285.245,79.489C283.088,70.334 293.532,53.661 298.528,50.121C300.36,52.808 298.186,52.657 295.49,56.496C291.222,62.573 291.293,62.896 291.752,63.316C292.126,63.657 297.071,62.202 300.382,59.283C314.509,46.826 314.04,46.217 318.52,43.818Z" style="fill:rgb(71,78,95);"/>
        <path d="M347.351,45.429C347.541,45.788 349.429,45.69 347.944,47.875C345.894,50.891 346.042,50.932 343.489,53.492C339.971,57.02 342.044,57.92 340.12,62.523C339.956,62.52 339.569,61.252 338.497,62.496C336.067,65.318 333.645,70.503 335.529,70.424C335.925,70.407 336.119,69.776 336.515,69.76C346.375,60.233 342.208,57.655 343.727,55.849C346.941,52.03 347.169,52.334 350.045,48.22C350.614,49.017 351.182,49.814 351.751,50.612C351.164,62.301 350.253,62.135 350.156,62.45C349.902,62.965 349.852,62.819 346.822,68.809C346.626,67.995 346.431,67.181 346.236,66.367C348.265,59.928 350.237,58.22 347.499,58.485C345.927,58.638 347.381,59.974 343.88,64.734C341.574,66.619 341.797,66.74 339.453,69.434C333.233,76.583 320.95,81.451 320.5,81.516C318.757,81.768 320.146,80.742 321.228,79.381C323.123,76.998 324.723,73.761 324.631,73.592C324.385,73.138 323.646,73.105 323.4,72.651C327.097,70.544 331.236,57.639 331.186,57.563C331.07,57.386 330.677,57.63 330.561,57.453L329.398,56.265C340.707,52.779 346.226,46.674 347.351,45.429Z" style="fill:rgb(105,112,130);"/>
        <path d="M343.88,64.734C344.927,65.805 344.858,65.792 346.236,66.367C346.431,67.181 346.626,67.995 346.822,68.809C346.441,70.432 346.936,70.296 347.741,71.671C345.23,74.573 343.87,76.767 337.573,80.941C337.42,81.042 327.961,86.255 335.336,80.419C344.229,73.381 346.042,64.498 342.593,68.604C335.195,77.412 334.155,79.643 315.48,85.416C303.416,89.145 321.348,80.116 322.5,72.5L323.4,72.651C323.646,73.105 324.385,73.138 324.631,73.592C324.723,73.761 323.123,76.998 321.228,79.381C320.146,80.742 318.757,81.768 320.5,81.516C320.95,81.451 333.233,76.583 339.453,69.434C341.797,66.74 341.574,66.619 343.88,64.734Z" style="fill:rgb(71,76,91);"/>
        <path d="M364.213,686.971C368.878,698.708 374.187,719.459 392.302,700.26C399.243,692.903 401.369,674.453 402.209,682.536C403.418,694.179 375.963,733.55 363.399,690.513C362.835,688.581 363.005,688.568 364.213,686.971Z" style="fill:rgb(112,112,116);"/>
        <path d="M270.69,705.217C286.033,716.824 292.418,688.192 293.531,687.943C297.95,686.954 284.237,729.381 261.861,699.256C257.265,693.069 253.343,677.316 257.256,681.664C259.035,683.642 256.73,693.279 270.69,705.217Z" style="fill:rgb(112,112,116);"/>
        <path d="M361.55,623.505C358.886,650.227 361.128,684.278 358.148,657.561C356.167,639.802 362.562,592.543 364.601,601.459C364.814,602.394 361.622,622.968 361.55,623.505Z" style="fill:rgb(165,165,167);"/>
        <path d="M292.752,600.614L294.342,600.623C295.016,603.116 297.14,610.964 299.31,632.518C301.461,653.89 297.603,670.893 297.77,657.496C297.827,652.928 298.102,630.82 292.752,600.614Z" style="fill:rgb(155,155,158);"/>
        <path d="M401.157,833.432C400.91,833.737 400.662,834.043 400.415,834.348C400.317,834.132 399.816,834.414 399.718,834.197C398.044,830.498 398.538,809.118 389.08,779.581C389.006,779.349 386.063,770.159 390.18,776.731C393.038,781.293 399.838,813.479 400.271,821.521C400.75,830.39 400.478,830.385 401.157,833.432Z" style="fill:rgb(150,150,151);"/>
        <path d="M260.672,801.519C262.529,790.788 267.317,776.889 267.714,776.877C272.223,776.735 264.45,779.553 258.565,832.524C257.232,844.521 255.401,826.223 260.672,801.519Z" style="fill:rgb(148,148,150);"/>
        <path d="M211.633,311.578C210.018,313.982 199.13,331.223 199.51,325.502C199.713,322.449 211.81,313.636 225.028,280.113C225.144,279.818 227.265,274.44 227.858,277.331C228.841,282.127 213.163,308.961 211.633,311.578Z" style="fill:rgb(125,124,129);"/>
        <path d="M438.447,298.527C432.137,286.965 429.388,277.129 429.528,276.509C430.669,271.454 432.39,283.426 441.517,299.491C451.675,317.368 455.347,321.005 456.372,322.564C456.476,322.722 460.848,331.623 455.359,324.704C445.532,312.319 440.945,302.372 438.447,298.527Z" style="fill:rgb(129,128,131);"/>
        <path d="M377.976,108.627C377.635,109.681 373.269,123.181 370.621,120.368C370.249,119.972 372.488,107.636 372.688,106.535C373.611,101.45 375.717,102.105 376.447,94.496C376.663,92.248 378.872,91.81 379.696,95.452C380.558,99.261 378.258,107.602 377.976,108.627Z" style="fill:rgb(227,229,238);"/>
        <path d="M289.667,452.44C287.142,444.435 286.049,442.471 286.185,428.463C286.19,427.963 286.261,420.672 288.375,422.609C288.874,423.066 288.595,423.178 288.365,428.499C287.379,451.306 299.545,468.146 300.327,473.504C301.859,484.01 290.347,454.202 289.667,452.44Z" style="fill:rgb(141,140,143);"/>
        <path d="M368.879,422.731C370.078,422.718 372.303,422.693 371.45,437.495C370.667,451.075 359.402,473.815 359.14,474.213C358.578,475.068 356.503,474.644 357.963,471.721C373.3,441.021 368.883,424.642 368.879,422.731Z" style="fill:rgb(132,131,135);"/>
        <path d="M354.505,202.562C347.01,203.701 347.055,203.779 340.424,207.281C338.7,208.192 337.979,201.68 353.492,200.437C380.316,198.289 413.546,191.756 387.589,198.735C381.257,200.438 357.161,202.351 354.505,202.562Z" style="fill:rgb(107,106,109);"/>
        <path d="M302.5,202.49C299.708,202.338 272.325,200.848 267.822,198.073C267.557,197.909 266.858,195.926 271.479,196.714C287.902,199.518 287.871,199.077 304.51,200.421C316.991,201.429 319.791,207.688 317.488,207.355C313.521,206.782 314.477,203.432 302.5,202.49Z" style="fill:rgb(106,106,109);"/>
        <path d="M280.793,98.384C285.278,108.48 285.125,108.523 287.057,119.457C287.916,124.32 278.884,114.674 277.877,101.475C277.836,100.946 277.439,95.74 277.905,94.836C279.502,91.739 279.569,95.17 280.793,98.384Z" style="fill:rgb(227,231,243);"/>
        <path d="M242.322,738.532C242.603,739.57 243.52,745.459 246.621,749.434C246.72,749.561 249.399,755.008 245.296,750.948C236.946,742.685 240.721,725.874 239.859,717.483C238.617,705.395 242.795,700.742 242.634,704.45C242.434,709.055 241.983,708.946 241.9,713.483C241.801,718.863 243.315,718.856 241.904,727.536C241.246,731.587 242.187,737.662 242.322,738.532Z" style="fill:rgb(85,84,90);"/>
        <path d="M415.587,703.596C415.93,703.542 415.938,702.873 416.282,702.818C416.933,702.714 417.725,707.051 417.795,707.433C419.083,714.491 416.761,717.327 418.135,726.539C420.618,743.182 410.461,755.568 410.573,750.506C410.579,750.225 417.057,741.649 416.212,729.481C415.756,722.92 415.333,723.007 415.752,716.526C415.805,715.696 416.417,713.843 415.282,704.41L415.587,703.596Z" style="fill:rgb(92,91,100);"/>
        <path d="M396.265,454.291C398.085,451.998 398.047,452.048 400.125,450.083C409.669,441.059 408.473,439.276 409.547,439.616C412.916,440.682 404.835,448.573 404.208,449.185C387.716,465.288 388.059,471.362 383.315,478.377C379.293,484.326 380.944,472.599 396.265,454.291Z" style="fill:rgb(110,110,113);"/>
        <path d="M256.676,452.348C246.8,442.473 247.515,441.885 247.325,441.556C244.161,436.088 249.157,440.589 249.257,440.724C258.108,452.715 264.527,454.131 275.724,476.425C276.731,478.43 275.263,479.21 274.234,477.826C267.109,468.238 269.392,466.721 256.676,452.348Z" style="fill:rgb(116,116,119);"/>
        <path d="M333.384,20.78C332.036,21.996 332.065,21.937 330.519,22.842C328.614,22.71 328.623,22.729 328.461,22.699C327.136,22.452 315.055,20.197 311.637,23.626C311.081,24.341 310.662,23.521 310.113,24.227C309.13,25.491 310.306,25.396 310.222,25.446C309.748,25.724 309.155,25.058 308.609,25.111C307.795,25.189 307.859,25.216 298.488,26.535C298.56,26.153 298.089,25.797 298.161,25.415C298.277,24.796 302.822,24.287 306.551,22.603C321.048,16.054 322.975,18.728 333.384,20.78Z" style="fill:rgb(106,113,133);"/>
        <path d="M487.328,314.875C468.942,279.385 466.149,280.902 465.46,277.508C463.8,269.333 483.244,298.3 488.824,314.53L487.328,314.875Z" style="fill:rgb(128,127,131);"/>
        <path d="M178.51,299.504C171.352,312.968 169.948,317.283 168.746,315.431C167.293,313.192 194.261,266.251 192.241,277.468C191.873,279.513 190.11,278.527 178.51,299.504Z" style="fill:rgb(131,130,135);"/>
        <path d="M78.821,509.351C76.279,519.906 75.294,519.734 75.523,530.499C75.541,531.366 75.799,543.481 72.977,541.035C71.463,539.722 71.187,523.595 73.421,518.467C77.051,510.133 77.268,510.111 78.821,509.351Z" style="fill:rgb(241,242,248);"/>
        <path d="M375.137,350.9C375.251,352.25 374.575,352.343 374.447,352.36C364.913,353.671 355.778,336.254 338.342,333.771C336.188,333.464 336.356,331.363 338.505,331.734C360.033,335.451 358.276,346.7 375.137,350.9Z" style="fill:rgb(122,121,125);"/>
        <path d="M579.481,508.786C588.837,522.745 586.415,539.997 584.376,541.061C583.615,541.458 581.94,541.297 582.504,530.5C583.319,514.87 576.918,511.214 579.481,508.786Z" style="fill:rgb(237,236,246);"/>
        <path d="M283.391,351.521C283.628,351.402 282.641,351.03 282.879,350.911C283.447,350.627 283.699,351.379 290.305,348.089C291.493,347.497 310.529,330.388 320.429,331.758C320.648,331.789 322.728,333.354 318.768,333.971C301.636,336.642 296.498,351.458 283.587,352.279L283.391,351.521Z" style="fill:rgb(125,125,127);"/>
        <path d="M338.713,376.767C354.416,374.837 363.522,386.424 371.124,369.284C375.433,359.569 374.345,379.24 361.551,380.778C354.247,381.656 349.949,379.251 343.477,378.6C340.41,378.291 339.021,379.788 338.713,376.767Z" style="fill:rgb(129,129,131);"/>
        <path d="M296.493,378.557C305.472,378.828 325.802,373.643 319.249,378.034C318.319,378.657 318.087,377.706 305.445,380.25C301.403,381.064 289.506,383.856 284.426,369.511C279.605,355.901 287.809,371.858 287.971,372.174C290.395,376.889 295.672,378.332 296.493,378.557Z" style="fill:rgb(124,124,125);"/>
        <path d="M375.719,54.737C375.954,54.712 378.159,52.164 384.383,63.671C385.893,64.565 385.345,64.883 384.883,66.5L384.458,67.44C385.572,81.845 386.43,82.187 382.913,88.649C382.567,88.175 381.925,87.974 381.578,87.5C380.259,85.695 385.093,82.949 381.378,74.552C381.836,73.631 382.295,72.71 382.754,71.789C382.59,70.361 383.795,63.594 375.719,54.737Z" style="fill:rgb(64,70,88);"/>
        <path d="M155.565,369.516C155.218,370.637 150.768,385.029 148.61,382.418C147.742,381.369 156.811,369.224 154.543,349.501C154.134,345.938 153.803,345.819 154.428,345.394C155.058,344.966 156.358,345.049 157.096,354.539C157.484,359.541 155.792,368.334 155.565,369.516Z" style="fill:rgb(130,129,133);"/>
        <path d="M347.698,44.389L347.351,45.429C346.226,46.674 340.707,52.779 329.398,56.265C326.432,57.275 317.085,61.019 310.504,59.497C312.224,57.212 312.614,57.848 315.522,57.574C333.144,55.665 344.533,45.849 345.154,45.149C346.244,43.918 346.347,43.612 347.698,44.389Z" style="fill:rgb(75,82,100);"/>
        <path d="M501.657,345.595C502.102,345.847 502.744,345.405 503.189,345.656C504.327,346.299 498.764,359.674 507.949,378.421C508.041,378.608 513.119,388.971 507.319,380.95C497.557,367.449 501.129,348.411 501.657,345.595Z" style="fill:rgb(121,121,124);"/>
        <path d="M362.398,64.308C363.815,70.478 363.664,70.505 370.145,82.529C371.394,84.846 369.454,84.604 369.418,84.64C357.418,71.093 358.521,66.25 358.36,65.56C360.243,64.487 360.187,64.396 362.398,64.308Z" style="fill:rgb(105,113,130);"/>
        <path d="M103.493,463.489C102.438,465.132 102.301,464.955 101.227,466.566C100.371,464.479 97.726,458.034 109.858,439.727C110.052,439.434 123.367,420.995 113.648,437.531C99.701,461.26 102.379,462.644 103.493,463.489Z" style="fill:rgb(109,108,113);"/>
        <path d="M368.418,58.501C368.111,57.664 366.211,52.491 363.233,48.633C359.172,43.372 354.032,43.215 356.347,42.37C364.453,39.412 374.453,64.491 370.608,69.619C368.756,72.09 369.112,66.128 366.587,61.457C366.996,61.268 366.612,62.145 367.028,61.953C367.197,61.876 368.444,61.301 368.79,60.441C369.036,59.83 368.172,59.112 368.418,58.501Z" style="fill:rgb(79,85,105);"/>
        <path d="M554.397,463.713C559.042,458.279 542.662,437.28 543.863,435.659C544.144,435.28 545.032,434.509 548.15,439.716C559.053,457.926 557.513,463.476 556.928,465.581C555.524,464.724 555.475,464.926 554.397,463.713Z" style="fill:rgb(110,110,114);"/>
        <path d="M317.35,186.553C321.437,197.416 325.256,206.593 321.871,203.073C320.291,201.429 307.726,169.87 312.446,172.588C313.472,173.178 312.78,173.547 317.35,186.553Z" style="fill:rgb(133,133,135);"/>
        <path d="M280.101,76.568C282.285,81.103 280.591,86.374 284.293,90.6C287.248,96.242 287.134,96.516 285.371,102.691C280.933,92.38 281.295,92.33 280.042,83.552C279.99,83.186 279.758,83.337 279.668,82.333C279.5,80.448 278.536,81.597 278.311,81.45C278.811,78.814 278.682,78.799 280.101,76.568Z" style="fill:rgb(103,110,128);"/>
        <path d="M342.488,187.495C341.11,190.523 336.545,205.182 334.659,202.441C333.374,200.573 336.561,200.932 343.874,175.64C344.16,174.655 345.766,173.921 345.781,175.335C345.818,178.927 343.17,185.524 342.488,187.495Z" style="fill:rgb(138,138,141);"/>
        <path d="M375.719,54.737C383.795,63.594 382.59,70.361 382.754,71.789C378.248,68.825 380.157,67.319 373.458,58.539C371.824,56.565 374.7,56.605 375.765,55.419C375.917,55.25 375.567,54.907 375.719,54.737Z" style="fill:rgb(107,114,132);"/>
        <path d="M300.46,45.414C294.092,49.434 294.266,49.706 288.59,57.758C288.442,57.376 287.531,57.91 287.383,57.528C286.946,56.401 289.197,53.675 289.707,49.583C289.833,49.627 291.28,50.13 291.28,50.13C292.107,49.72 292.579,48.766 293.406,48.356C294.387,47.475 300.418,42.055 307.481,39.785C318.969,36.094 301.103,45.09 300.46,45.414Z" style="fill:rgb(70,77,96);"/>
        <path d="M347.698,44.389C348.64,43.981 348.564,44.065 349.517,43.602C351.515,42.63 350.14,47.86 350.045,48.22C347.169,52.334 346.941,52.03 343.727,55.849C342.208,57.655 346.375,60.233 336.515,69.76C337.01,65.619 337.884,66.011 340.12,62.523C342.044,57.92 339.971,57.02 343.489,53.492C346.042,50.932 345.894,50.891 347.944,47.875C349.429,45.69 347.541,45.788 347.351,45.429L347.698,44.389Z" style="fill:rgb(87,94,112);"/>
        <path d="M291.997,410.383C292.04,410.568 292.544,412.689 292.544,412.689C292.268,412.911 291.802,412.167 291.525,412.389C279.918,402.915 287.474,375.085 287.362,392.514C287.289,403.824 289.904,407.206 291.997,410.383Z" style="fill:rgb(136,136,138);"/>
        <path d="M292.348,81.444C294.793,78.028 306.214,61.245 309.232,62.65C312.629,64.23 304.891,63.148 295.88,81.858C295.758,81.943 294.362,82.922 294.362,82.922C293.553,82.727 293.158,81.639 292.348,81.444Z" style="fill:rgb(65,72,90);"/>
        <path d="M407.726,220.281C407.092,219.627 392.936,205.03 401.298,210.882C411.374,217.934 421.385,238.604 414.299,229.979C410.545,225.409 411.253,224.983 407.726,220.281Z" style="fill:rgb(137,136,138);"/>
        <path d="M256.604,210.735C257.136,210.709 257.668,210.683 258.201,210.658C256.216,215.351 249.047,218.876 243.637,229.609C242.585,231.695 240.644,230.562 241.73,228.6C247.98,217.299 254.085,212.962 256.604,210.735Z" style="fill:rgb(143,143,145);"/>
        <path d="M393.016,743.823C397.806,749.842 402.899,751.632 398.516,751.365C392.266,750.983 381.008,728.098 386.398,730.658C387.463,731.164 385.673,732.283 393.016,743.823Z" style="fill:rgb(105,105,109);"/>
        <path d="M367.498,411.494C364.829,410.027 367.102,408.676 367.253,408.391C371.777,399.848 370.19,388.568 370.23,388.379C372.034,379.952 375.435,403.614 367.498,411.494Z" style="fill:rgb(139,139,142);"/>
        <path d="M272.263,731.631C272.284,747.566 248.867,757.474 260.348,748.367C271.003,739.914 268.3,731.981 272.263,731.631Z" style="fill:rgb(113,112,118);"/>
        <path d="M494.295,352.572C495.614,343.935 496.119,343.908 494.46,334.507C491.891,319.961 502.053,341.277 495.614,353.67C495.174,353.304 494.735,352.938 494.295,352.572Z" style="fill:rgb(126,126,129);"/>
        <path d="M164.61,355.606C166.303,354.719 175.297,352.64 181.249,349.146C184.826,347.047 186.173,344.583 186.331,347.474C186.395,348.633 175.179,356.487 165.318,356.747L164.61,355.606Z" style="fill:rgb(117,116,120);"/>
        <path d="M492.536,355.461L492.843,356.857C487.57,357.803 475.873,351.54 472.907,349.056C461.926,339.857 476.107,348.643 476.333,348.799C482.533,353.09 490.484,354.517 492.536,355.461Z" style="fill:rgb(130,130,134);"/>
        <path d="M162.46,338.495C161.578,351.314 163.588,352.929 161.431,352.651C157.776,352.181 161.6,323.257 163.588,331.453C163.722,332.007 163.291,331.902 162.46,338.495Z" style="fill:rgb(132,131,136);"/>
        <path d="M273.305,70.558C273.493,70.454 274.035,70.884 274.66,69.808C279.52,61.442 279.068,61.282 279.674,60.714C284.969,55.745 275.429,72.151 275.584,72.543C276.199,74.091 278.056,74.188 275.578,79.499C272.492,75.798 274.009,75.274 273.305,70.558Z" style="fill:rgb(88,95,113);"/>
        <path d="M321.53,53.751C330.193,50.485 343.09,38.926 342.592,42.517C342.435,43.648 332.466,50.582 329.217,52.017C324.894,53.927 323.949,54.291 323.483,54.471C321.579,55.205 321.971,53.913 321.53,53.751Z" style="fill:rgb(83,90,108);"/>
        <path d="M280.101,76.568C280.279,75.807 282.476,66.428 284.304,67.747C284.458,67.858 281.438,78.768 283.816,86.433C284.353,88.166 285.052,87.21 285.515,87.501C285.38,89.26 285.15,89.12 284.293,90.6C280.591,86.374 282.285,81.103 280.101,76.568Z" style="fill:rgb(83,90,107);"/>
        <path d="M350.156,62.45C351.908,62.655 351.802,62.674 353.497,62.5C354.842,65.525 354.236,65.62 355.086,68.796C355.336,69.729 356.032,70.678 355.78,71.61C355.737,71.769 355.268,71.043 354.029,72.701C353.657,73.198 354.641,73.133 354.312,73.574C351.618,65.9 352.325,62.629 350.995,64.949C349.122,68.217 349.663,68.416 347.741,71.671C346.936,70.296 346.441,70.432 346.822,68.809C349.852,62.819 349.902,62.965 350.156,62.45Z" style="fill:rgb(58,65,82);"/>
        <path d="M330.519,22.842C331.676,23.989 331.51,24.313 331.442,24.445C330.831,25.636 330.42,24.885 324.506,24.18C316.94,23.278 313.223,26.313 311.637,23.626C315.055,20.197 327.136,22.452 328.461,22.699C328.623,22.729 328.614,22.71 330.519,22.842Z" style="fill:rgb(85,93,111);"/>
        <path d="M360.498,37.876C360.765,37.966 367.896,38.856 372.657,46.497C372.263,47.218 372.433,48.37 371.512,47.47C359.33,35.56 356.267,40.743 355.757,39.423C355.613,39.051 355.353,37.917 360.498,37.876Z" style="fill:rgb(78,86,103);"/>
        <path d="M304.747,36.68C304.431,36.854 301.506,38.469 300.82,38.905C298.143,40.607 292.622,46.505 292.53,47.496C292.493,47.903 293.444,47.949 293.406,48.356C292.579,48.766 292.107,49.72 291.28,50.13C291.28,50.13 289.833,49.627 289.707,49.583C290.247,48.282 294.047,39.138 301.507,36.519C303.767,35.725 303.696,36.628 304.747,36.68Z" style="fill:rgb(71,78,96);"/>
        <path d="M373.458,58.539C380.157,67.319 378.248,68.825 382.754,71.789C382.295,72.71 381.836,73.631 381.378,74.552C376.554,68.136 377.273,67.739 372.779,61.041C372.295,60.321 372.638,60.351 373.458,58.539Z" style="fill:rgb(79,86,104);"/>
        <path d="M350.477,35.511C347.252,30.286 346.807,30.739 342.348,26.593C336.422,21.082 351.011,27.717 353.038,36.455C355.164,45.622 350.569,35.71 350.477,35.511Z" style="fill:rgb(75,82,100);"/>
        <path d="M394.386,730.344C384.535,730.079 380.705,709.033 386.295,719.642C389.189,725.135 389.564,724.798 394.207,728.83C394.207,728.83 394.372,730.223 394.386,730.344Z" style="fill:rgb(125,125,127);"/>
        <path d="M305.675,33.806C304.735,34.024 297.463,35.709 294.522,38.393C288.622,43.778 296.005,31.696 309.545,31.333C319.949,31.054 306.036,33.737 305.675,33.806Z" style="fill:rgb(75,82,100);"/>
        <path d="M272.808,716.843C273.271,717.083 273.733,717.323 274.195,717.563C273.828,718.644 270.951,727.12 266.588,729.648C266.444,729.732 259.262,731.624 265.154,728.132C269.128,725.776 272.31,717.819 272.808,716.843Z" style="fill:rgb(125,124,128);"/>
        <path d="M362.482,412.709C363.303,413.484 363.259,413.405 363.303,413.484C363.515,413.865 363.036,413.858 363.263,414.267C361.451,415.019 361.499,415.066 361.336,415.107C360.332,415.36 350.333,417.873 348.569,417.188C343.844,415.354 356.048,414.129 362.482,412.709Z" style="fill:rgb(159,159,160);"/>
        <path d="M368.418,58.501C368.172,59.112 369.036,59.83 368.79,60.441C368.444,61.301 367.197,61.876 367.028,61.953C366.612,62.145 366.996,61.268 366.587,61.457C359.543,48.494 357.675,49.748 357.486,48.495C357.441,48.195 358.78,46.366 362.856,52.225C366.236,57.083 366.2,57.087 366.496,57.506C367.488,58.912 367.873,58.219 368.418,58.501Z" style="fill:rgb(80,87,105);"/>
        <path d="M296.429,413.184C303.185,414.086 309.382,414.879 309.62,415.442C310.09,416.555 309.152,418.135 294.559,414.427C295.182,414.013 295.806,413.598 296.429,413.184Z" style="fill:rgb(167,167,168);"/>
        <path d="M351.751,50.612C353.412,49.621 353.56,50.589 353.646,52.475C353.683,53.277 353.726,54.217 353.497,62.5C351.802,62.674 351.908,62.655 350.156,62.45C350.253,62.135 351.164,62.301 351.751,50.612Z" style="fill:rgb(60,67,85);"/>
        <path d="M187.392,989.702C192.802,981.941 193.835,981.188 194.582,980.642C201.475,975.613 193.73,982.981 189.853,990.517C189.033,990.245 188.212,989.974 187.392,989.702Z" style="fill:rgb(119,120,128);"/>
        <path d="M470.188,989.315C469.367,990.335 469.234,990.068 468.136,990.442C464.259,983.545 457.059,976.869 463.602,981.324C467.068,983.683 465.84,984.792 470.188,989.315Z" style="fill:rgb(154,154,161);"/>
        <path d="M331.52,420.479C331.679,420.756 334.406,425.499 331.516,424.466C330.04,423.938 331.148,422.75 329.638,422.17C329.203,422.003 323.686,423.794 324.862,421.657C326.725,418.27 331.029,420.253 331.52,420.479Z" style="fill:rgb(108,107,114);"/>
        <path d="M330.601,211.882C323.041,211.883 324.432,209.164 324.814,208.804C325.258,208.385 325.38,210.148 332.446,208.92C332.721,208.872 334.639,210.168 330.601,211.882Z" style="fill:rgb(129,129,131);"/>
        <path d="M278.084,754.264C278.288,754.912 279.408,754.964 279.612,755.612C279.633,755.68 279.628,755.645 275.663,762.867L274.123,762.532C276.006,758.292 275.994,758.397 278.084,754.264Z" style="fill:rgb(123,122,127);"/>
        <path d="M343.88,64.734C347.381,59.974 345.927,58.638 347.499,58.485C350.237,58.22 348.265,59.928 346.236,66.367C344.858,65.792 344.927,65.805 343.88,64.734Z" style="fill:rgb(73,80,99);"/>
        <path d="M252.14,941.434C253.06,943.188 253.494,942.843 254.3,944.618C254.175,944.724 252.74,945.947 252.74,945.947C251.752,949.766 252.352,949.994 252.03,950.09C251.366,950.288 249.556,949.976 252.14,941.434Z" style="fill:rgb(127,126,134);"/>
        <path d="M405.961,942.447C406.112,942.979 408.771,952.364 405.674,949.351C404.664,948.367 406.438,944.654 402.996,944.517C404.625,943.624 404.348,943.285 405.961,942.447Z" style="fill:rgb(131,132,137);"/>
        <path d="M340.12,62.523C337.884,66.011 337.01,65.619 336.515,69.76C336.119,69.776 335.925,70.407 335.529,70.424C333.645,70.503 336.067,65.318 338.497,62.496C339.569,61.252 339.956,62.52 340.12,62.523Z" style="fill:rgb(106,114,132);"/>
        <path d="M234.758,690.437C237.414,696.194 237.119,696.568 236.606,696.624C235.202,696.777 235.367,696.353 234.774,695.122C233.954,693.418 233.754,693.688 232.635,692.556C233.209,691.069 233.449,691.358 234.758,690.437Z" style="fill:rgb(136,135,142);"/>
        <path d="M245.771,971.958C243.874,973.215 243.867,973.025 241.605,973.552C241.702,973.158 249.893,947.721 244.653,969.501C244.155,971.571 245.391,971.124 245.771,971.958Z" style="fill:rgb(161,162,172);"/>
        <path d="M412.432,972.644C412.626,972.16 413.295,971.976 413.489,971.493C413.58,971.268 412.674,968.725 412.735,968.554C414.104,964.698 415.832,972.704 415.926,973.141C414.07,973.329 413.983,973.702 412.432,972.644Z" style="fill:rgb(147,150,157);"/>
        <path d="M421.454,729.392C423.022,731.27 423.158,731.128 423.808,733.454C424.394,735.555 419.843,735.038 420.221,732.5C420.44,731.035 421.223,731.687 421.411,731.284C421.677,730.712 421.187,729.964 421.454,729.392Z" style="fill:rgb(236,235,234);"/>
        <path d="M186.359,268.48C186.192,272.089 186.252,272.075 186.179,272.378C183.853,282.043 184.491,270.7 184.503,270.498C184.597,268.876 183.138,269.088 183.116,269.065C183.489,268.602 183.755,265.895 186.359,268.48Z" style="fill:rgb(147,146,156);"/>
        <path d="M471.364,269.529C473.31,267.716 473.233,267.555 473.461,267.575C473.461,267.575 474.873,269.935 474.996,270.14C474.529,270.693 473.594,270.69 473.127,271.242C472.893,271.52 473.284,271.998 473.144,272.333C472.879,272.969 472.53,273.636 471.967,274.032C471.669,274.241 471.449,274.021 471.364,269.529Z" style="fill:rgb(188,188,194);"/>
        <path d="M288.061,71.428C290.269,72.798 290.616,73.076 289.62,75.504C288.848,75.628 289.38,74.518 288.533,74.654C288.419,74.673 288.46,74.666 287.675,75.816C284.044,81.137 287.926,71.754 288.061,71.428Z" style="fill:rgb(99,106,123);"/>
        <path d="M487.328,314.875L488.824,314.53C489.049,314.928 492.144,319.34 490.428,319.412C487.146,319.549 488.034,318.086 487.328,314.875Z" style="fill:rgb(206,206,205);"/>
        <path d="M422.142,692.443C425.004,692.433 424.643,693.269 424.822,693.38C424.658,693.574 423.912,692.953 421.565,697.687C420.712,696.705 420.288,696.796 420.699,695.531C420.699,695.531 422.027,692.69 422.142,692.443Z" style="fill:rgb(160,160,167);"/>
        <path d="M408.561,261.688C408.894,261.907 411.53,263.636 410.881,266.089C410.69,266.809 409.375,266.823 409.185,267.543C408.488,265.03 408.504,265.097 407.804,262.539C408.056,262.255 408.309,261.972 408.561,261.688Z" style="fill:rgb(169,168,173);"/>
        <path d="M282.491,41.59C282.93,41.466 294.905,38.093 288.17,42.001C287.882,42.168 284.098,43.178 283.445,43.429C283.293,43.156 283.874,42.809 283.722,42.536C283.662,42.428 283.631,42.466 282.491,41.59Z" style="fill:rgb(85,93,107);"/>
        <path d="M314.446,44.482C309.875,45.555 310.398,43.796 310.522,43.497C310.719,43.024 314.072,41.345 314.828,43.616C314.927,43.916 314.347,44.183 314.446,44.482Z" style="fill:rgb(107,114,132);"/>
        <path d="M291.997,410.383C295.324,412.525 295.273,412.531 296.429,413.184C295.806,413.598 295.182,414.013 294.559,414.427C292.913,413.445 293.01,413.489 291.525,412.389C291.802,412.167 292.268,412.911 292.544,412.689C292.544,412.689 292.04,410.568 291.997,410.383Z" style="fill:rgb(211,211,213);"/>
        <path d="M494.295,352.572C494.735,352.938 495.174,353.304 495.614,353.67C494.602,355.607 494.732,355.685 492.843,356.857L492.536,355.461C493.923,353.369 493.976,353.462 494.295,352.572Z" style="fill:rgb(216,216,215);"/>
        <path d="M380.783,42.46C380.824,42.623 381.3,44.5 381.3,44.5C380.999,44.974 380.312,45.111 380.011,45.586C378.655,43.875 378.624,43.678 378.593,43.477C378.344,41.888 379.227,42.534 380.783,42.46Z" style="fill:rgb(63,68,86);"/>
        <path d="M274.123,762.532L275.663,762.867C275.364,764.42 275.85,764.707 274.517,765.53C271.398,767.455 274.005,762.744 274.123,762.532Z" style="fill:rgb(203,201,202);"/>
        <path d="M454.933,264.403C456.838,264.898 457.45,265.085 456.631,266.851L455.467,266.613L454.456,265.951L454.933,264.403Z" style="fill:rgb(201,201,201);"/>
        <path d="M367.586,109.52C368.196,109.881 368.806,110.242 369.417,110.602C369.262,110.732 365.301,114.035 366.892,110.598C367.072,110.21 367.406,109.908 367.586,109.52Z" style="fill:rgb(121,125,133);"/>
        <path d="M370.424,27.605C370.879,27.846 371.334,28.088 371.789,28.329L371.385,29.339C370.038,29.17 370.095,29.209 368.774,28.894C369.324,28.464 369.874,28.034 370.424,27.605Z" style="fill:rgb(63,68,86);"/>
        <path d="M164.61,355.606L165.318,356.747C165.212,356.766 160.558,357.202 164.61,355.606Z" style="fill:rgb(213,213,212);"/>
        <path d="M371.789,28.329C371.905,28.429 373.242,29.581 373.242,29.581C373.349,30.895 372.678,29.508 371.385,29.339L371.789,28.329Z" style="fill:rgb(63,68,86);"/>
        <path d="M304.677,78.574L304.861,79.343C303.304,80.244 302.59,82.327 302.78,80.547C302.803,80.329 302.918,80.403 304.677,78.574Z" style="fill:rgb(86,91,110);"/>
        <path d="M362.482,412.709C363.18,412.991 363.877,413.273 364.575,413.555L363.263,414.267C363.036,413.858 363.515,413.865 363.303,413.484C363.259,413.405 363.303,413.484 362.482,412.709Z" style="fill:rgb(207,207,209);"/>
        <path d="M379.076,88.564C379.576,89.92 381.155,90.799 379.742,90.372C379.642,90.341 379.058,90.165 378.8,89.466C378.692,89.171 379.184,88.859 379.076,88.564Z" style="fill:rgb(89,94,114);"/>
        <path d="M270.669,63.722L271.768,64.337L271.743,65.454C271.385,64.877 271.027,64.3 270.669,63.722Z" style="fill:rgb(129,131,150);"/>
        <path d="M323.707,28.662C323.982,29.174 324.256,29.686 324.531,30.199C323.178,29.55 323.063,29.629 323.074,29.5C323.104,29.151 323.677,29.011 323.707,28.662Z" style="fill:rgb(96,103,121);"/>
        <path d="M295.474,168.342C295.926,168.402 296.039,167.366 296.491,167.427C297.756,167.596 296.273,167.897 295.731,169.064L295.474,168.342Z" style="fill:rgb(138,138,163);"/>
        <path d="M270.669,63.722C271.063,63.703 271.111,62.906 271.504,62.886C271.504,62.886 271.747,64.221 271.768,64.337L270.669,63.722Z" style="fill:rgb(118,123,144);"/>
        <path d="M292.752,600.614C293.962,599.889 293.965,599.752 294.054,599.834C294.411,600.159 294.004,600.316 294.342,600.623L292.752,600.614Z" style="fill:rgb(219,219,219);"/>
        <path d="M272.808,716.843C273.677,716.774 273.656,716.862 274.195,717.563C273.733,717.323 273.271,717.083 272.808,716.843Z" style="fill:rgb(212,212,211);"/>
    </g>
</svg>
